<svg width="80" height="80" viewBox="0 0 80 80" fill="none" xmlns="http://www.w3.org/2000/svg">
<g clip-path="url(#clip0_14_9)">
<path d="M21.2019 35.7665V41.8256L29.9538 47.8848V41.8256L21.2019 35.7665Z" fill="#6E0000" stroke="black" stroke-width="5.30098" stroke-linecap="round" stroke-linejoin="round"/>
<path d="M29.9538 47.8869L47.4576 35.7688V29.7096L29.9538 41.8277V47.8869Z" fill="#AA4400" stroke="black" stroke-width="5.30098" stroke-linecap="round" stroke-linejoin="round"/>
<path d="M21.2019 35.7664L29.9538 41.8256L47.4576 29.7076L38.7057 23.6484L21.2019 35.7664Z" fill="#C87137" stroke="black" stroke-width="5.30098" stroke-linecap="round" stroke-linejoin="round"/>
<path d="M49.5516 60.1851V66.2443L40.7997 72.3035V66.2443L49.5516 60.1851Z" fill="#B7592C" stroke="black" stroke-width="5.30098" stroke-linecap="round" stroke-linejoin="round"/>
<path d="M40.7997 72.3056L23.2959 60.1875V54.1284L40.7997 66.2464V72.3056Z" fill="#6E2F0C" stroke="black" stroke-width="5.30098" stroke-linecap="round" stroke-linejoin="round"/>
<path d="M49.5516 60.1851L40.7997 66.2443L23.2959 54.1263L32.0478 48.0671L49.5516 60.1851Z" fill="#C45632" stroke="black" stroke-width="5.30098" stroke-linecap="round" stroke-linejoin="round"/>
<path d="M6.71841 51.223L9.10973 56.3107L19.3509 55.8314L16.9595 50.7438L6.71841 51.223Z" fill="#D45500" stroke="black" stroke-width="5.30098" stroke-linecap="round" stroke-linejoin="round"/>
<path d="M18.9037 56.1528L29.7563 34.973L27.3791 29.9162L16.5265 51.096L18.9037 56.1528Z" fill="#FF7F2A" stroke="black" stroke-width="5.30098" stroke-linecap="round" stroke-linejoin="round"/>
<path d="M6.38489 51.1396L16.4908 50.6675L27.2638 29.6783L17.1579 30.1504L6.38489 51.1396Z" fill="#FF9955" stroke="black" stroke-width="5.30098" stroke-linecap="round" stroke-linejoin="round"/>
<path fill-rule="evenodd" clip-rule="evenodd" d="M41.176 1.40433L58.095 9.62755L57.9214 56.1579L41.0024 45.2276L41.176 1.40433Z" fill="#A7A69B" stroke="black" stroke-width="1.7114"/>
<path fill-rule="evenodd" clip-rule="evenodd" d="M60.0156 54.8989L60.146 9.69264L58.1046 9.6433L57.9851 56.1762L60.0156 54.8989Z" fill="url(#paint0_linear_14_9)" stroke="black" stroke-width="1.7114"/>
<path fill-rule="evenodd" clip-rule="evenodd" d="M50.9157 1.34554L70.2719 9.68937L58.1046 9.64329L41.0988 1.35442L50.9157 1.34554Z" fill="#696861" fill-opacity="0.992519" stroke="black" stroke-width="1.7114"/>
<path fill-rule="evenodd" clip-rule="evenodd" d="M70.0728 56.1728L70.2339 9.6809L58.1866 9.65759L57.997 56.1619L70.0728 56.1728Z" fill="#B9B7AB" stroke="black" stroke-width="2.15425"/>
<path fill-rule="evenodd" clip-rule="evenodd" d="M45.9908 28.304C46.1632 28.5327 46.1313 28.7822 45.8968 29.0523C45.6885 29.3022 45.4751 29.4165 45.2579 29.3942C44.8866 29.3624 44.7197 29.1891 44.7553 28.8745C44.7926 28.56 44.9915 28.3692 45.3532 28.304H45.9908Z" fill="#84827A"/>
<path fill-rule="evenodd" clip-rule="evenodd" d="M64.4033 14.4198C64.3395 14.8426 64.2944 15.0969 64.2679 15.1844C64.2045 15.3797 64.0691 15.5481 63.8611 15.6881C63.7881 15.7422 63.6384 15.8025 63.4131 15.8676C63.2129 15.9217 63.0908 15.9758 63.046 16.0299C63.1637 16.0633 63.3493 16.0682 63.6025 16.0474C63.8465 16.025 64.0321 16.036 64.1593 16.0791C64.313 16.1333 64.4084 16.2094 64.4444 16.3062L64.5662 16.6655C64.6205 16.362 64.6392 15.955 64.6205 15.4448C64.6018 14.8808 64.5927 14.4674 64.5927 14.2066L64.4033 14.4198ZM65.3124 14.1748C65.3575 14.4023 65.3721 14.7124 65.3535 15.103C65.3443 15.3195 65.3311 15.634 65.3124 16.0474L65.4078 17.5766C65.2992 17.7495 65.1719 18.0596 65.0274 18.5047C64.9015 18.9275 64.761 19.242 64.6073 19.4488C64.5343 19.557 64.3304 19.7523 63.9961 20.0339C63.7151 20.2943 63.5258 20.5169 63.4264 20.7012C63.5071 20.2243 63.5163 19.6872 63.4528 19.0894C63.3812 18.4282 63.2407 18.0262 63.0324 17.8862C62.9333 17.8101 62.6707 17.745 62.2451 17.6909C61.9733 17.6478 61.7972 17.4525 61.7164 17.1041C61.6886 16.823 61.6567 16.6163 61.6207 16.4861C61.5664 16.2476 61.4483 16.1394 61.2682 16.1601C61.4578 15.9648 61.7202 15.7805 62.0558 15.6071C62.236 15.5197 62.5115 15.3846 62.8827 15.2002C63.0643 15.103 63.1824 15.0269 63.2353 14.9728C63.2353 14.8743 63.254 14.7994 63.2896 14.7441C63.3439 14.69 63.4396 14.6359 63.5747 14.5817C63.7206 14.5166 63.82 14.4625 63.8743 14.4198C64.028 14.2989 64.1142 14.159 64.1315 13.9954C64.1234 13.7793 64.1234 13.5885 64.1315 13.4261C64.1858 12.102 64.3619 11.0339 64.6615 10.2201C64.7067 10.4793 64.7158 10.931 64.688 11.5714C64.6615 12.1562 64.6934 12.6062 64.7837 12.9207C64.8193 13.0623 64.9147 13.2735 65.0684 13.5567C65.2038 13.8062 65.2859 14.0129 65.3124 14.1748V14.1748Z" fill="#9D9B92"/>
<path fill-rule="evenodd" clip-rule="evenodd" d="M55.468 22.8943C55.4588 22.4601 55.4534 22.1342 55.4534 21.9181L54.9922 23.2198C55.11 23.5234 55.0465 23.9303 54.8025 24.4405C54.6753 24.7123 54.4897 25.0973 54.2457 25.5961C54.0468 25.5742 53.8653 25.6454 53.7024 25.8077C53.4133 26.0905 53.2636 26.2305 53.2541 26.2305C53.0648 26.3497 52.7068 26.399 52.1818 26.3766C52.3634 26.4214 52.6484 26.5182 53.0383 26.6708C53.3722 26.7786 53.6254 26.7518 53.7978 26.5898C53.8429 26.545 53.888 26.4531 53.9328 26.3131C53.9702 26.1715 54.019 26.073 54.0828 26.0189C54.1371 25.9872 54.2406 25.9603 54.3957 25.9379C54.5402 25.9156 54.6529 25.9111 54.735 25.9221C54.8158 25.9331 54.9882 25.9811 55.2505 26.0682C55.4588 26.1337 55.639 26.1495 55.7927 26.1174C55.187 25.8997 54.9563 25.4387 55.1008 24.7331C55.1195 24.6362 55.1643 24.4947 55.2359 24.3103C55.318 24.1036 55.3672 23.9575 55.3859 23.8717C55.4402 23.6108 55.468 23.2853 55.468 22.8943V22.8943ZM49.6303 22.9594C49.5761 22.1342 49.6449 21.5922 49.8343 21.3318C50.0158 21.8103 50.309 22.6509 50.7173 23.8542C51.1414 24.8857 51.6345 25.542 52.1964 25.8236C52.8208 26.1381 53.3366 25.8505 53.7435 24.9622C54.2776 23.7891 54.6661 23.1327 54.9111 22.9928L55.9967 20.3873C55.9146 20.7784 55.8694 21.2886 55.8603 21.9181C55.8524 22.6876 55.8338 23.1929 55.8073 23.4314C55.7981 23.4965 55.7476 23.7415 55.6573 24.1642C55.5847 24.4678 55.5715 24.7282 55.6163 24.9447C55.6987 25.2816 56.1599 25.6612 57.0015 26.084C57.6974 26.4213 57.956 26.9743 57.7745 27.745C57.5661 27.7882 57.3503 27.7182 57.1236 27.5338C56.8162 27.2828 56.6211 27.1428 56.5389 27.1094C56.3309 27.0346 56.0103 27.0171 55.5752 27.0618C55.0689 27.1045 54.7388 27.1159 54.585 27.0936C54.6393 27.0394 54.7164 26.9361 54.8158 26.7835C54.906 26.6435 54.9787 26.545 55.0333 26.4909C54.454 26.6216 53.7937 27.0618 53.0516 27.8105C52.6352 28.2333 52.0559 28.8514 51.3138 29.6652C51.2951 29.5033 51.3229 29.2249 51.3959 28.8355C51.458 28.4876 51.4675 28.2109 51.4224 28.0042C51.2951 27.9835 51.0963 27.9774 50.8245 27.9883C50.5713 27.9994 50.3725 27.9883 50.2279 27.9566C50.2187 27.6197 50.3725 27.4081 50.6894 27.3206C50.2731 27.3971 49.9788 27.3589 49.8065 27.2079C49.6171 27.0236 49.6222 26.72 49.821 26.2956C49.5852 26.6216 49.328 27.0663 49.047 27.6307C48.8933 27.9566 48.6666 28.4335 48.3683 29.063C48.387 28.7704 48.3643 28.1568 48.3008 27.2238L48.3273 26.5406C48.4267 26.388 48.6083 26.2956 48.8706 26.2639C49.0511 26.2305 49.1967 26.1174 49.3056 25.9221C49.4407 25.7044 49.5587 25.5693 49.6582 25.5152C49.8292 25.4167 50.0915 25.4993 50.4454 25.7585C50.7702 25.9969 51.0193 26.0189 51.1916 25.8236L50.8391 25.4993C50.6402 25.3691 50.4946 25.2592 50.4044 25.1734C50.2863 25.0541 50.1831 24.9016 50.0915 24.7172C50.0837 24.7172 50.0518 24.5821 49.9975 24.3103C49.853 24.2342 49.7389 24.3152 49.6582 24.5553C49.613 24.6855 49.5492 24.8857 49.4671 25.1559C49.3599 25.3736 49.2007 25.5152 48.9927 25.5803C48.7939 25.6552 48.5896 25.6503 48.3816 25.5628V25.3691C48.4637 25.0859 48.5991 24.9174 48.7884 24.8633C49.0603 24.7872 49.2459 24.6904 49.3453 24.5711C49.5811 24.2993 49.6765 23.7618 49.6303 22.9594V22.9594Z" fill="#9D9B92"/>
<path fill-rule="evenodd" clip-rule="evenodd" d="M43.1245 10.0655C43.0889 9.97805 42.943 9.8096 42.6898 9.56017C42.5731 9.42955 42.5812 9.21347 42.7176 8.90991C42.7987 8.73495 43.0159 8.53964 43.3685 8.32357C43.7132 8.11687 43.9158 7.91016 43.9796 7.70507L44.8891 6.63043C45.0971 7.0756 45.0838 7.56346 44.848 8.0961C44.5311 8.81145 44.3682 9.26759 44.36 9.46291C44.3322 9.84296 44.4503 10.2116 44.7126 10.5693C44.8663 10.776 45.1011 11.0462 45.4177 11.3831C44.885 12.6087 44.1785 13.4779 43.301 13.9865C43.436 13.7594 43.6216 13.4827 43.8578 13.1568C44.002 12.8647 44.0339 12.5115 43.9532 12.1001C43.8072 12.1001 43.659 12.1859 43.5052 12.3589C43.3234 12.5989 43.1883 12.7658 43.0967 12.8647C43.061 12.647 43.1021 12.192 43.2202 11.4974C43.3196 10.9111 43.2877 10.4342 43.1245 10.0655V10.0655ZM43.3963 8.89243C43.2148 8.96852 43.0478 9.01816 42.8941 9.03851C42.9749 9.10361 43.0889 9.18662 43.2334 9.28346C43.3502 9.38031 43.4414 9.50604 43.5052 9.65863C43.5317 9.73309 43.5595 9.85884 43.586 10.0322C43.6138 10.1941 43.6444 10.315 43.6813 10.3898C43.6987 10.3243 43.7078 10.2214 43.7078 10.0814C43.7078 9.9512 43.7133 9.84785 43.7211 9.77135C43.7397 9.6745 43.8127 9.44542 43.9386 9.08775C44.0288 8.83831 44.075 8.59376 44.075 8.35532L43.8843 8.68084C43.6668 8.77971 43.5052 8.8493 43.3963 8.89243V8.89243Z" fill="#9D9B92"/>
<path fill-rule="evenodd" clip-rule="evenodd" d="M41.7073 30.6067C41.7994 30.7256 41.9759 30.9037 42.2338 31.1431C42.4536 31.3429 42.6161 31.5294 42.7227 31.7008C42.8729 31.9429 43.0928 32.1587 43.3835 32.3504C43.2284 32.4462 43.0471 32.4046 42.8388 32.2258C42.6017 32.0266 42.4386 31.9348 42.3492 31.9466C42.134 31.9861 42.0167 32.1919 41.9964 32.5659C41.9827 32.7212 41.9958 33.0089 42.0344 33.4291C42.0581 33.688 42.1561 34.0558 42.3283 34.5365C42.5071 35.0042 42.5992 35.3678 42.6057 35.6289C42.6145 35.8247 42.5699 35.9935 42.4752 36.137C42.3217 36.3542 42.2294 36.4974 42.1999 36.5668C42.0957 36.811 41.982 37.2722 41.8631 37.9548C41.6521 38.7358 41.5797 39.4266 41.6443 40.0305C41.6661 40.2675 41.6896 40.6242 41.7147 41.1019C41.7452 41.5347 41.7924 41.8883 41.8536 42.1647C41.8997 42.376 41.9927 42.7346 42.13 43.2413C42.2165 43.6888 42.2093 44.0495 42.1066 44.3251C42.079 44.4151 41.9344 44.5832 41.6738 44.8235C41.3899 45.1009 41.2087 45.3058 41.1298 45.4361L41.1149 45.1278C41.0677 44.5102 41.0648 42.6942 41.1066 39.6762C41.1564 36.6456 41.1589 34.9038 41.1173 34.4504C41.0672 33.8012 41.0847 32.2065 41.1699 29.6621C41.3959 30.1345 41.5741 30.4499 41.7073 30.6067H41.7073Z" fill="#84837A"/>
<path fill-rule="evenodd" clip-rule="evenodd" d="M64.5997 27.1393C64.7721 27.1617 65.0425 27.1552 65.4137 27.1235L65.0612 27.7753C64.5997 27.7753 64.3465 27.7688 64.3014 27.7578C63.994 27.7037 63.8575 27.5304 63.8932 27.2378C63.9305 26.9884 64.0167 26.8899 64.1517 26.944C64.242 26.966 64.3917 27.0315 64.5997 27.1393V27.1393Z" fill="#84837A"/>
<path fill-rule="evenodd" clip-rule="evenodd" d="M60.1831 24.4263C60.1644 24.307 60.1776 24.2086 60.2228 24.1341C60.2679 24.0466 60.3408 24.0084 60.4403 24.0194L60.6296 24.3453C60.4308 24.4421 60.2825 24.4694 60.1831 24.4263Z" fill="#84837A"/>
<path fill-rule="evenodd" clip-rule="evenodd" d="M61.2004 36.6955C61.5716 36.6081 61.6948 36.853 61.5675 37.4284C61.4403 37.9814 61.1926 38.1388 60.8213 37.9004C60.6849 37.8019 60.6225 37.6013 60.6306 37.2978C60.6306 36.9832 60.73 36.8209 60.9303 36.8099L61.2004 36.6955Z" fill="#84827A"/>
<path fill-rule="evenodd" clip-rule="evenodd" d="M48.3791 45.585C48.3153 45.4231 48.2518 45.277 48.188 45.1464C48.2427 45.1578 48.3431 45.1846 48.4877 45.2273C48.6136 45.2705 48.713 45.2929 48.786 45.2929C48.7767 45.032 48.8402 44.7826 48.9756 44.5441L49.2607 44.1372L49.1796 44.4469L49.1663 44.5441C49.1294 44.8269 49.0975 45.1578 49.071 45.5374C49.0354 45.8076 49.0842 46.0477 49.2206 46.2528C49.356 46.4595 49.5417 46.5848 49.7761 46.6279C49.8491 46.8664 49.7086 47.1475 49.356 47.4735C48.9492 47.8421 48.7317 48.0981 48.7052 48.2397C48.6414 48.5432 48.7357 48.7752 48.9902 48.9391C49.1891 49.058 49.4422 49.1186 49.7497 49.1186C49.7948 49.2806 49.881 49.5349 50.0083 49.8832L49.9622 50.9631L47.7944 49.5572C47.9312 49.3839 47.976 49.036 47.9312 48.516C48.1113 48.3955 48.2199 48.1949 48.2573 47.9137C48.2837 47.7184 48.2518 47.5719 48.1616 47.4735C48.0265 47.3652 47.9125 47.2684 47.8222 47.1809C48.0119 47.1475 48.2427 47.1158 48.5141 47.0841C48.6865 47.019 48.7768 46.8171 48.786 46.4814C48.8124 46.3069 48.8219 46.2051 48.8124 46.1718C48.8124 46.1604 48.7503 46.0843 48.6231 45.9443C48.5141 45.8251 48.4334 45.7059 48.3791 45.585V45.585Z" fill="#84827A"/>
<path fill-rule="evenodd" clip-rule="evenodd" d="M49.4634 6.51698C49.5085 6.27691 49.5312 5.97335 49.5312 5.60428L49.6266 5.93022C49.6266 6.26714 49.6079 6.53285 49.5723 6.72817C49.5363 6.90151 49.4542 7.13507 49.3283 7.42763C49.2011 7.63435 49.124 7.79629 49.0962 7.91552C49.0884 8.02375 49.1149 8.16048 49.1783 8.32242C49.2513 8.50676 49.2818 8.65487 49.274 8.7627C49.2553 8.91367 49.2275 9.05527 49.1919 9.18548C49.1281 9.41295 49.0341 9.60826 48.9068 9.77224C48.7715 9.94517 48.6269 10.0424 48.4718 10.0644C48.0198 10.1299 47.6448 10.0961 47.3452 9.96592C47.2193 9.9118 47.1372 9.84182 47.1012 9.75473C47.2458 9.73399 47.5084 9.72748 47.8888 9.73887C48.2333 9.71811 48.4718 9.60825 48.6086 9.41294L48.6496 9.33196C48.7026 9.23471 48.7304 9.15212 48.7304 9.08864C48.7477 8.93605 48.6537 8.80095 48.4453 8.68174C48.2187 8.55153 48.1009 8.43676 48.0928 8.33829C48.1644 8.27481 48.2825 8.21419 48.4453 8.16048C48.6086 8.10636 48.7304 8.04126 48.8111 7.96475C48.9028 7.87727 49.0195 7.67219 49.1651 7.34666C49.3096 7.04311 49.4091 6.76641 49.4634 6.51698V6.51698Z" fill="#84827A"/>
<path fill-rule="evenodd" clip-rule="evenodd" d="M52.2626 14.3536C52.3433 14.1136 52.4573 14.0326 52.6019 14.1087C52.6562 14.3805 52.6881 14.5156 52.6959 14.5156C52.7875 14.6999 52.8907 14.8525 53.0088 14.9717C53.099 15.0576 53.2446 15.1675 53.4435 15.2977L53.796 15.622C53.6236 15.8173 53.3746 15.7965 53.0498 15.5569C52.6959 15.2977 52.4336 15.2151 52.2626 15.3135C52.1631 15.3676 52.045 15.5027 51.91 15.7204C51.8011 15.9158 51.6555 16.0289 51.475 16.0622C51.2126 16.094 51.0311 16.1863 50.9317 16.3389L50.986 15.3611C51.194 15.4486 51.3983 15.4535 51.5971 15.3786C51.8051 15.3135 51.9643 15.1719 52.0715 14.9542C52.1536 14.684 52.2174 14.4838 52.2626 14.3536V14.3536Z" fill="#84827A"/>
<path fill-rule="evenodd" clip-rule="evenodd" d="M46.0379 16.727L46.5812 16.6122C46.5999 16.6997 46.6226 16.8238 46.6491 16.9874C46.6769 17.1274 46.6769 17.2531 46.6491 17.3609C46.4224 17.3943 46.1916 17.3943 45.9571 17.3609C45.912 17.0033 45.9385 16.7921 46.0379 16.727V16.727Z" fill="#63625B"/>
<path fill-rule="evenodd" clip-rule="evenodd" d="M62.1977 33.9905L62.252 33.9588V33.9096C62.2256 33.7793 62.1526 33.687 62.0345 33.6329L61.7627 33.4693C61.7362 33.4485 61.6687 33.361 61.5601 33.2085C61.478 33.0892 61.3969 33.0192 61.3148 32.9973C61.2075 32.9765 61.1159 33.0033 61.0443 33.0799C60.9531 33.1767 60.876 33.2357 60.8139 33.2577H60.7993C60.7182 33.2801 60.5421 33.2736 60.2703 33.2418C59.7097 33.2085 59.3015 32.8732 59.048 32.2327C58.8322 31.3965 58.6639 30.7784 58.5471 30.3776C58.5098 30.236 58.4518 30.074 58.3693 29.8897L58.0992 26.4054L58.0846 31.565C58.3205 31.8685 58.4782 32.1021 58.5604 32.2661C58.6506 32.4597 58.6863 32.6823 58.669 32.9318C58.7141 33.0526 58.7725 33.2085 58.8454 33.4042C58.8997 33.4485 58.9448 33.4644 58.9805 33.4534C59.0164 33.431 59.0534 33.431 59.0894 33.4534C59.2336 33.4868 59.333 33.5136 59.3873 33.5344C59.4338 33.5568 59.4922 33.6105 59.5652 33.698C59.6368 33.7952 59.691 33.8554 59.7267 33.8762L59.8634 33.9413L60.1352 34.0064H60.3657C60.4651 34.0064 60.6548 34.0223 60.9357 34.0556C61.2245 34.0764 61.442 34.0874 61.5866 34.0874H61.6541C61.9178 34.067 62.0983 34.0337 62.1977 33.9905V33.9905Z" fill="#63625B"/>
<path fill-rule="evenodd" clip-rule="evenodd" d="M64.306 52.9208C64.4146 53.1051 64.5551 53.1926 64.7261 53.1812C64.8798 53.1812 65.1065 53.051 65.4048 52.7902C65.6671 52.5631 65.8622 52.3454 65.9895 52.1404C65.9895 52.2482 65.98 52.4439 65.9616 52.7251C65.9616 52.9859 65.9973 53.1654 66.0702 53.2622C66.2691 53.534 66.4995 53.5662 66.7621 53.3611C66.998 53.1861 67.1384 52.9586 67.1836 52.6775C67.3468 51.7652 67.3638 51.174 67.2379 50.9021C67.1069 50.6303 66.6267 50.5363 65.7984 50.6173C65.8435 50.6063 65.8792 50.5872 65.907 50.5603C65.9973 50.5062 66.098 50.3821 66.2053 50.1868C66.3061 50.0135 66.3777 49.8499 66.4228 49.6989C66.5409 49.3954 66.5952 48.9596 66.5857 48.3952C66.5592 47.7563 66.5409 47.3002 66.5314 47.0284L66.6535 47.6961C66.7078 47.9789 66.7581 48.195 66.8032 48.3476C67.0112 49.0963 67.3095 49.4491 67.6994 49.4047C67.6807 49.7958 67.7177 50.2454 67.808 50.7557C67.8796 50.7239 67.9393 50.6637 67.9841 50.5778C68.0387 50.4904 68.0703 50.387 68.0798 50.2678C68.0703 50.1152 68.0652 49.996 68.0652 49.9101C68.0652 49.7685 68.093 49.5891 68.1473 49.373C68.337 48.9278 68.4642 48.575 68.5263 48.3142C68.5993 48.033 68.6349 47.6737 68.6349 47.24C68.618 46.7297 68.6085 46.3562 68.6085 46.1177C68.6444 44.9353 68.6536 44.0498 68.6349 43.4647C68.6349 43.1168 68.6271 42.856 68.6085 42.6826C68.5993 42.5524 68.5769 42.384 68.5409 42.1789C68.4775 41.8961 68.4415 41.7227 68.4324 41.6576L68.4045 41.4778C68.3872 41.2283 68.4228 41.0058 68.5131 40.8121C68.5952 40.6481 68.753 40.4145 68.9889 40.111C69.1334 39.8839 69.2104 39.7533 69.2196 39.7199C69.4371 39.2862 69.5817 38.8695 69.6529 38.4675C69.5444 39.7692 69.3733 41.7992 69.1375 44.5552C68.9743 46.8233 68.9519 48.4717 69.07 49.5032C68.9889 50.4472 68.9573 51.2008 68.9743 51.7652C69.0021 52.4708 69.111 53.132 69.3004 53.7505C69.3733 53.9889 69.4371 54.1684 69.4914 54.2876C69.4541 54.2445 69.2237 54.2127 68.7982 54.1908C68.3818 54.1684 68.1565 54.1301 68.1195 54.076C68.1114 54.2286 68.1062 54.4512 68.1062 54.7437C67.9617 54.6469 67.8436 54.4337 67.7537 54.1094C67.6807 53.7505 67.6223 53.5007 67.5772 53.3611C67.5772 53.4038 67.6037 53.6581 67.6583 54.1257C67.6939 54.4512 67.6807 54.7055 67.6169 54.8898C67.4632 54.9122 67.36 54.8296 67.3054 54.6469C67.3149 54.7214 67.3054 54.863 67.2776 55.0697C67.0244 55.254 66.7129 55.0807 66.342 54.5484C66.2426 54.5912 66.1696 54.7214 66.1245 54.9395C66.1058 55.0583 66.0889 55.2316 66.0702 55.4607C65.9895 55.3509 65.9348 55.1124 65.907 54.7437C65.8887 54.4402 65.8887 54.1794 65.907 53.9617C65.8622 54.1143 65.7852 54.4512 65.6766 54.9712C65.5493 55.4383 65.3783 55.6768 65.1608 55.6878C65.1252 55.5799 65.0933 55.4225 65.0654 55.2158C65.039 54.9981 65.0111 54.8406 64.9847 54.7437C64.9568 54.9395 64.8706 55.1397 64.7261 55.3464C64.5629 55.5625 64.4054 55.6927 64.2514 55.737C64.3959 55.6609 64.4543 55.4815 64.4278 55.1999C64.4092 54.9395 64.3471 54.7438 64.2381 54.6135C64.2381 54.7755 64.1879 54.9505 64.0885 55.1348L64.306 52.9208Z" fill="#63625B"/>
<path fill-rule="evenodd" clip-rule="evenodd" d="M69.7254 11.2785C69.7522 11.0624 69.8116 10.8114 69.9018 10.5302C70.0104 10.2043 70.0875 9.96094 70.1326 9.79737L70.1458 9.76564C70.2279 14.2575 70.2676 17.0183 70.2676 18.0498C70.2676 18.7221 70.2093 19.8732 70.0915 21.5008C69.9561 21.4785 69.8608 21.4243 69.8065 21.3368C69.744 21.229 69.7121 21.0443 69.7121 20.7839C69.7121 20.5137 69.7349 20.0258 69.78 19.3198C69.8248 18.6903 69.8343 18.1959 69.8065 17.8387C69.7892 17.5888 69.744 17.1868 69.6711 16.6338C69.6076 16.1122 69.5666 15.7118 69.5493 15.429C69.4855 14.181 69.5438 12.7983 69.7254 11.2785V11.2785Z" fill="#63625B"/>
<path fill-rule="evenodd" clip-rule="evenodd" d="M58.5789 54.9189L58.3074 55.1956C58.1985 55.3149 58.1123 55.4182 58.0502 55.5057L58.0224 53.7967L58.0356 53.8284C58.0818 53.97 58.172 54.1544 58.3074 54.3818C58.4517 54.6105 58.5433 54.7887 58.5789 54.9189Z" fill="#63625B"/>
<path fill-rule="evenodd" clip-rule="evenodd" d="M55.7338 3.36458C55.9223 3.59723 56.2181 3.99461 56.6209 4.55388C56.9929 5.0289 57.334 5.35653 57.6459 5.53839C57.7221 5.58691 57.862 5.64979 58.0652 5.73019C58.2564 5.81094 58.4 5.88539 58.4946 5.95669C58.6025 6.0285 58.7353 6.13759 58.8938 6.28539C59.0267 6.38757 59.1759 6.43276 59.343 6.42015C59.497 6.40701 59.6927 6.3385 59.9316 6.21117C59.9673 6.41294 59.9621 6.62321 59.9143 6.8451C59.8605 7.10458 59.774 7.29441 59.658 7.41583C59.7448 7.60065 59.9233 7.72747 60.1905 7.7929C60.4051 7.86399 60.6142 7.87974 60.8134 7.83833C60.7241 7.86296 60.5957 7.93697 60.4272 8.06237C60.2533 8.18939 60.0978 8.24853 59.9638 8.23842C59.6452 8.23279 59.3523 8.04471 59.0876 7.67002C59.1069 7.72531 59.1112 7.82466 59.1039 7.97042C58.6951 7.9014 58.2981 7.63028 57.913 7.15479C57.5104 6.6577 57.2896 6.37645 57.252 6.31363C56.9954 5.90339 56.9283 5.56525 57.0525 5.29867L55.7338 3.36458Z" fill="#52514B"/>
<path fill-rule="evenodd" clip-rule="evenodd" d="M60.8212 44.6771C60.866 44.9281 60.8026 45.0954 60.6302 45.1824C60.4673 45.2699 60.3041 45.2748 60.1425 45.1983C60.1782 45.0474 60.1822 44.8903 60.1558 44.7263L60.128 44.6453C60.2365 44.5151 60.2325 44.38 60.1147 44.2384L60.2776 43.8633C60.5677 44.0492 60.7483 44.3194 60.8212 44.6771V44.6771Z" fill="#77766F"/>
<path d="M70.0787 31.0157C69.1976 31.8543 68.4966 33.8919 67.9062 35.295C67.6912 36.5087 67.5063 37.0568 67.071 37.7397" stroke="#333333" stroke-width="3.42281"/>
<path d="M55.292 42.6794C55.3553 43.837 55.9027 44.5753 56.3782 45.2773C56.5772 45.4588 57.7457 47.0037 57.7991 46.8048C57.2447 51.4558 56.0719 50.0208 55.2088 51.2397" stroke="#333333" stroke-width="3.42281"/>
<path d="M41.1969 13.7219C41.2971 14.4204 42.6585 17.3321 43.0352 19.0714" stroke="#333333" stroke-width="3.42281"/>
<path d="M50.7176 1.41922C50.9492 2.26643 51.8218 2.82662 52.3054 3.71099C52.6769 4.39049 53.3491 4.09137 53.6426 4.62822" stroke="#333333" stroke-width="3.42281"/>
<path fill-rule="evenodd" clip-rule="evenodd" d="M59.3893 11.6112L59.9326 11.4964C59.9513 11.5839 59.974 11.708 60.0005 11.8716C60.0283 12.0116 60.0283 12.1373 60.0005 12.2451C59.7738 12.2785 59.543 12.2785 59.3086 12.2451C59.2634 11.8875 59.2899 11.6763 59.3893 11.6112Z" fill="#63625B"/>
<path fill-rule="evenodd" clip-rule="evenodd" d="M49.1379 36.1965L49.6811 36.0818C49.6998 36.1692 49.7225 36.2934 49.749 36.4569C49.7768 36.5969 49.7768 36.7226 49.749 36.8305C49.5223 36.8638 49.2916 36.8638 49.0571 36.8305C49.012 36.4728 49.0384 36.2616 49.1379 36.1965V36.1965Z" fill="#63625B"/>
<path d="M73.7387 54.4537L73.1181 65.5118" stroke="black" stroke-width="1.64803"/>
<path d="M78.6155 59.983L52.1033 61.7905L53.9653 52.7526L76.5761 51.0514L78.8815 60.0893" fill="#C24300"/>
<path d="M78.6155 59.983L52.1033 61.7905L53.9653 52.7526L76.5761 51.0514L78.8815 60.0893" stroke="black" stroke-width="1.64803"/>
<path d="M52.192 61.6841L78.7929 59.8766L78.2609 66.0435L54.32 67.532L52.192 61.6841Z" fill="#C24300" stroke="black" stroke-width="1.64803"/>
<path d="M72.8077 54.2411C71.559 54.2411 70.5467 54.9076 70.5467 55.7297C70.5467 56.5518 71.559 57.2182 72.8077 57.2182C74.0565 57.2182 75.0688 56.5518 75.0688 55.7297C75.0688 54.9076 74.0565 54.2411 72.8077 54.2411Z" fill="#800000" stroke="black" stroke-width="1.64803"/>
<path d="M65.4923 54.7727C64.317 54.7727 63.3643 55.5106 63.3643 56.4208C63.3643 57.331 64.317 58.0688 65.4923 58.0688C66.6676 58.0688 67.6204 57.331 67.6204 56.4208C67.6204 55.5106 66.6676 54.7727 65.4923 54.7727Z" fill="#800000" stroke="black" stroke-width="1.64803"/>
<path d="M58.0885 55.3043C56.8397 55.3043 55.8274 56.0184 55.8274 56.8992C55.8274 57.78 56.8397 58.4941 58.0885 58.4941C59.3372 58.4941 60.3495 57.78 60.3495 56.8992C60.3495 56.0184 59.3372 55.3043 58.0885 55.3043Z" fill="#800000" stroke="black" stroke-width="1.64803"/>
<path d="M64.1623 55.0917L65.1376 58.0691" stroke="black" stroke-width="1.64803"/>
<path d="M56.6254 55.836L57.8668 58.6007" stroke="black" stroke-width="1.64803"/>
<path d="M73.7387 54.4537L73.4727 57.2185" stroke="black" stroke-width="1.64803"/>
<path d="M56.2812 44.4194L52.9317 48.681L34.0199 50.1717L37.6714 46.3896L56.2845 44.419" fill="#F79E5C"/>
<path d="M56.2812 44.4194L52.9317 48.681L34.0199 50.1717L37.6714 46.3896L56.2845 44.419" stroke="black" stroke-width="1.74389"/>
<path d="M55.2503 60.7872L53.2672 48.9523L34.0954 50.5023L35.8313 60.7135L55.2503 60.7872Z" fill="#BE7145" stroke="black" stroke-width="1.74389"/>
<path d="M56.4576 44.6848L52.9059 49.2458L54.974 61.387L58.4282 56.2292L56.4574 44.6844" fill="#FEB26F"/>
<path d="M56.4576 44.6848L52.9059 49.2458L54.974 61.387L58.4282 56.2292L56.4574 44.6844" stroke="black" stroke-width="1.74389"/>
<path d="M56.1839 45.5637L54.9365 47.1635L55.809 52.3395L57.0674 50.618L56.1839 45.5637Z" fill="#552200" stroke="black" stroke-width="1.74389"/>
<path d="M54.7724 47.5808L55.6337 52.6535L54.2429 54.5613L53.3533 49.3449L54.7724 47.5808Z" fill="#552200" stroke="black" stroke-width="1.74389"/>
<path d="M57.2695 51.2649L56.0224 53.0228L56.8406 57.7475L58.0952 55.96L57.2695 51.2649Z" fill="#552200" stroke="black" stroke-width="1.74389"/>
<path d="M55.8568 53.3803L54.4857 55.2697L55.313 60.2277L56.6832 58.2143L55.8568 53.3803Z" fill="#552200" stroke="black" stroke-width="1.74389"/>
<path d="M58.1227 55.9921L56.6114 56.0519L56.901 57.799L58.1227 55.9921Z" fill="#BE7145" stroke="black" stroke-width="1.74389"/>
<path d="M56.6925 58.2519L55.0682 58.3251L55.3697 60.2488L56.6925 58.2519Z" fill="#BE7145" stroke="black" stroke-width="1.74389"/>
<path d="M57.0792 50.6567L55.6169 50.7574L55.8772 52.3557L57.0792 50.6567Z" fill="#BE7145" stroke="black" stroke-width="1.74389"/>
<path d="M55.644 52.6935L54.0105 52.7688L54.3085 54.5659L55.644 52.6935Z" fill="#BE7145" stroke="black" stroke-width="1.74389"/>
<g opacity="0.76744">
<path opacity="0.45736" d="M53.2178 49.7722L34.2775 51.4744L34.4106 52.1172L53.3504 50.5724L53.2178 49.7722Z" fill="#FEB26F" stroke="black" stroke-width="1.90577"/>
<path opacity="0.45736" d="M53.5507 51.542L34.6013 52.9648L34.6708 53.5313L53.6838 52.3454L53.5507 51.542Z" fill="#FEB26F" stroke="black" stroke-width="1.90577"/>
<path opacity="0.45736" d="M53.8837 53.3202L34.8699 54.5581L34.9993 55.3391L54.017 54.1255L53.8837 53.3202Z" fill="#FEB26F" stroke="black" stroke-width="1.90577"/>
<path opacity="0.45736" d="M54.2165 55.0959L35.1565 56.1172L35.2738 56.827L54.3499 55.9037L54.2165 55.0959Z" fill="#FEB26F" stroke="black" stroke-width="1.90577"/>
<path opacity="0.45736" d="M54.5493 56.8791L35.4876 57.7726L35.5223 58.4302L54.6823 57.6882L54.5493 56.8791Z" fill="#FEB26F" stroke="black" stroke-width="1.90577"/>
<path opacity="0.45736" d="M54.8824 58.6636L35.7889 59.4115L35.9022 60.0992L55.0159 59.4741L54.8824 58.6636Z" fill="#FEB26F" stroke="black" stroke-width="1.90577"/>
</g>
<path d="M49.5516 60.1851V66.2443L40.7997 72.3035V66.2443L49.5516 60.1851Z" fill="#B7592C" stroke="black" stroke-width="5.30098" stroke-linecap="round" stroke-linejoin="round"/>
<path d="M40.7997 72.3055L23.2959 60.1875V54.1283L40.7997 66.2463V72.3055Z" fill="#6E2F0C" stroke="black" stroke-width="5.30098" stroke-linecap="round" stroke-linejoin="round"/>
<path d="M49.5516 60.1851L40.7997 66.2443L23.2959 54.1262L32.0478 48.067L49.5516 60.1851Z" fill="#C45632" stroke="black" stroke-width="5.30098" stroke-linecap="round" stroke-linejoin="round"/>
<path d="M10.3439 59.3457C10.3248 59.2981 10.3019 59.2513 10.2755 59.2051C10.2651 59.1872 10.2561 59.169 10.2447 59.1514C10.2353 59.1369 10.225 59.1227 10.2151 59.1086C10.1949 59.0799 10.1732 59.0519 10.1501 59.024C10.1384 59.0102 10.127 58.9962 10.1146 58.9825C10.0989 58.9653 10.0812 58.9488 10.0644 58.932C10.0269 58.8945 9.98644 58.8579 9.94309 58.8228C9.92545 58.8084 9.90805 58.794 9.88933 58.7802C9.83391 58.7387 9.77466 58.699 9.71075 58.662C9.70151 58.6565 9.69361 58.6505 9.68412 58.6453L9.27446 58.4162L9.27487 46.3462L9.68454 46.5753C9.68753 46.5769 9.69053 46.5786 9.69344 46.5803C9.70068 46.5844 9.70617 46.5893 9.71325 46.5934C9.77616 46.63 9.83457 46.6689 9.88925 46.7098C9.90814 46.724 9.92586 46.7386 9.94384 46.7533C9.98719 46.7885 10.0275 46.8248 10.065 46.8624C10.0742 46.8718 10.086 46.88 10.095 46.8895C10.102 46.8969 10.1077 46.9048 10.1145 46.9123C10.1271 46.9263 10.1388 46.9405 10.1508 46.9546C10.1737 46.9822 10.1952 47.0102 10.2154 47.0386C10.2253 47.0528 10.2354 47.0669 10.2448 47.0812C10.2499 47.089 10.256 47.0965 10.2609 47.1045C10.267 47.1146 10.2701 47.1253 10.276 47.1355C10.3023 47.1812 10.325 47.2277 10.344 47.2751C10.3506 47.2915 10.3578 47.3076 10.3635 47.3239C10.3847 47.385 10.4013 47.4466 10.4106 47.5089C10.4108 47.5106 10.4116 47.5122 10.4118 47.5138C10.4186 47.5603 10.4219 47.6071 10.4219 47.6539L10.4215 59.7238C10.4215 59.6756 10.4173 59.6274 10.4103 59.5795C10.401 59.5169 10.3842 59.4548 10.3631 59.3936C10.3556 59.3807 10.3489 59.3647 10.3423 59.3487L10.3439 59.3457Z" fill="url(#paint1_linear_14_9)" stroke="black" stroke-width="1.54666"/>
<path d="M14.3424 61.2795C14.2685 61.2519 14.1932 61.227 14.1162 61.2065C14.1029 61.2031 14.0892 61.2005 14.0758 61.1972C14.0103 61.181 13.9441 61.1674 13.8772 61.1566C13.8575 61.1533 13.8379 61.15 13.8182 61.1472C13.7347 61.1354 13.6507 61.1267 13.5665 61.1228C13.5577 61.1223 13.5488 61.1227 13.5399 61.1223C13.4352 61.1184 13.3304 61.1199 13.2265 61.128C13.2221 61.1282 13.2177 61.1282 13.2135 61.1286C13.1822 61.1311 13.1514 61.1356 13.1204 61.1393C13.0902 61.1429 13.0598 61.1456 13.0298 61.15C12.995 61.1553 12.9609 61.1626 12.9264 61.1692C12.9009 61.1742 12.875 61.1781 12.8497 61.1837C12.8131 61.192 12.7773 61.2024 12.7412 61.212C12.7189 61.2181 12.696 61.2231 12.6739 61.2298C12.6374 61.2409 12.6021 61.2541 12.5664 61.2668C12.5458 61.2741 12.5245 61.2803 12.5042 61.2882C12.4695 61.3015 12.4363 61.3172 12.4027 61.3323C12.3826 61.3412 12.3617 61.3491 12.3421 61.3587C12.3083 61.3752 12.2761 61.3936 12.2434 61.4116C12.2255 61.4216 12.2066 61.4306 12.1889 61.441C12.1566 61.4604 12.126 61.482 12.0952 61.503C12.079 61.514 12.0619 61.5238 12.0461 61.5353C12.0005 61.5687 11.9567 61.604 11.9152 61.6413L11.9157 49.5714C11.9572 49.5342 12.0009 49.4988 12.0466 49.4655C12.0639 49.4528 12.0828 49.4419 12.1005 49.4299C12.1299 49.41 12.1586 49.3896 12.1893 49.3712C12.2112 49.3582 12.2346 49.3469 12.2572 49.3347C12.2854 49.3192 12.313 49.3031 12.3422 49.289C12.3676 49.2765 12.3944 49.2661 12.4204 49.2548C12.4483 49.2426 12.4755 49.2296 12.5042 49.2184C12.531 49.208 12.559 49.1996 12.5864 49.1901C12.6154 49.18 12.644 49.1691 12.6737 49.1601C12.7023 49.1515 12.7318 49.1447 12.761 49.1371C12.7904 49.1294 12.8195 49.1208 12.8493 49.114C12.8798 49.1072 12.9108 49.1023 12.9416 49.0966C12.9711 49.0911 13.0002 49.0846 13.0299 49.0801C13.0607 49.0756 13.0918 49.0729 13.1229 49.0692C13.1533 49.0656 13.1834 49.0611 13.214 49.0587C13.2153 49.0586 13.2166 49.0583 13.2181 49.0582C13.2211 49.058 13.224 49.0582 13.2268 49.0581C13.3297 49.05 13.4335 49.0486 13.5371 49.0522C13.5442 49.0524 13.5513 49.0516 13.5584 49.0518C13.5618 49.0519 13.565 49.0527 13.5684 49.0528C13.6516 49.0567 13.7343 49.0653 13.8165 49.077C13.8258 49.0781 13.8351 49.0781 13.8443 49.0796C13.8563 49.0814 13.8678 49.085 13.8797 49.0869C13.9457 49.0978 14.011 49.1112 14.0756 49.127C14.086 49.1295 14.0968 49.1308 14.1071 49.1334C14.1104 49.1343 14.1134 49.1356 14.1166 49.1365C14.1937 49.157 14.2689 49.1817 14.3428 49.2094C14.3503 49.2122 14.3583 49.2139 14.3658 49.2169C14.3752 49.2205 14.3837 49.2258 14.393 49.2296C14.4768 49.2634 14.5587 49.3003 14.6365 49.344L15.4574 49.8029C15.4604 49.8046 15.4634 49.8063 15.4663 49.808C15.4715 49.8109 15.4754 49.8145 15.4806 49.8175C15.5458 49.8552 15.6062 49.8955 15.6626 49.9377C15.6813 49.9516 15.6986 49.966 15.7163 49.9804C15.7598 50.0157 15.8002 50.0522 15.8378 50.09C15.8471 50.0993 15.8589 50.1076 15.8678 50.117C15.8749 50.1246 15.8807 50.1325 15.8875 50.14C15.9 50.1538 15.9117 50.1678 15.9234 50.1819C15.9465 50.2097 15.9682 50.2378 15.9884 50.2666C15.9983 50.2807 16.0083 50.2943 16.0175 50.3086C16.0226 50.3166 16.0289 50.3241 16.0337 50.332C16.04 50.3423 16.043 50.3531 16.0489 50.3634C16.0752 50.4091 16.0979 50.4555 16.1168 50.5027C16.1234 50.519 16.1306 50.5349 16.1362 50.5514C16.1575 50.6126 16.1742 50.6744 16.1834 50.7372C16.1836 50.7387 16.1843 50.74 16.1846 50.7414C16.1913 50.7879 16.1947 50.8347 16.1947 50.8815L16.1942 62.9514C16.1942 62.9031 16.1902 62.8548 16.183 62.8067C16.1738 62.7441 16.1571 62.6823 16.1359 62.6212C16.1302 62.6051 16.1231 62.5892 16.1168 62.5733C16.0975 62.5255 16.0744 62.4782 16.0478 62.432C16.0377 62.4144 16.0288 62.3967 16.0177 62.3795C16.0082 62.3648 15.9978 62.3504 15.9876 62.3359C15.9674 62.3073 15.9459 62.2791 15.9227 62.2514C15.9111 62.2376 15.8998 62.2239 15.8876 62.2104C15.8718 62.193 15.8539 62.1763 15.8368 62.1593C15.7997 62.122 15.7596 62.0859 15.7167 62.0509C15.6986 62.0363 15.6807 62.0215 15.6617 62.0072C15.6071 61.9664 15.5486 61.9275 15.4857 61.891C15.4758 61.8852 15.4671 61.8786 15.457 61.8728L14.6362 61.4138C14.5583 61.3702 14.4763 61.3334 14.3927 61.2995C14.3761 61.2956 14.3594 61.2876 14.3428 61.2816L14.3424 61.2795Z" fill="url(#paint2_linear_14_9)" stroke="black" stroke-width="1.54666"/>
<path d="M7.70686 53.3472V65.4165L11.915 61.6417L11.9159 49.572L7.70686 53.3472Z" fill="#212121" stroke="black" stroke-width="1.54666"/>
<path d="M20.115 64.5075C20.0412 64.4798 19.9659 64.455 19.8889 64.4346C19.8753 64.4311 19.8614 64.4285 19.8477 64.4251C19.7832 64.4091 19.7178 64.396 19.652 64.385C19.631 64.3814 19.6099 64.3779 19.5888 64.375C19.5065 64.3634 19.4237 64.3549 19.3404 64.3509C19.33 64.3504 19.3196 64.3507 19.3092 64.3503C19.2056 64.3466 19.1019 64.3481 18.999 64.3561C18.9948 64.3563 18.9904 64.3563 18.986 64.3567C18.9562 64.3591 18.9267 64.3635 18.897 64.367C18.8654 64.3707 18.8334 64.3734 18.802 64.3782C18.7731 64.3826 18.7448 64.3889 18.7162 64.3943C18.6846 64.4001 18.6526 64.405 18.6215 64.412C18.5918 64.4187 18.5631 64.4274 18.534 64.4349C18.5046 64.4427 18.4748 64.4494 18.446 64.4581C18.4155 64.4674 18.3861 64.4786 18.3563 64.489C18.3296 64.4982 18.3026 64.5065 18.2765 64.5166C18.2462 64.5283 18.2173 64.542 18.1878 64.5551C18.1634 64.5658 18.1382 64.5755 18.1144 64.5869C18.0807 64.6034 18.0485 64.622 18.0161 64.6399C17.9981 64.6499 17.9791 64.6588 17.9616 64.6693C17.9246 64.6914 17.8896 64.7157 17.8546 64.74C17.8429 64.7481 17.8302 64.7552 17.8187 64.7636C17.773 64.7969 17.7292 64.8323 17.6876 64.8696L17.688 52.7997C17.7297 52.7623 17.7735 52.727 17.8192 52.6935C17.8274 52.6876 17.8364 52.6826 17.8447 52.6768C17.8829 52.6498 17.9215 52.6234 17.9621 52.5992C17.9739 52.5924 17.9866 52.5865 17.9986 52.5797C18.0368 52.558 18.0751 52.5364 18.115 52.517C18.1325 52.5086 18.151 52.5016 18.1687 52.4937C18.2046 52.4774 18.2402 52.4609 18.2772 52.4466C18.2959 52.4393 18.3153 52.4337 18.3344 52.4268C18.3716 52.4134 18.4087 52.3998 18.4469 52.3882C18.4681 52.3818 18.4899 52.377 18.5115 52.3711C18.5482 52.3611 18.5849 52.3505 18.6225 52.342C18.6465 52.3366 18.6711 52.333 18.6954 52.3282C18.7313 52.3213 18.7668 52.3137 18.803 52.3082C18.8278 52.3045 18.8527 52.3024 18.8776 52.2994C18.9141 52.2949 18.9504 52.2898 18.9872 52.2867C18.9883 52.2866 18.9893 52.2865 18.9904 52.2864C18.9927 52.2863 18.995 52.2865 18.9973 52.2863C19.1015 52.2781 19.2066 52.2765 19.3116 52.2804C19.3181 52.2806 19.3245 52.2798 19.331 52.2801C19.334 52.2802 19.3369 52.2808 19.3399 52.2809C19.424 52.285 19.5075 52.2936 19.5906 52.3053C19.5993 52.3065 19.6081 52.3065 19.6169 52.3078C19.6282 52.3095 19.639 52.3128 19.6502 52.3146C19.7182 52.3257 19.7855 52.3395 19.852 52.356C19.8611 52.3583 19.8705 52.3593 19.8797 52.3617C19.8825 52.3624 19.8852 52.3637 19.888 52.3644C19.9659 52.3849 20.042 52.4101 20.1168 52.4381C20.1237 52.4408 20.1312 52.4423 20.1382 52.445C20.1471 52.4484 20.1552 52.4535 20.164 52.4571C20.2482 52.491 20.3307 52.5281 20.4091 52.5719L21.2314 53.0317C21.2343 53.0334 21.2374 53.0351 21.2402 53.0367C21.2467 53.0404 21.2517 53.0449 21.2581 53.0485C21.3218 53.0855 21.3806 53.1248 21.4359 53.166C21.4548 53.1802 21.4723 53.1947 21.4902 53.2091C21.533 53.244 21.5728 53.2798 21.6098 53.317C21.6194 53.3267 21.6317 53.3353 21.641 53.345C21.6484 53.3528 21.6544 53.3612 21.6616 53.3692C21.6735 53.3823 21.6845 53.3958 21.6958 53.4093C21.7193 53.4372 21.7412 53.4658 21.7617 53.4947C21.7715 53.5087 21.7815 53.5226 21.7906 53.5367C21.7957 53.5446 21.8018 53.552 21.8066 53.56C21.8127 53.5699 21.8158 53.5806 21.8217 53.5908C21.848 53.6367 21.8706 53.6832 21.8896 53.7305C21.8962 53.7469 21.9035 53.7628 21.9091 53.7794C21.9303 53.8402 21.9468 53.9015 21.9561 53.9637C21.9565 53.9656 21.9573 53.9673 21.9575 53.969C21.964 54.0156 21.9675 54.0624 21.9674 54.1092L21.967 66.1791C21.967 66.1307 21.963 66.0823 21.9557 66.0343C21.9465 65.972 21.9298 65.9104 21.9087 65.8494C21.903 65.8329 21.8957 65.8167 21.8891 65.8002C21.8702 65.7531 21.8475 65.7068 21.8215 65.6612C21.8111 65.643 21.8017 65.6245 21.79 65.6064C21.7811 65.5925 21.7712 65.5788 21.7615 65.565C21.7411 65.536 21.7192 65.5075 21.6958 65.4794C21.6844 65.4658 21.6731 65.4522 21.661 65.4388C21.6452 65.4211 21.627 65.4045 21.61 65.3873C21.573 65.3502 21.5331 65.3143 21.4905 65.2794C21.4724 65.2648 21.4544 65.25 21.4353 65.2356C21.3813 65.1954 21.3235 65.157 21.2615 65.1209C21.2511 65.1146 21.2421 65.1077 21.2313 65.1017L20.409 64.6419C20.3311 64.5983 20.2492 64.5613 20.1654 64.5276C20.148 64.5206 20.1313 64.5136 20.1147 64.5076L20.115 64.5075Z" fill="url(#paint3_linear_14_9)" stroke="black" stroke-width="1.54666"/>
<path d="M7.29074 54.1958L7.29033 66.2657C7.29033 65.9682 7.4263 65.6684 7.7064 65.4171L7.70682 53.3472C7.42722 53.5982 7.29158 53.898 7.29158 54.1954" fill="url(#paint4_linear_14_9)"/>
<path d="M7.29074 54.1958L7.29033 66.2657C7.29033 65.9682 7.4263 65.6684 7.7064 65.4171L7.70682 53.3472C7.42722 53.5982 7.29158 53.898 7.29158 54.1954" stroke="black" stroke-width="1.54666"/>
<path d="M13.4794 56.5757V68.6446L17.6876 64.8697L17.6884 52.7999L13.4794 56.5757Z" fill="#212121" stroke="black" stroke-width="1.54666"/>
<path d="M25.8876 67.7355C25.814 67.7079 25.7389 67.6834 25.6622 67.6628C25.6483 67.6591 25.6343 67.6565 25.6205 67.6531C25.5556 67.6371 25.49 67.6238 25.4237 67.6128C25.4034 67.6094 25.3831 67.6061 25.3627 67.6031C25.2797 67.5914 25.1962 67.5828 25.1124 67.5788C25.1027 67.5784 25.093 67.5787 25.0832 67.5783C24.9792 67.5745 24.8753 67.5761 24.772 67.584C24.7674 67.5843 24.7628 67.5842 24.7581 67.5846C24.7345 67.5866 24.7111 67.5902 24.6875 67.5928C24.6496 67.5969 24.6117 67.6004 24.5741 67.6061C24.5518 67.6095 24.53 67.6145 24.5081 67.6184C24.4698 67.6252 24.4314 67.6316 24.3937 67.6399C24.3716 67.6449 24.3502 67.6515 24.3282 67.6571C24.2914 67.6664 24.2543 67.6752 24.2182 67.6861C24.194 67.6934 24.1708 67.7026 24.1471 67.7106C24.1143 67.7217 24.0811 67.732 24.0491 67.7444C24.0223 67.7548 23.9969 67.7671 23.9707 67.7783C23.9429 67.7905 23.9142 67.8016 23.8871 67.8148C23.8611 67.8274 23.8367 67.8419 23.8115 67.8556C23.7857 67.8695 23.7591 67.8823 23.7342 67.8972C23.704 67.9153 23.6757 67.9354 23.6469 67.9549C23.6286 67.9672 23.6094 67.9783 23.5916 67.9914C23.5459 68.0247 23.5022 68.06 23.4606 68.0973L23.461 56.0273C23.5026 55.9901 23.5463 55.9548 23.5919 55.9215C23.6129 55.9061 23.6356 55.8926 23.6575 55.8782C23.6831 55.8611 23.7079 55.8432 23.7346 55.8273C23.7577 55.8134 23.7825 55.8015 23.8063 55.7885C23.8334 55.7739 23.8597 55.7583 23.8878 55.7447C23.9117 55.7332 23.937 55.7234 23.9617 55.7126C23.991 55.6997 24.0197 55.6861 24.0497 55.6744C24.0758 55.6642 24.1029 55.6559 24.1295 55.6468C24.1595 55.6364 24.1888 55.6252 24.2192 55.6159C24.2453 55.608 24.2723 55.602 24.2989 55.5951C24.3309 55.5866 24.3627 55.5772 24.3953 55.5699C24.4195 55.5644 24.4441 55.5607 24.4684 55.556C24.5043 55.5491 24.5399 55.5415 24.5761 55.536C24.5992 55.5326 24.6226 55.5307 24.6456 55.5278C24.6838 55.5231 24.7218 55.5178 24.7602 55.5146C24.7612 55.5145 24.7621 55.5144 24.763 55.5143C24.765 55.5142 24.7671 55.5143 24.769 55.5142C24.8744 55.506 24.9806 55.5046 25.0868 55.5085C25.0924 55.5087 25.0979 55.508 25.1035 55.5082C25.1061 55.5083 25.1087 55.5088 25.1113 55.509C25.1957 55.5128 25.2795 55.5214 25.3629 55.5333C25.3717 55.5345 25.3808 55.5345 25.3896 55.5359C25.4014 55.5377 25.4125 55.541 25.4242 55.5429C25.4912 55.554 25.5578 55.5675 25.6236 55.5839C25.6332 55.5862 25.6433 55.5873 25.6529 55.5899C25.656 55.5907 25.6588 55.592 25.6618 55.5928C25.7394 55.6133 25.8152 55.6382 25.8896 55.6661C25.8969 55.6688 25.9047 55.6705 25.912 55.6733C25.9213 55.677 25.9296 55.6822 25.9389 55.6859C26.023 55.7197 26.1053 55.7568 26.1836 55.8006L27.0045 56.2596C27.0075 56.2613 27.0104 56.2629 27.0133 56.2646C27.0198 56.2682 27.0248 56.2728 27.0311 56.2764C27.0948 56.3134 27.1537 56.3527 27.2089 56.3939C27.2278 56.4081 27.2453 56.4226 27.2633 56.4371C27.3059 56.4719 27.3456 56.5076 27.3827 56.5446C27.3924 56.5544 27.4046 56.563 27.4139 56.5729C27.4213 56.5807 27.4275 56.589 27.4346 56.5971C27.4465 56.6103 27.4574 56.6235 27.4685 56.6367C27.4921 56.665 27.5142 56.6938 27.5348 56.723C27.5445 56.7368 27.5543 56.7503 27.5632 56.7643C27.5683 56.7723 27.5746 56.7798 27.5794 56.7878C27.5856 56.798 27.5888 56.8088 27.5947 56.8191C27.6207 56.8646 27.6433 56.9108 27.6623 56.9581C27.6689 56.9746 27.6762 56.9908 27.6819 57.0074C27.703 57.0683 27.7196 57.1297 27.7289 57.1921C27.7291 57.1937 27.7299 57.1953 27.7301 57.1969C27.7369 57.2435 27.7402 57.2903 27.7402 57.3371C27.7402 61.3602 27.74 65.3834 27.7398 69.407C27.7398 69.3585 27.7357 69.3101 27.7286 69.2621C27.7193 69.1999 27.7027 69.1381 27.6815 69.0772C27.6759 69.0608 27.6686 69.0446 27.6621 69.0284C27.6429 68.9809 27.62 68.934 27.5937 68.888C27.5835 68.8703 27.5744 68.8524 27.5633 68.8351C27.554 68.8205 27.5437 68.8062 27.5336 68.7919C27.5136 68.7634 27.4921 68.7356 27.4693 68.7081C27.4574 68.6939 27.4456 68.6796 27.4329 68.6656C27.4177 68.6489 27.4004 68.6327 27.3839 68.6162C27.3463 68.5785 27.3058 68.542 27.2624 68.5066C27.2447 68.4923 27.2273 68.4778 27.2087 68.464C27.1534 68.4227 27.0944 68.3832 27.0307 68.3463C27.0214 68.3409 27.0135 68.3348 27.004 68.3296L26.1831 67.8707C26.1054 67.827 26.0236 67.7903 25.9401 67.7565C25.921 67.7485 25.9035 67.7415 25.886 67.7345L25.8876 67.7355Z" fill="url(#paint5_linear_14_9)" stroke="black" stroke-width="1.54666"/>
<path d="M13.0634 57.4238L13.063 69.4938C13.063 69.1963 13.1989 68.8966 13.479 68.6454L13.4795 56.5755C13.1999 56.8269 13.0634 57.1263 13.0634 57.4236" fill="url(#paint6_linear_14_9)"/>
<path d="M13.0634 57.4238L13.063 69.4938C13.063 69.1963 13.1989 68.8966 13.479 68.6454L13.4795 56.5755C13.1999 56.8269 13.0634 57.1263 13.0634 57.4236" stroke="black" stroke-width="1.54666"/>
<g opacity="0.9">
<path d="M32.3799 59.2459L32.3795 71.3148L33.9028 69.9488L33.9032 57.8788L32.3799 59.2459Z" fill="#212121" stroke="black" stroke-width="1.54666"/>
</g>
<path d="M31.6754 70.9516C31.601 70.9237 31.5249 70.8986 31.4474 70.878C31.4346 70.8749 31.4215 70.8722 31.4087 70.8691C31.3428 70.8528 31.2761 70.8391 31.209 70.8282C31.1888 70.8248 31.1689 70.8216 31.1487 70.8186C31.0658 70.8069 30.9822 70.7982 30.8984 70.7943C30.8883 70.7938 30.8784 70.7941 30.8685 70.7937C30.7641 70.7899 30.6597 70.7913 30.5562 70.7994C30.5526 70.7997 30.5488 70.7997 30.5452 70.7999C30.518 70.8022 30.4912 70.8062 30.4643 70.8094C30.4299 70.8133 30.3955 70.8163 30.3614 70.8214C30.3335 70.8257 30.3061 70.8317 30.2785 70.8368C30.246 70.8428 30.2132 70.8479 30.1813 70.8551C30.1524 70.8616 30.1244 70.8701 30.0961 70.8775C30.066 70.8853 30.0355 70.8922 30.0058 70.9013C29.9761 70.9103 29.9474 70.9213 29.9183 70.9313C29.891 70.9407 29.8633 70.9492 29.8366 70.9595C29.8066 70.9711 29.778 70.9848 29.7488 70.9976C29.7242 71.0084 29.6989 71.0181 29.6748 71.0298C29.6474 71.0431 29.6215 71.0584 29.5949 71.0728C29.5706 71.0861 29.5454 71.0982 29.5219 71.1122C29.4895 71.1316 29.459 71.1531 29.4282 71.1741C29.4121 71.185 29.3951 71.195 29.3795 71.2063C29.3338 71.2397 29.29 71.275 29.2485 71.3123L29.2489 59.2424C29.2904 59.2052 29.3341 59.1698 29.3797 59.1364C29.3985 59.1228 29.4187 59.1109 29.438 59.0978C29.4659 59.079 29.4932 59.0596 29.5223 59.0422C29.545 59.0287 29.5692 59.0171 29.5927 59.0042C29.6202 58.9894 29.6469 58.9737 29.6752 58.9599C29.698 58.9488 29.7222 58.9395 29.7456 58.9292C29.7761 58.9157 29.806 58.9015 29.8373 58.8895C29.858 58.8814 29.8795 58.8751 29.9007 58.8676C29.9359 58.8551 29.9708 58.8421 30.0068 58.8311C30.0266 58.8251 30.047 58.8207 30.0669 58.8152C30.1053 58.8047 30.1433 58.7938 30.1826 58.785C30.2036 58.7803 30.2251 58.7771 30.2463 58.7729C30.2849 58.7652 30.3236 58.757 30.3629 58.7512C30.3863 58.7477 30.4101 58.7458 30.4337 58.7429C30.4713 58.7383 30.5086 58.733 30.5465 58.7299C30.5473 58.7299 30.5482 58.7298 30.5491 58.7297C30.551 58.7296 30.5528 58.7297 30.5547 58.7296C30.6583 58.7214 30.763 58.7201 30.8675 58.7237C30.8746 58.7239 30.8818 58.7231 30.8891 58.7234C30.8926 58.7235 30.8961 58.7242 30.8995 58.7244C30.9828 58.7284 31.0658 58.7369 31.1483 58.7485C31.1572 58.7499 31.1663 58.7499 31.1752 58.7511C31.1871 58.7529 31.1986 58.7563 31.2105 58.7584C31.2767 58.7694 31.3424 58.7827 31.4073 58.7987C31.4176 58.8013 31.4283 58.8025 31.4386 58.8052C31.4419 58.806 31.445 58.8074 31.4483 58.8084C31.526 58.829 31.6022 58.854 31.6768 58.8822C31.6837 58.8847 31.6911 58.8863 31.698 58.889C31.7069 58.8923 31.7149 58.8974 31.7237 58.901C31.8084 58.9351 31.8914 58.9725 31.9702 59.0166L32.3799 59.2456L32.3795 71.3155L31.9698 71.0864C31.8914 71.0426 31.8088 71.0053 31.7246 70.9714C31.7082 70.9665 31.6919 70.9595 31.6754 70.9535V70.9516Z" fill="url(#paint7_linear_14_9)" stroke="black" stroke-width="1.54666"/>
<path d="M19.2529 59.8027L19.2521 71.8726L23.4602 68.0978L23.4611 56.0278L19.2529 59.8027Z" fill="#212121" stroke="black" stroke-width="1.54666"/>
<path d="M18.8368 60.6509L18.8364 72.7208C18.8364 72.4232 18.9724 72.1238 19.2523 71.8726L19.2528 59.8027C18.9715 60.0541 18.8359 60.3535 18.8359 60.6509" fill="url(#paint8_linear_14_9)"/>
<path d="M18.8368 60.6509L18.8364 72.7208C18.8364 72.4232 18.9724 72.1238 19.2523 71.8726L19.2528 59.8027C18.9715 60.0541 18.8359 60.3535 18.8359 60.6509" stroke="black" stroke-width="1.54666"/>
<path d="M25.0405 63.0177L25.0396 75.0867L29.2484 71.3118L29.2488 59.2419L25.0405 63.0177Z" fill="#212121" stroke="black" stroke-width="1.54666"/>
<path d="M24.6236 63.8659L24.6231 75.9358C24.6232 75.6385 24.7591 75.3391 25.0396 75.0875L25.0399 63.0175C24.7603 63.269 24.6238 63.5683 24.6238 63.8657" fill="url(#paint9_linear_14_9)"/>
<path d="M24.6236 63.8659L24.6231 75.9358C24.6232 75.6385 24.7591 75.3391 25.0396 75.0875L25.0399 63.0175C24.7603 63.269 24.6238 63.5683 24.6238 63.8657" stroke="black" stroke-width="1.54666"/>
<g opacity="0.9">
<path d="M24.2483 66.5401L24.2474 78.61L25.7711 77.243L25.7719 65.1741L24.2483 66.5401Z" fill="#212121" stroke="black" stroke-width="1.54666"/>
</g>
<path d="M25.3617 64.9446C24.5217 64.4749 24.3771 63.6124 25.0403 63.0174L29.2488 59.2423C29.9119 58.6473 31.1301 58.5469 31.9701 59.0165L32.3798 59.2455L33.9031 57.8789L10.8119 44.9678L9.27446 46.347L9.68413 46.5761C10.5241 47.0457 10.6676 47.9093 10.0045 48.5041L5.796 52.2795C5.13394 52.8733 3.91468 52.9749 3.07462 52.5053L2.66495 52.2762L1.15669 53.6292L24.2463 66.5403L25.7697 65.1738L25.3595 64.9453L25.3617 64.9446ZM27.3233 58.1872L23.1148 61.9625C22.4529 62.5563 21.2336 62.6579 20.395 62.189L19.574 61.73C18.7341 61.2604 18.5906 60.3968 19.2526 59.8029L23.461 56.0275C24.1241 55.4326 25.3435 55.3312 26.1835 55.8008L27.0044 56.2598C27.8421 56.7298 27.9856 57.593 27.3224 58.1877M15.7772 51.732L11.5688 55.5074C10.9067 56.1012 9.68729 56.2027 8.84732 55.7331L8.02657 55.2741C7.18801 54.8052 7.04455 53.9416 7.70652 53.3477L11.9151 49.5725C12.5783 48.9777 13.7975 48.8761 14.6361 49.345L15.457 49.8039C16.2958 50.2737 16.4398 51.1373 15.7765 51.7321M21.5491 54.9598L17.3406 58.7351C16.6787 59.329 15.4594 59.4306 14.6208 58.9617L13.7984 58.5019C12.9599 58.033 12.8165 57.1694 13.4785 56.5756L17.687 52.8003C18.3501 52.2055 19.5695 52.1038 20.408 52.5727L21.2303 53.0325C22.0683 53.5009 22.2115 54.3643 21.5482 54.9591" fill="#828283"/>
<path d="M27.3233 58.1872L23.1148 61.9625C22.4529 62.5563 21.2336 62.6579 20.395 62.189L19.574 61.73C18.7341 61.2604 18.5906 60.3968 19.2526 59.8029L23.461 56.0275C24.1241 55.4326 25.3435 55.3312 26.1835 55.8008L27.0044 56.2598C27.8421 56.7298 27.9856 57.593 27.3224 58.1877M15.7772 51.732L11.5688 55.5074C10.9067 56.1012 9.68729 56.2027 8.84732 55.7331L8.02657 55.2741C7.18801 54.8052 7.04455 53.9416 7.70652 53.3477L11.9151 49.5725C12.5783 48.9777 13.7975 48.8761 14.6361 49.345L15.457 49.8039C16.2958 50.2737 16.4398 51.1373 15.7765 51.7321M21.5491 54.9598L17.3406 58.7351C16.6787 59.329 15.4594 59.4306 14.6208 58.9617L13.7984 58.5019C12.9599 58.033 12.8165 57.1694 13.4785 56.5756L17.687 52.8003C18.3501 52.2055 19.5695 52.1038 20.408 52.5727L21.2303 53.0325C22.0683 53.5009 22.2115 54.3643 21.5482 54.9591M25.3617 64.9446C24.5217 64.4749 24.3771 63.6124 25.0403 63.0174L29.2488 59.2423C29.9119 58.6473 31.1301 58.5469 31.9701 59.0165L32.3798 59.2455L33.9031 57.8789L10.8119 44.9678L9.27446 46.347L9.68413 46.5761C10.5241 47.0457 10.6676 47.9093 10.0045 48.5041L5.796 52.2795C5.13394 52.8733 3.91468 52.9749 3.07462 52.5053L2.66495 52.2762L1.15669 53.6292L24.2463 66.5403L25.7697 65.1738L25.3595 64.9453L25.3617 64.9446Z" stroke="black" stroke-width="1.54666"/>
<path d="M1.15698 53.6287V65.698L24.2474 78.6101L24.2483 66.5401L1.15698 53.6287Z" fill="#4B4B4B" stroke="black" stroke-width="1.54666"/>
</g>
<defs>
<linearGradient id="paint0_linear_14_9" x1="27.9496" y1="-1.30356" x2="79.4095" y2="35.563" gradientUnits="userSpaceOnUse">
<stop stop-color="#7F7F7F"/>
<stop offset="0.18617" stop-color="#8A8A8A"/>
<stop offset="0.26861" stop-color="#EDEDED"/>
<stop offset="0.64559" stop-color="#929292"/>
<stop offset="0.80983" stop-color="#F1F1F1"/>
<stop offset="0.921772" stop-color="#C3C3C3"/>
<stop offset="1" stop-color="#434343"/>
</linearGradient>
<linearGradient id="paint1_linear_14_9" x1="10.4222" y1="53.035" x2="9.27462" y2="53.035" gradientUnits="userSpaceOnUse">
<stop stop-color="#3F3F40"/>
<stop offset="0.0547" stop-color="#464646"/>
<stop offset="0.2045" stop-color="#515152"/>
<stop offset="0.4149" stop-color="#585858"/>
<stop offset="1" stop-color="#5A5A5A"/>
</linearGradient>
<linearGradient id="paint2_linear_14_9" x1="16.1947" y1="56.0009" x2="11.915" y2="56.0009" gradientUnits="userSpaceOnUse">
<stop stop-color="#3F3F40"/>
<stop offset="0.0203" stop-color="#464646"/>
<stop offset="0.0757" stop-color="#515152"/>
<stop offset="0.1537" stop-color="#585858"/>
<stop offset="0.3704" stop-color="#5A5A5A"/>
<stop offset="1" stop-color="#212121"/>
</linearGradient>
<linearGradient id="paint3_linear_14_9" x1="21.9674" y1="59.2289" x2="17.6876" y2="59.2289" gradientUnits="userSpaceOnUse">
<stop stop-color="#3F3F40"/>
<stop offset="0.0203" stop-color="#464646"/>
<stop offset="0.0757" stop-color="#515152"/>
<stop offset="0.1537" stop-color="#585858"/>
<stop offset="0.3704" stop-color="#5A5A5A"/>
<stop offset="1" stop-color="#212121"/>
</linearGradient>
<linearGradient id="paint4_linear_14_9" x1="7.70682" y1="59.8067" x2="7.29074" y2="59.8067" gradientUnits="userSpaceOnUse">
<stop stop-color="#212121"/>
<stop offset="1" stop-color="#262626"/>
</linearGradient>
<linearGradient id="paint5_linear_14_9" x1="27.7402" y1="62.4569" x2="23.4602" y2="62.4569" gradientUnits="userSpaceOnUse">
<stop stop-color="#3F3F40"/>
<stop offset="0.0203" stop-color="#464646"/>
<stop offset="0.0757" stop-color="#515152"/>
<stop offset="0.1537" stop-color="#585858"/>
<stop offset="0.3704" stop-color="#5A5A5A"/>
<stop offset="1" stop-color="#212121"/>
</linearGradient>
<linearGradient id="paint6_linear_14_9" x1="13.4795" y1="63.0337" x2="13.0634" y2="63.0337" gradientUnits="userSpaceOnUse">
<stop stop-color="#212121"/>
<stop offset="1" stop-color="#262626"/>
</linearGradient>
<linearGradient id="paint7_linear_14_9" x1="32.3799" y1="65.0184" x2="29.2484" y2="65.0184" gradientUnits="userSpaceOnUse">
<stop offset="0.2063" stop-color="#5A5A5A"/>
<stop offset="1" stop-color="#212121"/>
</linearGradient>
<linearGradient id="paint8_linear_14_9" x1="19.2529" y1="66.2617" x2="18.836" y2="66.2617" gradientUnits="userSpaceOnUse">
<stop stop-color="#212121"/>
<stop offset="1" stop-color="#262626"/>
</linearGradient>
<linearGradient id="paint9_linear_14_9" x1="25.0405" y1="69.4768" x2="24.6236" y2="69.4768" gradientUnits="userSpaceOnUse">
<stop stop-color="#212121"/>
<stop offset="1" stop-color="#262626"/>
</linearGradient>
<clipPath id="clip0_14_9">
<rect width="80" height="80" fill="white"/>
</clipPath>
</defs>
</svg>
