<svg width="105" height="80" viewBox="0 0 105 80" fill="none" xmlns="http://www.w3.org/2000/svg">
<g clip-path="url(#clip0_16_163)">
<path fill-rule="evenodd" clip-rule="evenodd" d="M21.3161 23.1898C18.0033 23.6019 15.9779 21.8942 15.8856 17.0521C17.8106 17.1812 22.5974 18.2616 21.3161 23.1898Z" fill="#F09418"/>
<path fill-rule="evenodd" clip-rule="evenodd" d="M27.171 30.9266C24.9795 33.1837 23.4338 33.6449 19.6597 30.4695C22.3288 29.1451 24.6802 27.2509 27.171 30.9266ZM23.6429 26.9147C21.599 29.016 20.162 29.4465 16.6503 26.4863C19.1287 25.2501 21.3202 23.4912 23.6429 26.9147ZM41.4945 44.5633C44.6802 42.1669 45.5105 40.3014 42.1197 35.0533C40.0246 38.1898 37.2714 40.8446 41.4945 44.5633V44.5633ZM36.927 39.3788C40.1128 36.9824 40.943 35.1148 37.5523 29.8688C35.4592 33.0074 32.7081 35.6622 36.927 39.3788ZM32.4477 34.305C35.2829 32.1751 36.0209 30.5125 33.0053 25.8467C31.1419 28.6367 28.6921 30.9963 32.4477 34.305ZM28.4604 29.7909C30.9758 27.9028 31.6298 26.4268 28.9565 22.2837C27.3042 24.7622 25.1292 26.8553 28.4604 29.7909ZM24.9262 25.7852C27.2694 24.0242 27.8782 22.6527 25.3854 18.7946C23.8458 21.0968 21.8204 23.0525 24.9262 25.7852ZM40.1743 45.7257C37.3944 48.5834 35.4387 49.1697 30.6622 45.1456C34.0385 43.4625 37.0213 41.064 40.1743 45.7257ZM35.6068 40.5412C32.827 43.3969 30.8713 43.9852 26.0947 39.959C29.4731 38.28 32.458 35.8815 35.6068 40.5412ZM31.1439 35.4531C28.6736 37.9951 26.9311 38.5178 22.6835 34.9385C25.6868 33.442 28.3354 31.31 31.1439 35.4531Z" fill="#FFD203"/>
<path fill-rule="evenodd" clip-rule="evenodd" d="M74.6863 78.0115C71.8061 78.4461 68.6716 78.6839 65.3895 78.6839C51.31 78.6839 39.8913 74.305 39.8913 68.893C39.8913 67.8311 40.3342 66.8122 41.148 65.859V60.5494C40.1804 59.4875 39.6556 58.034 39.6556 57.1566C39.6556 56.2792 39.7765 56.0291 40.0082 55.4859C40.2501 55.7339 40.5125 55.9779 40.8016 56.2095C44.8729 59.5059 54.0488 61.5621 63.5834 61.8553C65.5105 61.9168 67.4539 61.9045 69.3747 61.8163C69.2271 62.5994 69.1472 63.3805 69.1472 64.1636C69.1472 66.9147 69.6617 69.5162 70.6929 71.9639C71.6195 74.1656 72.952 76.1829 74.6863 78.0115Z" fill="#00880F"/>
<path fill-rule="evenodd" clip-rule="evenodd" d="M90.6827 26.2341C90.9389 26.7712 91.0845 27.1197 91.1132 27.8249C90.4287 27.5856 89.6966 27.5153 88.9791 27.6199C89.6023 27.1894 90.1681 26.7261 90.6827 26.2341V26.2341ZM69.8483 59.959C67.7942 60.0677 65.7073 60.0882 63.6347 60.0246C54.467 59.7437 45.7196 57.8352 41.9598 54.7868C41.5949 54.4916 41.2874 54.1923 41.0373 53.8909C41.0763 53.8458 41.1091 53.8069 41.148 53.7679V31.4863C40.1804 30.4285 39.6556 28.9811 39.6556 28.0914C39.6556 27.2017 39.7827 26.927 40.0328 26.3633C40.2685 26.6052 40.5269 26.8368 40.8016 27.0603C44.8729 30.3588 54.0488 32.4129 63.5834 32.7081C71.804 32.9623 80.3423 31.9086 86.1501 29.2169C85.7037 29.7575 85.3899 30.3949 85.2337 31.0783C83.854 37.0746 79.9344 42.9233 76.4699 48.0935C73.6285 52.3329 71.0455 56.1911 69.8483 59.959V59.959Z" fill="#00880F"/>
<path fill-rule="evenodd" clip-rule="evenodd" d="M65.3321 0C72.1587 0 78.3702 1.04961 82.8905 2.74703C87.7942 4.5859 90.8241 7.25502 90.8241 10.3096C90.8241 11.4043 90.4326 12.4477 89.7089 13.4215V24.6023C89.1328 25.2112 88.4481 25.7729 87.6609 26.2915C82.3514 29.795 72.8188 31.1583 63.6285 30.8774C54.467 30.5945 45.7196 28.688 41.9598 25.6458C41.6134 25.3649 41.3141 25.082 41.0701 24.7868L41.148 24.7048V13.6777C40.2952 12.6343 39.834 11.5006 39.834 10.3096C39.834 7.24887 42.87 4.5859 47.7675 2.74703C52.296 1.04961 58.5076 0 65.3321 0Z" fill="#00880F"/>
<path fill-rule="evenodd" clip-rule="evenodd" d="M89.631 32.0849C91.4555 39.918 97.8577 47.458 101.927 54.756C108.829 67.1341 103.631 80 89.631 80C74.3706 80 70.6334 66.0291 78.2124 53.2718C82.2735 46.433 87.95 39.3788 89.631 32.0849V32.0849ZM79.0529 61.8102C78.9709 60.9225 79.6351 60.1333 80.5207 60.0512C81.4084 59.9672 82.1956 60.6335 82.2796 61.5191C82.4867 63.6654 82.9582 65.6581 83.8581 67.3616C84.7294 69.0078 86.0189 70.4346 87.8864 71.5273C90.9266 73.321 85.8098 78.0976 80.9922 68.8704C79.8831 66.7651 79.303 64.3706 79.0529 61.8102V61.8102Z" fill="#DE9C2D"/>
<path fill-rule="evenodd" clip-rule="evenodd" d="M52.9541 9.36244C54.6761 9.36244 56.0722 9.8483 56.0722 10.451C56.0722 11.0517 54.6761 11.5396 52.9541 11.5396C51.2321 11.5396 49.836 11.0517 49.836 10.451C49.836 9.85445 51.2321 9.36244 52.9541 9.36244Z" fill="black"/>
<path fill-rule="evenodd" clip-rule="evenodd" d="M81.763 5.12915C77.5871 3.56089 71.7815 2.59328 65.3321 2.59328C58.8848 2.59328 53.0771 3.56089 48.9012 5.12915C45.1045 6.54982 42.7532 8.39483 42.7532 10.3096C42.7532 12.2304 45.1045 14.0693 48.9012 15.49C53.0771 17.0521 58.8848 18.0258 65.3321 18.0258C71.7815 18.0258 77.5871 17.0582 81.763 15.49C85.5597 14.0693 87.911 12.2243 87.911 10.3096C87.911 8.39483 85.5597 6.54982 81.763 5.12915V5.12915Z" fill="white"/>
<path fill-rule="evenodd" clip-rule="evenodd" d="M52.2468 8.37843C54.7909 8.37843 56.8491 9.30504 56.8491 10.451C56.8491 11.5949 54.7909 12.5215 52.2468 12.5215C49.7048 12.5215 47.6466 11.5949 47.6466 10.451C47.6466 9.30504 49.7048 8.37843 52.2468 8.37843Z" fill="#00880F"/>
<path fill-rule="evenodd" clip-rule="evenodd" d="M16.8901 61.3141L20.3116 49.2681C20.4346 48.8274 20.8364 48.5383 21.2731 48.5383H35.8672C36.3551 48.5383 36.7569 48.8868 36.8491 49.3419L40.3629 61.3715C40.5166 61.9004 40.2132 62.4539 39.6843 62.6076C39.59 62.6343 39.4977 62.6466 39.4055 62.6466V62.6507H17.8331C17.5678 62.6507 17.3133 62.5453 17.1257 62.3577C16.9381 62.1701 16.8327 61.9156 16.8327 61.6503C16.8327 61.5314 16.8512 61.4186 16.8901 61.3141V61.3141ZM15.1127 40.7442L14.9733 40.7524C15.0451 41.8983 14.6781 42.9274 13.8766 43.8376C13.075 44.7499 12.0972 45.2378 10.9512 45.3096L10.9594 45.451C12.1054 45.3793 13.1345 45.7462 14.0467 46.5539C14.9569 47.3616 15.449 48.3354 15.5207 49.4752L15.6622 49.467C15.5884 48.321 15.9553 47.2919 16.7569 46.3817C17.5584 45.4715 18.5363 44.9815 19.6822 44.9098L19.674 44.7683C18.5281 44.8421 17.499 44.4731 16.5888 43.6716C15.6786 42.8659 15.1865 41.8922 15.1127 40.7442V40.7442ZM3.82943 76.7856L7.25092 64.7417C7.37392 64.3009 7.77572 64.0119 8.21238 64.0119H22.8065C23.2944 64.0119 23.6962 64.3583 23.7884 64.8134L27.3022 76.845C27.458 77.3739 27.1525 77.9254 26.6216 78.0791C26.5293 78.1078 26.4371 78.1181 26.3448 78.1181V78.1222H4.77244C4.21894 78.1222 3.77203 77.6753 3.77203 77.1218C3.77203 77.007 3.79048 76.8942 3.82943 76.7856V76.7856ZM29.9262 76.7856L33.3477 64.7417C33.4707 64.3009 33.8725 64.0119 34.3091 64.0119H48.9032C49.3911 64.0119 49.7909 64.3583 49.8852 64.8134L53.3989 76.845C53.4356 76.9707 53.4471 77.1025 53.4327 77.2326C53.4183 77.3628 53.3783 77.4888 53.3151 77.6035C53.2518 77.7182 53.1665 77.8192 53.0641 77.9008C52.9617 77.9825 52.8442 78.0431 52.7183 78.0791C52.6261 78.1078 52.5338 78.1181 52.4416 78.1181V78.1222H30.8672C30.3157 78.1222 29.8688 77.6753 29.8688 77.1218C29.8688 77.007 29.8872 76.8942 29.9262 76.7856Z" fill="#FAC900"/>
<path fill-rule="evenodd" clip-rule="evenodd" d="M16.8655 61.3428L20.287 49.2969C20.3462 49.0869 20.4724 48.902 20.6463 48.7703C20.8202 48.6386 21.0324 48.5672 21.2505 48.567H35.8426C36.3305 48.567 36.7323 48.9135 36.8245 49.3707L36.8799 49.5572H22.7716C22.335 49.5572 21.9332 49.8483 21.8102 50.287L18.3866 62.3329C18.3475 62.4407 18.3281 62.5545 18.3292 62.6691V62.6773H17.8085C17.255 62.6773 16.8081 62.2304 16.8081 61.6769C16.8081 61.558 16.8266 61.4453 16.8655 61.3428V61.3428Z" fill="#E6BD00"/>
<path fill-rule="evenodd" clip-rule="evenodd" d="M3.82943 76.7856L7.25092 64.7396C7.37392 64.3009 7.77572 64.0098 8.21238 64.0098H22.8065C23.2944 64.0098 23.6962 64.3583 23.7884 64.8135L23.8438 65.0021H9.73554C9.29684 65.0021 8.89709 65.2911 8.77203 65.7319L5.35055 77.7778C5.31145 77.8855 5.292 77.9994 5.29315 78.114V78.1222H4.77244C4.21894 78.1222 3.77203 77.6753 3.77203 77.1218C3.77203 77.0029 3.79048 76.8901 3.82943 76.7856V76.7856Z" fill="#E3B600"/>
<path fill-rule="evenodd" clip-rule="evenodd" d="M3.82943 76.7856L7.25092 64.7396C7.37392 64.3009 7.77572 64.0098 8.21238 64.0098H22.8065C23.2944 64.0098 23.6962 64.3583 23.7884 64.8135L23.8438 65.0021H9.73554C9.29684 65.0021 8.89709 65.2911 8.77203 65.7319L5.35055 77.7778C5.31145 77.8855 5.292 77.9994 5.29315 78.114V78.1222H4.77244C4.21894 78.1222 3.77203 77.6753 3.77203 77.1218C3.77203 77.0029 3.79048 76.8901 3.82943 76.7856V76.7856ZM29.9262 76.7856L33.3477 64.7396C33.4707 64.3009 33.8725 64.0098 34.3091 64.0098H48.9032C49.3891 64.0098 49.7909 64.3583 49.8852 64.8135L49.9405 65.0021H35.8303C35.3936 65.0021 34.9938 65.2911 34.8688 65.7319L31.4473 77.7778C31.4082 77.8855 31.3888 77.9994 31.3899 78.114V78.1222H30.8672C30.3157 78.1222 29.8688 77.6753 29.8688 77.1218C29.8688 77.0029 29.8872 76.8901 29.9262 76.7856Z" fill="#E6BD00"/>
<path fill-rule="evenodd" clip-rule="evenodd" d="M4.36244 55.3977L4.22304 55.3998C4.24354 56.5478 3.82944 57.5584 2.98893 58.4317C2.14637 59.305 1.14801 59.7499 0 59.7704L0.00205002 59.9118C1.15006 59.8913 2.16072 60.3054 3.03608 61.1521C3.90939 61.9988 4.35629 62.9951 4.37679 64.1369L4.51825 64.1349C4.49775 62.9869 4.91185 61.9742 5.75236 61.1009C6.59492 60.2275 7.59123 59.7847 8.74129 59.7622L8.73924 59.6228C7.58918 59.6433 6.57852 59.2292 5.70521 58.3887C4.8319 57.54 4.38499 56.5457 4.36244 55.3977V55.3977Z" fill="#FAC900"/>
</g>
<defs>
<clipPath id="clip0_16_163">
<rect width="104.961" height="80" fill="white"/>
</clipPath>
</defs>
</svg>
