<svg width="81" height="81" viewBox="0 0 81 81" fill="none" xmlns="http://www.w3.org/2000/svg">
<path d="M12.6562 37.9688H2.53125V65.8125H12.6562V37.9688Z" fill="#00880F"/>
<path d="M49.7391 53.1562H35.4375C35.4375 51.8136 35.9709 50.5259 36.9203 49.5765C37.8697 48.6271 39.1573 48.0937 40.5 48.0937H48.0937C49.4364 48.0937 50.7241 47.5604 51.6735 46.6109C52.6229 45.6615 53.1562 44.3739 53.1562 43.0312C53.1562 41.6886 52.6229 40.4009 51.6735 39.4515C50.7241 38.5021 49.4364 37.9687 48.0937 37.9687C22.275 37.9687 27.3881 37.2853 17.7187 40.5H12.6562V63.2812H17.7187C26.8566 66.9262 29.3372 68.3437 33.3112 68.3437C48.6759 68.3437 52.0172 69.0271 56.7759 66.1668L75.9375 54.6243C76.9525 53.9526 77.6916 52.9377 78.0192 51.7654C78.3469 50.5932 78.2412 49.3422 77.7216 48.2415C77.202 47.1408 76.3033 46.2641 75.19 45.7721C74.0767 45.2801 72.8234 45.2057 71.6597 45.5625C49.8403 53.4347 51.0047 53.1562 49.7391 53.1562Z" fill="#00880F"/>
<path d="M70.875 32.9062H30.375C21.9459 32.9062 23.7684 17.01 38.475 14.0738C45.7848 12.3469 53.3789 12.2002 60.75 13.6434C65.168 14.1416 69.2929 16.1017 72.4696 19.2122C77.3296 24.1734 77.3043 32.9062 70.875 32.9062Z" fill="#A1D8DF"/>
<path d="M53.1562 12.6562V20.25C53.1562 20.9213 52.8896 21.5652 52.4149 22.0399C51.9402 22.5146 51.2963 22.7812 50.625 22.7812C49.9537 22.7812 49.3098 22.5146 48.8351 22.0399C48.3604 21.5652 48.0938 20.9213 48.0938 20.25V12.6562C50.3972 12.6562 50.8528 12.6562 53.1562 12.6562Z" fill="#00880F"/>
<path d="M63.2812 14.2003V17.7187C63.2812 18.3901 63.0146 19.0339 62.5399 19.5086C62.0652 19.9833 61.4213 20.25 60.75 20.25C60.0787 20.25 59.4348 19.9833 58.9601 19.5086C58.4854 19.0339 58.2188 18.3901 58.2188 17.7187V13.2131C59.4337 13.3903 62.5472 13.9978 63.2812 14.2003Z" fill="#00880F"/>
<path d="M43.0312 13.2131V17.7187C43.0312 18.3901 42.7646 19.0339 42.2899 19.5086C41.8152 19.9833 41.1713 20.25 40.5 20.25C39.8287 20.25 39.1848 19.9833 38.7101 19.5086C38.2354 19.0339 37.9688 18.3901 37.9688 17.7187V14.2003C38.4497 14.0737 41.2594 13.4916 43.0312 13.2131Z" fill="#00880F"/>
</svg>
