<svg width="80" height="80" viewBox="0 0 80 80" fill="none" xmlns="http://www.w3.org/2000/svg">
<g clip-path="url(#clip0_15_130)">
<path d="M43.4954 0H36.5046C17.2919 0 1.66148 15.6305 1.66148 34.8432V36.2528V46.711V53.6564C1.66148 54.7349 2.53576 55.6088 3.61387 55.6088H4.39483H6.54441V56.9837C6.54441 58.0622 7.41869 58.936 8.4968 58.936H12.04C15.543 58.936 18.3927 56.0863 18.3927 52.5834V37.3254C18.3927 33.8224 15.543 30.9727 12.04 30.9727H8.4968C7.41869 30.9727 6.54441 31.8466 6.54441 32.9251V34.3004H5.57993C5.87162 17.4915 19.627 3.90478 36.5046 3.90478H43.4954C60.3726 3.90478 74.1284 17.4915 74.4201 34.3008H73.4556V32.9251C73.4556 31.8466 72.5813 30.9727 71.5032 30.9727H67.9604C64.4574 30.9727 61.6077 33.8224 61.6077 37.3254V52.5841C61.6077 56.0871 64.4574 58.9368 67.9604 58.9368H71.5032C72.044 58.9368 72.5333 58.7166 72.8867 58.3613V62.5753C72.8867 68.2275 68.2884 72.8254 62.6366 72.8254H51.0281C50.253 70.9108 48.3771 69.5551 46.1877 69.5551H40.9163C38.0365 69.5551 35.6936 71.898 35.6936 74.7777C35.6936 77.6575 38.0365 80.0004 40.9163 80.0004H46.1877C48.3771 80.0004 50.253 78.6447 51.0281 76.7301H62.6366C70.4415 76.7301 76.7914 70.3802 76.7914 62.5753V55.5662C77.6751 55.3796 78.3385 54.5963 78.3385 53.6572V46.7117V36.2532V34.8435C78.3385 15.6305 62.7081 0 43.4954 0Z" fill="#00880F"/>
</g>
<defs>
<clipPath id="clip0_15_130">
<rect width="80" height="80" fill="white"/>
</clipPath>
</defs>
</svg>
