<svg width="391" height="120" viewBox="0 0 391 120" fill="none" xmlns="http://www.w3.org/2000/svg">
<path d="M0 60V60C0 93.1371 26.8629 120 60 120H60.9917H61.9834C95.1205 120 121.983 93.1371 121.983 60V60V60C121.983 26.8629 95.1205 5.21541e-07 61.9834 5.21541e-07H60.9917H60C26.8629 5.21541e-07 0 26.8629 0 60V60ZM65.5537 20.6281V20.6281C69.5928 30.6958 79.1915 37.4324 90.0328 37.8081L92.2313 37.8843C94.2654 37.9393 96.2386 38.001 98.1052 38.067C107.737 38.4077 109.447 42.7378 102.184 49.0728C102.139 49.1119 102.094 49.151 102.049 49.1901C92.4297 57.6198 91.2396 59.1074 92.7272 60C105.62 67.5372 104.727 79.5372 90.5454 86.7769V86.7769C87.8132 88.0779 86.6635 90.3885 87.2579 93.3557C87.5405 94.7667 87.8844 96.4201 88.2644 98.1818C88.4499 99.042 88.6268 99.882 88.7912 100.685C89.7556 105.394 87.7018 106.732 83.8698 103.83C82.6849 102.932 81.3863 101.927 80.033 100.86L76.3368 97.9415C72.6732 95.0491 68.0045 93.7429 63.3718 94.314V94.314C59.3057 94.9091 52.8595 95.0083 48.9917 94.7107C42.4462 94.1157 41.5537 94.314 37.7851 96.595C32.4297 99.9669 31.6363 99.8678 32.8264 96C33.3223 94.2149 33.719 92.7273 33.719 92.6281C33.719 92.5289 31.6363 91.7355 29.157 90.7438C26.6777 89.8512 23.1074 87.4711 21.2231 85.686C14.6777 79.1405 17.3554 69.8182 27.471 63.9669V63.9669C31.0797 61.8515 31.4804 58.7695 28.7089 55.6364C27.7913 54.599 26.7657 53.4549 25.6859 52.2645C24.8968 51.3944 24.1407 50.5491 23.4387 49.753C20.2592 46.1475 21.2891 43.5484 26.0138 42.6616C27.9882 42.2911 30.2493 41.8782 32.6281 41.4545V41.4545C40.8235 40.0479 47.6013 34.2873 50.3106 26.4258L51.9669 21.6198C55.3388 11.9008 58.2148 3.96694 58.5123 3.96694C58.8099 3.96694 61.9834 11.5041 65.5537 20.6281Z" fill="#08B008"/>
<path d="M84.0001 64.9587V64.9587C82.3504 66.425 81.6374 68.6777 82.143 70.8262L82.9092 74.0826C83.7026 77.752 84.5951 81.0248 84.7935 81.2231C85.686 82.1157 91.1406 77.0578 92.2315 74.3801C93.3224 71.7024 93.3224 70.7107 91.934 67.9339C89.5538 62.9752 87.372 62.1818 84.0001 64.9587Z" fill="#08B008"/>
<path d="M32.9257 65.9504C28.2646 69.1239 26.8762 71.4049 26.777 75.5702C26.777 78.3471 27.4712 79.7355 29.8514 81.719C31.5373 83.1074 33.4216 84.2975 34.0166 84.2975C34.7109 84.2975 35.9009 80.5289 36.8927 75.0743C38.9753 64.0661 38.1819 62.281 32.9257 65.9504Z" fill="#08B008"/>
<path d="M55.0417 86.2809V86.2809C54.1505 86.8751 54.5711 88.2644 55.6423 88.2644H57.9178H60.5159C61.5724 88.2644 62.0279 86.9251 61.1905 86.2809V86.2809C58.2153 83.9008 58.7112 83.9008 55.0417 86.2809Z" fill="#08B008"/>
<path d="M163.293 70.12C162.066 70.12 160.813 70.04 159.533 69.88C156.173 69.4533 153.693 68.4667 152.093 66.92C150.546 65.32 149.773 63.6133 149.773 61.8C149.773 59.8267 150.626 58.04 152.333 56.44C154.093 54.84 156.573 54.04 159.773 54.04C161.906 54.04 164.226 54.4667 166.733 55.32C167.8 55.64 169.106 56.2 170.653 57C172.253 57.7467 173.826 58.52 175.373 59.32C176.92 60.12 178.12 60.76 178.973 61.24C181.32 58.9467 183.48 56.3067 185.453 53.32C187.48 50.28 189.4 47.0533 191.213 43.64C193.026 40.1733 194.866 36.68 196.733 33.16C198.6 29.64 200.546 26.2267 202.573 22.92C204.653 19.56 206.946 16.4933 209.453 13.72C206.68 12.0133 203.613 10.7067 200.253 9.8C196.946 8.84 193.533 8.36 190.013 8.36C188.68 8.36 187.32 8.44 185.933 8.6C184.6 8.76 183.24 8.97333 181.853 9.24C176.893 10.3067 172.706 12.0133 169.293 14.36C165.88 16.6533 163.293 19.1867 161.533 21.96C159.826 24.68 158.973 27.2667 158.973 29.72C158.973 31.5333 159.453 33.1333 160.413 34.52C161.373 35.9067 162.84 36.8933 164.813 37.48C166.253 37.9067 167.506 38.12 168.573 38.12C170.333 38.12 171.853 37.7733 173.133 37.08C174.466 36.3333 175.586 35.4267 176.493 34.36C177.4 33.2933 178.066 32.2533 178.493 31.24C178.973 30.2267 179.24 29.4 179.293 28.76C179.293 28.3867 179.533 28.2 180.013 28.2C180.76 28.2 181.053 28.6533 180.893 29.56C180.626 31.6933 179.826 33.56 178.493 35.16C177.16 36.7067 175.56 37.9333 173.693 38.84C171.826 39.6933 169.906 40.12 167.933 40.12C166.653 40.12 165.32 39.9067 163.933 39.48C161.48 38.6267 159.4 37.16 157.693 35.08C156.04 32.9467 155.213 30.44 155.213 27.56C155.213 24.7333 156.146 21.9067 158.013 19.08C159.933 16.2 162.973 13.6133 167.133 11.32C171.293 9.02666 176.733 7.4 183.453 6.44C185.693 6.12 187.96 5.96 190.253 5.96C194.04 5.96 197.746 6.41333 201.373 7.32C205.053 8.22666 208.52 9.53333 211.773 11.24L213.773 8.92C214.253 8.49333 214.92 7.96 215.773 7.32C216.68 6.68 217.586 6.06666 218.493 5.48C219.4 4.89333 220.066 4.52 220.493 4.36C221.186 4.09333 221.746 3.96 222.173 3.96C222.493 3.96 222.653 4.04 222.653 4.2C222.653 4.57333 222.226 5.02666 221.373 5.56C220.84 5.93333 220.36 6.36 219.933 6.84C219.506 7.26666 219.186 7.61333 218.973 7.88C218.173 9 217.533 9.90666 217.053 10.6C216.626 11.2933 216.04 12.2 215.293 13.32C220.2 16.5733 224.2 20.7867 227.293 25.96C230.386 31.08 231.933 36.9467 231.933 43.56C231.933 44.9467 231.853 46.36 231.693 47.8C231.373 51.2133 230.44 54.3067 228.893 57.08C227.346 59.8533 225.32 62.2 222.813 64.12C220.36 66.04 217.613 67.5067 214.573 68.52C211.586 69.5867 208.44 70.12 205.133 70.12C203.906 70.12 202.68 70.04 201.453 69.88C196.226 69.24 191.906 68.3867 188.493 67.32C185.133 66.3067 182.173 65.24 179.613 64.12C174.76 68.12 169.32 70.12 163.293 70.12ZM203.773 67.72C208.04 67.72 211.8 66.8133 215.053 65C218.36 63.1333 221.026 60.7067 223.053 57.72C225.08 54.7333 226.28 51.5067 226.653 48.04C226.813 46.76 226.893 45.48 226.893 44.2C226.893 38.3867 225.64 33.1067 223.133 28.36C220.68 23.56 217.426 19.5333 213.373 16.28C211.026 19.96 208.6 23.8533 206.093 27.96C203.64 32.0667 201.16 36.1467 198.653 40.2C196.146 44.2 193.693 47.9067 191.293 51.32C188.946 54.7333 186.733 57.56 184.653 59.8C184.28 60.12 183.8 60.6 183.213 61.24C182.68 61.8267 182.12 62.3067 181.533 62.68C184.04 63.8 186.893 64.8133 190.093 65.72C193.293 66.6267 197.053 67.2667 201.373 67.64C201.853 67.6933 202.253 67.72 202.573 67.72C202.946 67.72 203.346 67.72 203.773 67.72ZM161.533 67.64C164.466 67.8 167.213 67.4533 169.773 66.6C172.333 65.6933 174.706 64.44 176.893 62.84C174.973 61.9333 173.026 61 171.053 60.04C169.08 59.0267 167 58.12 164.813 57.32C163.373 56.84 162.093 56.6 160.973 56.6C159 56.6 157.506 57.16 156.493 58.28C155.48 59.3467 154.973 60.5467 154.973 61.88C154.973 63.32 155.533 64.6267 156.653 65.8C157.773 66.92 159.4 67.5333 161.533 67.64ZM241.176 67.32C239.202 67.32 237.416 66.68 235.816 65.4C234.269 64.12 233.496 62.1733 233.496 59.56C233.496 57.16 234.082 54.6 235.256 51.88C236.429 49.1067 237.922 46.68 239.736 44.6C241.282 42.7867 243.016 41.2933 244.936 40.12C246.856 38.9467 248.669 38.36 250.376 38.36C251.549 38.36 252.562 38.68 253.416 39.32C254.322 40.0133 254.776 41 254.776 42.28C254.776 43.6133 254.269 45.08 253.256 46.68C252.242 48.28 250.802 49.7733 248.936 51.16C248.136 51.7467 247.122 52.3067 245.896 52.84C244.669 53.3733 243.442 53.8267 242.216 54.2C240.989 54.52 239.976 54.68 239.176 54.68C238.909 55.32 238.642 56.1733 238.376 57.24C238.162 58.3067 238.056 59.4 238.056 60.52C238.056 61.8533 238.322 63.0533 238.856 64.12C239.389 65.1867 240.376 65.72 241.816 65.72C243.576 65.72 245.176 65.2133 246.616 64.2C248.056 63.1867 249.336 61.9333 250.456 60.44C251.576 58.8933 252.509 57.3467 253.256 55.8C254.056 54.2533 254.696 52.9467 255.176 51.88C255.496 51.1333 255.922 50.76 256.456 50.76C256.722 50.76 256.856 50.8933 256.856 51.16C256.856 51.3733 256.776 51.64 256.616 51.96C255.869 53.56 255.069 55.2667 254.216 57.08C253.362 58.84 252.349 60.52 251.176 62.12C250.002 63.6667 248.589 64.92 246.936 65.88C245.336 66.84 243.416 67.32 241.176 67.32ZM239.736 53.24C240.482 53.24 241.736 52.9733 243.496 52.44C245.256 51.8533 246.856 50.9467 248.296 49.72C249.682 48.4933 250.749 47.16 251.496 45.72C252.242 44.2267 252.616 42.9733 252.616 41.96C252.616 40.7867 252.189 40.2 251.336 40.2C250.696 40.2 249.816 40.6267 248.696 41.48C247.576 42.3333 246.189 43.7733 244.536 45.8C243.522 47.08 242.562 48.4667 241.656 49.96C240.749 51.4533 240.109 52.5467 239.736 53.24ZM273.099 67.16C272.779 67.16 272.486 67.1333 272.219 67.08C272.006 67.08 271.713 67.0533 271.339 67C270.006 66.7333 269.073 66.0133 268.539 64.84C268.059 63.6133 267.819 62.3067 267.819 60.92C267.819 60.0667 267.873 59.24 267.979 58.44C268.139 57.5867 268.326 56.84 268.539 56.2C268.059 57.0533 267.446 58.0933 266.699 59.32C265.953 60.4933 265.099 61.6667 264.139 62.84C263.179 64.0133 262.166 65 261.099 65.8C260.033 66.6 258.939 67 257.819 67C256.699 67 255.659 66.68 254.699 66.04C253.739 65.4 253.126 64.4933 252.859 63.32C252.806 63.0533 252.753 62.8133 252.699 62.6C252.699 62.3333 252.699 62.0933 252.699 61.88C252.699 60.4933 253.019 59.16 253.659 57.88C254.353 56.5467 254.993 55.2667 255.579 54.04C255.419 54.04 255.233 53.9867 255.019 53.88C254.859 53.7733 254.779 53.6133 254.779 53.4C254.779 53.1867 254.833 52.9733 254.939 52.76C255.099 52.4933 255.179 52.3333 255.179 52.28C255.233 52.1733 255.313 51.9867 255.419 51.72C255.579 51.4 255.873 50.8133 256.299 49.96C256.779 48.9467 257.366 47.7467 258.059 46.36C258.806 44.9733 259.446 43.7467 259.979 42.68C260.566 41.6133 260.859 41.08 260.859 41.08C261.446 39.9067 262.459 39.32 263.899 39.32H268.859C267.953 40.0133 267.126 40.7867 266.379 41.64C265.686 42.44 264.806 43.9333 263.739 46.12C263.739 46.12 263.553 46.4933 263.179 47.24C262.806 47.9867 262.326 48.92 261.739 50.04C261.206 51.16 260.646 52.3067 260.059 53.48C259.526 54.6533 259.073 55.6667 258.699 56.52C258.166 57.6933 257.766 58.7867 257.499 59.8C257.233 60.8133 257.099 61.6933 257.099 62.44C257.099 64.3067 257.713 65.24 258.939 65.24C259.793 65.24 260.753 64.7067 261.819 63.64C263.046 62.4667 264.299 60.84 265.579 58.76C266.913 56.6267 268.193 54.3867 269.419 52.04C270.646 49.6933 271.739 47.5333 272.699 45.56C273.659 43.5333 274.379 42.04 274.859 41.08C275.126 40.4933 275.473 40.0667 275.899 39.8C276.379 39.48 277.046 39.32 277.899 39.32H282.779C282.459 39.64 281.979 39.9867 281.339 40.36C280.753 40.7333 280.166 41.4 279.579 42.36C278.833 43.64 278.166 44.84 277.579 45.96C276.993 47.0267 276.193 48.6533 275.179 50.84C274.966 51.32 274.539 52.2533 273.899 53.64C273.313 55.0267 272.753 56.5467 272.219 58.2C271.686 59.8533 271.419 61.3467 271.419 62.68C271.419 63.5333 271.606 64.2267 271.979 64.76C272.353 65.2933 272.966 65.56 273.819 65.56C275.313 65.56 276.726 64.92 278.059 63.64C279.446 62.36 280.753 60.6533 281.979 58.52C283.206 56.3867 284.299 54.0667 285.259 51.56C284.619 49.96 284.299 48.2267 284.299 46.36C284.299 45.24 284.406 44.28 284.619 43.48C285.259 41.4 286.113 39.9067 287.179 39C288.246 38.0933 289.179 37.64 289.979 37.64C290.886 37.64 291.339 38.0933 291.339 39C291.339 39.2133 291.259 39.5333 291.099 39.96C290.993 39.96 290.939 40.0667 290.939 40.28C290.619 41.3467 290.139 42.9467 289.499 45.08C288.859 47.2133 288.033 49.5333 287.019 52.04C286.006 54.5467 284.806 56.9467 283.419 59.24C282.086 61.5333 280.566 63.4267 278.859 64.92C277.153 66.4133 275.233 67.16 273.099 67.16ZM295.383 67.32C292.769 67.32 290.903 66.6533 289.783 65.32C288.716 63.9333 288.182 62.4933 288.182 61C288.182 59.7733 288.476 58.6533 289.062 57.64C289.703 56.6267 290.449 56.0933 291.303 56.04C292.369 53.96 293.516 51.6933 294.743 49.24C296.023 46.7867 297.196 44.4133 298.263 42.12C299.009 40.5733 299.943 39.08 301.063 37.64C302.236 36.2 303.516 35.3733 304.903 35.16H305.703C306.129 35.16 306.503 35.1867 306.823 35.24C307.196 35.2933 307.569 35.4 307.943 35.56C308.529 35.8267 308.823 36.2267 308.823 36.76C308.823 37.08 308.636 37.24 308.263 37.24C308.103 37.24 307.889 37.16 307.623 37C306.983 36.7333 306.423 36.6 305.943 36.6C305.623 36.6 305.329 36.68 305.063 36.84C304.049 37.3733 303.329 38.12 302.903 39.08C302.529 40.04 302.343 41.0533 302.343 42.12C302.343 42.9733 302.423 43.8533 302.583 44.76C302.796 45.6133 303.036 46.3867 303.303 47.08C303.889 48.5733 304.503 50.04 305.143 51.48C305.836 52.92 306.183 54.4667 306.183 56.12C306.183 57.72 305.649 59.4267 304.583 61.24C303.516 63 302.156 64.4133 300.503 65.48L301.063 65.56C301.329 65.6133 301.516 65.64 301.623 65.64C301.729 65.64 301.809 65.64 301.863 65.64C303.089 65.64 304.236 65.2933 305.303 64.6C306.423 63.8533 307.409 62.9467 308.263 61.88C309.116 60.8133 310.076 59.32 311.143 57.4C312.263 55.48 313.329 53.4533 314.343 51.32C314.503 51.0533 314.689 50.92 314.903 50.92C315.169 50.92 315.356 51.0267 315.463 51.24C315.623 51.4 315.649 51.6133 315.543 51.88C314.849 53.3733 314.049 55 313.143 56.76C312.289 58.4667 311.303 60.12 310.182 61.72C309.063 63.2667 307.756 64.5467 306.263 65.56C304.823 66.52 303.196 67 301.383 67C300.956 67 300.503 66.9733 300.023 66.92C299.543 66.8667 299.063 66.76 298.583 66.6C298.049 66.8133 297.489 66.9733 296.903 67.08C296.369 67.24 295.863 67.32 295.383 67.32ZM297.783 64.92C298.689 64.1733 299.489 63.08 300.183 61.64C300.929 60.2 301.303 58.3067 301.303 55.96C301.303 53.88 301.089 51.6667 300.663 49.32C300.236 46.9733 300.023 44.8933 300.023 43.08C300.023 42.7067 300.023 42.3867 300.023 42.12C300.076 41.8 300.129 41.5067 300.183 41.24C299.489 42.68 298.689 44.36 297.783 46.28C296.876 48.1467 295.969 49.96 295.063 51.72C294.156 53.48 293.383 54.9733 292.743 56.2C292.743 56.2 292.876 56.2267 293.143 56.28C293.463 56.28 293.756 56.4667 294.023 56.84C294.289 57.16 294.396 57.8267 294.342 58.84C294.289 60.1733 294.583 61.4267 295.223 62.6C295.916 63.72 296.769 64.4933 297.783 64.92ZM294.743 66.04C295.063 66.04 295.356 66.0133 295.623 65.96C295.889 65.8533 296.129 65.7733 296.343 65.72C295.543 65.1333 294.823 64.36 294.183 63.4C293.596 62.3867 293.249 61.1067 293.143 59.56C292.183 60.5733 291.702 61.6667 291.702 62.84C291.702 63.6933 291.969 64.44 292.503 65.08C293.036 65.72 293.783 66.04 294.743 66.04ZM318.009 67C316.516 67 315.183 66.4933 314.009 65.48C312.836 64.4133 312.249 62.76 312.249 60.52C312.249 58.76 312.569 56.6 313.209 54.04C313.903 51.4267 314.729 48.7333 315.689 45.96C316.703 43.1333 317.689 40.5733 318.649 38.28H314.409C314.036 38.28 313.849 38.0133 313.849 37.48C313.849 37.2133 313.903 36.9733 314.009 36.76C314.169 36.5467 314.383 36.44 314.649 36.44H319.449C320.356 34.4133 321.316 32.44 322.329 30.52C323.343 28.6 324.329 26.7867 325.289 25.08C326.516 22.9467 327.823 21.3467 329.209 20.28C330.596 19.2133 331.796 18.68 332.809 18.68C333.609 18.68 334.276 19 334.809 19.64C335.343 20.2267 335.609 21.1333 335.609 22.36C335.609 23.1067 335.449 24.1467 335.129 25.48C334.809 26.76 334.303 28.12 333.609 29.56C333.236 30.3067 332.703 31.3733 332.009 32.76C331.369 34.1467 330.729 35.3733 330.089 36.44H333.929C334.303 36.44 334.489 36.7067 334.489 37.24C334.489 37.4533 334.436 37.6933 334.329 37.96C334.223 38.1733 334.063 38.28 333.849 38.28H329.129C327.796 40.5733 326.276 42.8133 324.569 45C322.863 47.1867 320.836 49.3733 318.489 51.56C318.329 52.04 318.116 52.7333 317.849 53.64C317.636 54.5467 317.423 55.48 317.209 56.44C317.049 57.3467 316.889 58.12 316.729 58.76C316.623 59.4 316.569 59.72 316.569 59.72C316.409 60.4133 316.329 61.0533 316.329 61.64C316.329 62.76 316.596 63.5867 317.129 64.12C317.663 64.6 318.276 64.84 318.969 64.84C319.396 64.84 319.823 64.7867 320.249 64.68C320.676 64.52 321.156 64.2533 321.689 63.88C323.556 62.5467 325.183 60.7333 326.569 58.44C328.009 56.1467 329.263 53.9333 330.329 51.8C330.649 51.16 330.969 50.84 331.289 50.84C331.503 50.84 331.609 51 331.609 51.32C331.609 51.48 331.529 51.7733 331.369 52.2C330.196 54.6533 329.209 56.6267 328.409 58.12C327.609 59.6133 326.836 60.8667 326.089 61.88C325.343 62.84 324.463 63.8 323.449 64.76C322.703 65.5067 321.849 66.0667 320.889 66.44C319.929 66.8133 318.969 67 318.009 67ZM324.329 36.44H328.409C329.156 35.0533 329.849 33.6933 330.489 32.36C331.183 31.0267 331.796 29.6933 332.329 28.36C332.703 27.5067 333.023 26.5467 333.289 25.48C333.556 24.4133 333.689 23.5867 333.689 23C333.689 22.2 333.503 21.8 333.129 21.8C332.863 21.8 332.463 22.04 331.929 22.52C331.449 22.9467 330.836 23.6933 330.089 24.76C329.129 26.0933 328.169 27.8267 327.209 29.96C326.303 32.04 325.343 34.2 324.329 36.44ZM319.129 49C320.676 47.4 322.116 45.6933 323.449 43.88C324.836 42.0667 326.116 40.2 327.289 38.28H323.529C322.676 40.2533 321.876 42.1733 321.129 44.04C320.383 45.9067 319.716 47.56 319.129 49ZM347.463 67.24C346.876 67.2933 346.21 67.16 345.463 66.84C344.716 66.52 344.05 65.9333 343.463 65.08C342.93 64.2267 342.663 63.0267 342.663 61.48C342.663 60.2 342.903 58.6533 343.383 56.84C342.743 57.8533 341.916 59.1067 340.903 60.6C339.89 62.04 338.796 63.32 337.623 64.44C336.61 65.4 335.65 66.0933 334.743 66.52C333.836 66.9467 333.01 67.16 332.263 67.16C330.876 67.16 329.756 66.5467 328.903 65.32C328.05 64.04 327.623 62.3867 327.623 60.36C327.623 58.2267 328.156 55.8 329.223 53.08C330.29 50.36 332.023 47.5333 334.423 44.6C335.97 42.7333 337.836 41.24 340.023 40.12C342.263 38.9467 344.45 38.36 346.583 38.36C347.81 38.36 348.983 38.5733 350.103 39C351.223 39.3733 352.21 40.0133 353.063 40.92C353.436 41.2933 353.623 41.72 353.623 42.2C353.623 42.52 353.49 42.7867 353.223 43C352.956 43.2133 352.61 43.2667 352.183 43.16C351.596 41.2933 350.343 40.36 348.423 40.36C347.516 40.36 346.476 40.6533 345.303 41.24C343.49 42.2 341.596 43.7733 339.623 45.96C337.703 48.1467 336.023 50.4133 334.583 52.76C334.37 53.08 334.023 53.6933 333.543 54.6C333.116 55.5067 332.69 56.52 332.263 57.64C331.836 58.76 331.543 59.8533 331.383 60.92C331.33 61.24 331.303 61.48 331.303 61.64C331.303 61.7467 331.303 61.9333 331.303 62.2C331.303 63.96 331.97 64.84 333.303 64.84C334.903 64.84 336.716 63.6667 338.743 61.32C340.13 59.6133 341.383 57.8267 342.503 55.96C343.623 54.0933 344.77 52.0933 345.943 49.96C346.743 48.52 347.49 47.32 348.183 46.36C348.876 45.4 349.863 44.92 351.143 44.92C351.73 44.92 352.316 45 352.903 45.16C353.49 45.32 354.103 45.3467 354.743 45.24C354.316 45.6667 353.73 46.4667 352.983 47.64C352.29 48.8133 351.543 50.1467 350.743 51.64C349.943 53.1333 349.223 54.6533 348.583 56.2C347.943 57.7467 347.49 59.08 347.223 60.2C347.17 60.52 347.09 60.9733 346.983 61.56C346.93 62.1467 346.903 62.5733 346.903 62.84C346.903 64.3333 347.33 65.08 348.183 65.08C349.036 65.08 349.943 64.5733 350.903 63.56C351.916 62.5467 352.903 61.2933 353.863 59.8C354.823 58.3067 355.703 56.8133 356.503 55.32C357.303 53.7733 357.943 52.52 358.423 51.56C358.636 51.0267 358.956 50.76 359.383 50.76C359.65 50.76 359.783 50.9467 359.783 51.32C359.783 51.48 359.703 51.7733 359.543 52.2C358.903 53.5333 358.13 55.0533 357.223 56.76C356.316 58.4133 355.33 60.04 354.263 61.64C353.196 63.1867 352.076 64.4933 350.903 65.56C349.783 66.5733 348.636 67.1333 347.463 67.24ZM367.828 67.08C366.815 67.08 365.801 66.68 364.788 65.88C363.775 65.0267 363.268 63.6667 363.268 61.8C363.268 60.36 363.615 58.7067 364.308 56.84C364.948 55.0267 365.801 53.2667 366.868 51.56C367.988 49.8533 368.788 48.4667 369.268 47.4C369.428 46.9733 369.508 46.6 369.508 46.28C369.508 45.32 368.895 44.6267 367.668 44.2C366.495 43.7733 364.948 43.5333 363.028 43.48L362.068 46.12C361.481 47.8267 360.655 49.8267 359.588 52.12C358.575 54.4133 357.428 56.6267 356.148 58.76C354.921 60.8933 353.641 62.6 352.308 63.88C352.201 63.9867 352.068 64.04 351.908 64.04C351.695 64.04 351.561 63.9067 351.508 63.64C351.401 63.3733 351.508 63.0533 351.828 62.68C353.908 59.9067 355.775 56.84 357.428 53.48C359.081 50.0667 360.468 46.6 361.588 43.08C362.761 39.56 363.615 36.3067 364.148 33.32C364.308 32.4667 364.601 31.8533 365.028 31.48C365.455 31.0533 365.908 30.84 366.388 30.84C367.081 30.84 367.721 31.1867 368.308 31.88C368.895 32.52 369.188 33.4533 369.188 34.68C369.188 34.8933 369.161 35.1333 369.108 35.4C369.108 35.6667 369.081 35.9333 369.028 36.2C368.815 37.32 368.175 38.3867 367.108 39.4C366.095 40.36 365.268 41.08 364.628 41.56C365.161 41.6133 365.721 41.6667 366.308 41.72C366.895 41.72 367.535 41.72 368.228 41.72C370.735 41.72 373.215 41.56 375.668 41.24C375.775 41.56 375.828 41.8 375.828 41.96C375.828 42.6533 375.615 43.5333 375.188 44.6C374.815 45.6667 374.415 46.6267 373.988 47.48C373.775 47.96 373.348 48.84 372.708 50.12C372.068 51.3467 371.375 52.76 370.628 54.36C369.881 55.9067 369.241 57.4533 368.708 59C368.228 60.4933 367.988 61.7733 367.988 62.84C367.988 64.2267 368.521 64.92 369.588 64.92C370.388 64.92 371.268 64.4133 372.228 63.4C373.188 62.3333 374.121 61.0533 375.028 59.56C375.988 58.0133 376.841 56.52 377.588 55.08C378.388 53.5867 379.001 52.4133 379.428 51.56C379.641 51.0267 379.935 50.76 380.308 50.76C380.521 50.76 380.628 50.9467 380.628 51.32C380.628 51.5333 380.548 51.8533 380.388 52.28C379.801 53.5067 379.108 54.8933 378.308 56.44C377.508 57.9867 376.601 59.5067 375.588 61C374.628 62.4933 373.561 63.8 372.388 64.92C371.268 65.9867 370.041 66.68 368.708 67C368.548 67.0533 368.255 67.08 367.828 67.08ZM188.613 112.024C186.672 112.024 184.933 111.736 183.397 111.16C181.883 110.605 180.688 109.784 179.813 108.696C178.939 107.608 178.501 106.285 178.501 104.728C178.501 103.661 178.747 102.477 179.237 101.176C179.515 100.451 179.931 99.7787 180.485 99.16C181.061 98.52 181.648 97.9973 182.245 97.592C182.843 97.1867 183.312 96.9733 183.653 96.952H183.749C183.941 96.952 184.037 96.984 184.037 97.048C184.037 97.1547 183.899 97.272 183.621 97.4C183.28 97.5493 182.843 97.8693 182.309 98.36C181.797 98.8507 181.307 99.4587 180.837 100.184C180.368 100.888 180.016 101.688 179.781 102.584C179.696 102.883 179.632 103.181 179.589 103.48C179.568 103.779 179.557 104.067 179.557 104.344C179.557 105.496 179.824 106.488 180.357 107.32C180.912 108.152 181.637 108.835 182.533 109.368C183.451 109.923 184.453 110.328 185.541 110.584C186.629 110.861 187.717 111 188.805 111C189.296 111 189.776 110.968 190.245 110.904C190.736 110.861 191.195 110.787 191.621 110.68C193.499 110.211 195.205 109.496 196.741 108.536C198.277 107.576 199.653 106.477 200.869 105.24C202.107 104.003 203.184 102.723 204.101 101.4C205.019 100.056 205.797 98.7653 206.437 97.528C207.077 96.2907 207.568 95.192 207.909 94.232C208.549 92.5253 209.189 90.9573 209.829 89.528C210.491 88.0987 211.088 86.8933 211.621 85.912C212.155 84.9093 212.539 84.216 212.773 83.832C211.621 84.088 210.384 84.3867 209.061 84.728C207.76 85.048 206.469 85.464 205.189 85.976C203.909 86.4667 202.704 87.0747 201.573 87.8C200.464 88.5253 199.515 89.4 198.725 90.424C197.936 91.448 197.381 92.6533 197.061 94.04C196.955 94.5307 196.901 94.9573 196.901 95.32C196.901 96.2587 197.125 97.0267 197.573 97.624C198.043 98.2 198.672 98.488 199.461 98.488C199.909 98.488 200.368 98.392 200.837 98.2C201.627 97.88 202.235 97.464 202.661 96.952C203.109 96.4187 203.419 95.8747 203.589 95.32C203.76 94.744 203.845 94.232 203.845 93.784C203.845 93.144 203.749 92.7493 203.557 92.6C203.557 92.5787 203.547 92.568 203.525 92.568C203.525 92.568 203.525 92.5573 203.525 92.536C203.525 92.4293 203.568 92.3227 203.653 92.216C203.76 92.1093 203.867 92.056 203.973 92.056C204.08 92.056 204.165 92.1307 204.229 92.28C204.485 92.792 204.613 93.3253 204.613 93.88C204.613 94.5627 204.443 95.2453 204.101 95.928C203.781 96.6107 203.333 97.2187 202.757 97.752C202.203 98.2853 201.584 98.68 200.901 98.936C200.261 99.192 199.621 99.32 198.981 99.32C197.829 99.32 196.837 98.936 196.005 98.168C195.195 97.3787 194.789 96.3653 194.789 95.128C194.789 94.744 194.832 94.3813 194.917 94.04C195.259 92.5253 195.909 91.2027 196.869 90.072C197.829 88.9413 198.992 87.9707 200.357 87.16C201.723 86.3493 203.163 85.6773 204.677 85.144C206.213 84.5893 207.728 84.1413 209.221 83.8C210.715 83.4587 212.069 83.1813 213.285 82.968C213.371 82.7973 213.541 82.5307 213.797 82.168C214.053 81.784 214.352 81.4213 214.693 81.08C215.035 80.7173 215.376 80.4827 215.717 80.376C215.973 80.2907 216.251 80.248 216.549 80.248C216.848 80.248 217.093 80.3227 217.285 80.472C217.477 80.6213 217.573 80.856 217.573 81.176C217.573 81.7947 217.307 82.264 216.773 82.584C216.261 82.8827 215.696 83.1493 215.077 83.384C214.885 83.384 214.651 83.4373 214.373 83.544C214.117 83.6293 213.915 83.672 213.765 83.672C212.976 85.1013 212.325 86.5093 211.813 87.896C211.301 89.2827 210.832 90.648 210.405 91.992C210 93.3147 209.573 94.6373 209.125 95.96C208.677 97.2613 208.123 98.5733 207.461 99.896C206.8 101.197 205.957 102.509 204.933 103.832C203.184 106.093 201.211 107.875 199.013 109.176C196.837 110.477 194.587 111.32 192.261 111.704C191.621 111.811 190.992 111.885 190.373 111.928C189.755 111.992 189.168 112.024 188.613 112.024ZM214.309 82.84C215.141 82.6693 215.696 82.4773 215.973 82.264C216.272 82.0507 216.421 81.8587 216.421 81.688C216.421 81.56 216.379 81.464 216.293 81.4C216.208 81.3147 216.123 81.272 216.037 81.272C215.931 81.2293 215.771 81.304 215.557 81.496C215.344 81.6667 215.12 81.8907 214.885 82.168C214.672 82.424 214.48 82.648 214.309 82.84ZM207.205 107.256C207.973 105.699 208.709 104.163 209.413 102.648C210.138 101.112 210.874 99.6507 211.621 98.264C212.048 97.496 212.4 96.9627 212.677 96.664C212.976 96.344 213.37 96.184 213.861 96.184C214.032 96.184 214.213 96.216 214.405 96.28C214.597 96.3227 214.789 96.344 214.981 96.344C215.109 96.344 215.205 96.3333 215.269 96.312C214.97 96.4827 214.586 96.9093 214.117 97.592C213.648 98.2533 213.168 99.0213 212.677 99.896C212.186 100.771 211.749 101.592 211.365 102.36C211.77 101.869 212.186 101.379 212.613 100.888C213.061 100.397 213.552 99.928 214.085 99.48C214.597 99.032 215.205 98.5733 215.909 98.104C216.634 97.6133 217.338 97.208 218.021 96.888C218.704 96.568 219.248 96.408 219.653 96.408C219.802 96.408 219.909 96.4187 219.973 96.44C219.973 96.44 219.856 96.6533 219.621 97.08C219.386 97.4853 219.088 98.0293 218.725 98.712C218.384 99.3733 218.032 100.088 217.669 100.856C217.306 101.603 216.976 102.328 216.677 103.032C216.4 103.715 216.218 104.291 216.133 104.76C216.069 105.037 216.037 105.293 216.037 105.528C216.037 105.869 216.101 106.093 216.229 106.2C216.357 106.307 216.496 106.36 216.645 106.36C217.05 106.36 217.477 106.147 217.925 105.72C218.373 105.272 218.8 104.728 219.205 104.088C219.632 103.448 220.005 102.829 220.325 102.232C220.666 101.613 220.912 101.144 221.061 100.824C221.146 100.653 221.21 100.557 221.253 100.536C221.296 100.493 221.36 100.472 221.445 100.472C221.573 100.472 221.637 100.557 221.637 100.728C221.637 100.835 221.605 100.952 221.541 101.08C221.285 101.571 220.976 102.157 220.613 102.84C220.272 103.523 219.877 104.195 219.429 104.856C218.981 105.496 218.49 106.04 217.957 106.488C217.424 106.915 216.848 107.128 216.229 107.128C215.802 107.128 215.354 106.979 214.885 106.68C214.437 106.381 214.213 105.827 214.213 105.016C214.213 104.781 214.234 104.536 214.277 104.28C214.32 104.003 214.394 103.704 214.501 103.384C214.672 102.957 214.874 102.499 215.109 102.008C215.344 101.517 215.728 100.845 216.261 99.992C216.41 99.7573 216.496 99.576 216.517 99.448C216.56 99.32 216.581 99.2133 216.581 99.128C216.581 98.872 216.464 98.744 216.229 98.744C216.037 98.744 215.749 98.8507 215.365 99.064C215.002 99.2773 214.544 99.6507 213.989 100.184C213.456 100.696 212.816 101.421 212.069 102.36C211.344 103.299 210.501 104.685 209.541 106.52C209.392 106.797 209.221 106.947 209.029 106.968C208.858 106.989 208.613 107.011 208.293 107.032C208.08 107.053 207.877 107.064 207.685 107.064C207.493 107.085 207.333 107.149 207.205 107.256ZM222.147 107.224C221.486 107.224 221.027 107.053 220.771 106.712C220.515 106.371 220.387 105.933 220.387 105.4C220.387 104.845 220.483 104.216 220.675 103.512C220.888 102.808 221.112 102.115 221.347 101.432C221.198 101.645 221.048 101.752 220.899 101.752C220.814 101.752 220.75 101.709 220.707 101.624C220.664 101.539 220.675 101.443 220.739 101.336C220.846 101.144 220.952 100.963 221.059 100.792C221.166 100.6 221.262 100.408 221.347 100.216C221.518 99.8533 221.656 99.4267 221.763 98.936C221.891 98.424 221.955 97.9547 221.955 97.528C221.955 97.1867 221.912 96.8987 221.827 96.664C221.742 96.4293 221.614 96.2907 221.443 96.248C221.443 96.248 221.55 96.2267 221.763 96.184C221.998 96.1413 222.243 96.0987 222.499 96.056C222.755 96.0133 222.926 95.992 223.011 95.992C223.139 95.9707 223.256 95.96 223.363 95.96C223.47 95.9387 223.566 95.928 223.651 95.928C223.864 95.928 224.003 96.0133 224.067 96.184C224.152 96.3547 224.184 96.728 224.163 97.304C224.142 97.8373 224.035 98.488 223.843 99.256C223.651 100.003 223.448 100.653 223.235 101.208C222.958 101.933 222.702 102.669 222.467 103.416C222.232 104.163 222.115 104.781 222.115 105.272C222.115 105.699 222.232 105.976 222.467 106.104C222.638 106.168 222.787 106.2 222.915 106.2C223.406 106.2 223.886 105.955 224.355 105.464C224.846 104.973 225.315 104.323 225.763 103.512C226.211 102.68 226.627 101.795 227.011 100.856C226.862 100.557 226.755 100.227 226.691 99.864C226.627 99.5013 226.595 99.1493 226.595 98.808C226.595 98.4027 226.648 98.0187 226.755 97.656C227.011 96.8027 227.363 96.1947 227.811 95.832C228.28 95.448 228.675 95.256 228.995 95.256C229.4 95.256 229.603 95.4373 229.603 95.8C229.603 95.8853 229.571 96.0133 229.507 96.184C229.464 96.2267 229.443 96.2907 229.443 96.376C229.294 96.824 229.07 97.4747 228.771 98.328C228.494 99.1813 228.142 100.12 227.715 101.144C227.31 102.147 226.819 103.117 226.243 104.056C225.688 104.973 225.07 105.731 224.387 106.328C223.704 106.925 222.958 107.224 222.147 107.224ZM231.705 107.128C230.915 107.128 230.201 106.872 229.561 106.36C228.942 105.848 228.633 105.069 228.633 104.024C228.633 103.064 228.867 102.04 229.337 100.952C229.806 99.8427 230.403 98.872 231.129 98.04C231.747 97.3147 232.441 96.7173 233.209 96.248C233.977 95.7787 234.702 95.544 235.385 95.544C235.854 95.544 236.259 95.672 236.601 95.928C236.963 96.2053 237.145 96.6 237.145 97.112C237.145 97.6453 236.942 98.232 236.537 98.872C236.131 99.512 235.555 100.109 234.809 100.664C234.489 100.899 234.083 101.123 233.593 101.336C233.102 101.549 232.611 101.731 232.121 101.88C231.63 102.008 231.225 102.072 230.905 102.072C230.798 102.328 230.691 102.669 230.585 103.096C230.499 103.523 230.457 103.96 230.457 104.408C230.457 104.941 230.563 105.421 230.777 105.848C230.99 106.275 231.385 106.488 231.961 106.488C232.665 106.488 233.305 106.285 233.881 105.88C234.457 105.475 234.969 104.973 235.417 104.376C235.865 103.757 236.238 103.139 236.537 102.52C236.857 101.901 237.113 101.379 237.305 100.952C237.433 100.653 237.603 100.504 237.817 100.504C237.923 100.504 237.977 100.557 237.977 100.664C237.977 100.749 237.945 100.856 237.881 100.984C237.582 101.624 237.262 102.307 236.921 103.032C236.579 103.736 236.174 104.408 235.705 105.048C235.235 105.667 234.67 106.168 234.009 106.552C233.369 106.936 232.601 107.128 231.705 107.128ZM231.129 101.496C231.427 101.496 231.929 101.389 232.633 101.176C233.337 100.941 233.977 100.579 234.553 100.088C235.107 99.5973 235.534 99.064 235.833 98.488C236.131 97.8907 236.281 97.3893 236.281 96.984C236.281 96.5147 236.11 96.28 235.769 96.28C235.513 96.28 235.161 96.4507 234.713 96.792C234.265 97.1333 233.71 97.7093 233.049 98.52C232.643 99.032 232.259 99.5867 231.897 100.184C231.534 100.781 231.278 101.219 231.129 101.496ZM238.106 107.128C237.061 107.128 236.314 106.861 235.866 106.328C235.439 105.773 235.226 105.197 235.226 104.6C235.226 104.109 235.343 103.661 235.578 103.256C235.834 102.851 236.133 102.637 236.474 102.616C236.901 101.784 237.359 100.877 237.85 99.896C238.362 98.9147 238.831 97.9653 239.258 97.048C239.557 96.4293 239.93 95.832 240.378 95.256C240.847 94.68 241.359 94.3493 241.914 94.264H242.234C242.405 94.264 242.554 94.2747 242.682 94.296C242.831 94.3173 242.981 94.36 243.13 94.424C243.365 94.5307 243.482 94.6907 243.482 94.904C243.482 95.032 243.407 95.096 243.258 95.096C243.194 95.096 243.109 95.064 243.002 95C242.746 94.8933 242.522 94.84 242.33 94.84C242.202 94.84 242.085 94.872 241.978 94.936C241.573 95.1493 241.285 95.448 241.114 95.832C240.965 96.216 240.89 96.6213 240.89 97.048C240.89 97.3893 240.922 97.7413 240.986 98.104C241.071 98.4453 241.167 98.7547 241.274 99.032C241.509 99.6293 241.754 100.216 242.01 100.792C242.287 101.368 242.426 101.987 242.426 102.648C242.426 103.288 242.213 103.971 241.786 104.696C241.359 105.4 240.815 105.965 240.154 106.392L240.378 106.424C240.485 106.445 240.559 106.456 240.602 106.456C240.645 106.456 240.677 106.456 240.698 106.456C241.189 106.456 241.647 106.317 242.074 106.04C242.522 105.741 242.917 105.379 243.258 104.952C243.599 104.525 243.983 103.928 244.41 103.16C244.858 102.392 245.285 101.581 245.69 100.728C245.754 100.621 245.829 100.568 245.914 100.568C246.021 100.568 246.095 100.611 246.138 100.696C246.202 100.76 246.213 100.845 246.17 100.952C245.893 101.549 245.573 102.2 245.21 102.904C244.869 103.587 244.474 104.248 244.026 104.888C243.578 105.507 243.055 106.019 242.458 106.424C241.882 106.808 241.231 107 240.506 107C240.335 107 240.154 106.989 239.962 106.968C239.77 106.947 239.578 106.904 239.386 106.84C239.173 106.925 238.949 106.989 238.714 107.032C238.501 107.096 238.298 107.128 238.106 107.128ZM239.066 106.168C239.429 105.869 239.749 105.432 240.026 104.856C240.325 104.28 240.474 103.523 240.474 102.584C240.474 101.752 240.389 100.867 240.218 99.928C240.047 98.9893 239.962 98.1573 239.962 97.432C239.962 97.2827 239.962 97.1547 239.962 97.048C239.983 96.92 240.005 96.8027 240.026 96.696C239.749 97.272 239.429 97.944 239.066 98.712C238.703 99.4587 238.341 100.184 237.978 100.888C237.615 101.592 237.306 102.189 237.05 102.68C237.05 102.68 237.103 102.691 237.21 102.712C237.338 102.712 237.455 102.787 237.562 102.936C237.669 103.064 237.711 103.331 237.69 103.736C237.669 104.269 237.786 104.771 238.042 105.24C238.319 105.688 238.661 105.997 239.066 106.168ZM237.85 106.616C237.978 106.616 238.095 106.605 238.202 106.584C238.309 106.541 238.405 106.509 238.49 106.488C238.17 106.253 237.882 105.944 237.626 105.56C237.391 105.155 237.253 104.643 237.21 104.024C236.826 104.429 236.634 104.867 236.634 105.336C236.634 105.677 236.741 105.976 236.954 106.232C237.167 106.488 237.466 106.616 237.85 106.616ZM247.157 107C246.56 107 246.026 106.797 245.557 106.392C245.088 105.965 244.853 105.304 244.853 104.408C244.853 103.704 244.981 102.84 245.237 101.816C245.514 100.771 245.845 99.6933 246.229 98.584C246.634 97.4533 247.029 96.4293 247.413 95.512H245.717C245.568 95.512 245.493 95.4053 245.493 95.192C245.493 95.0853 245.514 94.9893 245.557 94.904C245.621 94.8187 245.706 94.776 245.813 94.776H247.733C248.096 93.9653 248.48 93.176 248.885 92.408C249.29 91.64 249.685 90.9147 250.069 90.232C250.56 89.3787 251.082 88.7387 251.637 88.312C252.192 87.8853 252.672 87.672 253.077 87.672C253.397 87.672 253.664 87.8 253.877 88.056C254.09 88.2907 254.197 88.6533 254.197 89.144C254.197 89.4427 254.133 89.8587 254.005 90.392C253.877 90.904 253.674 91.448 253.397 92.024C253.248 92.3227 253.034 92.7493 252.757 93.304C252.501 93.8587 252.245 94.3493 251.989 94.776H253.525C253.674 94.776 253.749 94.8827 253.749 95.096C253.749 95.1813 253.728 95.2773 253.685 95.384C253.642 95.4693 253.578 95.512 253.493 95.512H251.605C251.072 96.4293 250.464 97.3253 249.781 98.2C249.098 99.0747 248.288 99.9493 247.349 100.824C247.285 101.016 247.2 101.293 247.093 101.656C247.008 102.019 246.922 102.392 246.837 102.776C246.773 103.139 246.709 103.448 246.645 103.704C246.602 103.96 246.581 104.088 246.581 104.088C246.517 104.365 246.485 104.621 246.485 104.856C246.485 105.304 246.592 105.635 246.805 105.848C247.018 106.04 247.264 106.136 247.541 106.136C247.712 106.136 247.882 106.115 248.053 106.072C248.224 106.008 248.416 105.901 248.629 105.752C249.376 105.219 250.026 104.493 250.581 103.576C251.157 102.659 251.658 101.773 252.085 100.92C252.213 100.664 252.341 100.536 252.469 100.536C252.554 100.536 252.597 100.6 252.597 100.728C252.597 100.792 252.565 100.909 252.501 101.08C252.032 102.061 251.637 102.851 251.317 103.448C250.997 104.045 250.688 104.547 250.389 104.952C250.09 105.336 249.738 105.72 249.333 106.104C249.034 106.403 248.693 106.627 248.309 106.776C247.925 106.925 247.541 107 247.157 107ZM249.685 94.776H251.317C251.616 94.2213 251.893 93.6773 252.149 93.144C252.426 92.6107 252.672 92.0773 252.885 91.544C253.034 91.2027 253.162 90.8187 253.269 90.392C253.376 89.9653 253.429 89.6347 253.429 89.4C253.429 89.08 253.354 88.92 253.205 88.92C253.098 88.92 252.938 89.016 252.725 89.208C252.533 89.3787 252.288 89.6773 251.989 90.104C251.605 90.6373 251.221 91.3307 250.837 92.184C250.474 93.016 250.09 93.88 249.685 94.776ZM247.605 99.8C248.224 99.16 248.8 98.4773 249.333 97.752C249.888 97.0267 250.4 96.28 250.869 95.512H249.365C249.024 96.3013 248.704 97.0693 248.405 97.816C248.106 98.5627 247.84 99.224 247.605 99.8ZM249.018 107.16C249.808 105.645 250.554 104.131 251.258 102.616C251.962 101.08 252.677 99.6293 253.402 98.264C253.829 97.496 254.181 96.9627 254.458 96.664C254.757 96.344 255.152 96.184 255.642 96.184C255.813 96.184 255.994 96.216 256.186 96.28C256.378 96.3227 256.57 96.344 256.762 96.344C256.89 96.344 256.986 96.3333 257.05 96.312C256.752 96.4827 256.368 96.9093 255.898 97.592C255.429 98.2533 254.949 99.0213 254.458 99.896C253.968 100.771 253.53 101.592 253.146 102.36C253.552 101.869 253.968 101.379 254.394 100.888C254.842 100.397 255.333 99.928 255.866 99.48C256.336 99.0747 256.826 98.6373 257.338 98.168C257.872 97.6773 258.394 97.2613 258.906 96.92C259.418 96.5787 259.866 96.408 260.25 96.408C260.4 96.408 260.496 96.4187 260.538 96.44C260.944 96.6107 261.146 96.888 261.146 97.272C261.146 97.4 261.093 97.592 260.986 97.848C260.709 98.5733 260.346 99.32 259.898 100.088C259.472 100.835 259.066 101.592 258.682 102.36C259.002 101.976 259.397 101.507 259.866 100.952C260.357 100.397 260.848 99.9067 261.338 99.48C261.808 99.0533 262.405 98.6053 263.13 98.136C263.856 97.6667 264.57 97.2613 265.274 96.92C265.978 96.5787 266.544 96.408 266.97 96.408C267.12 96.408 267.226 96.4187 267.29 96.44C267.29 96.44 267.173 96.6533 266.938 97.08C266.704 97.4853 266.405 98.0293 266.042 98.712C265.701 99.3733 265.349 100.088 264.986 100.856C264.624 101.603 264.293 102.328 263.994 103.032C263.717 103.715 263.536 104.291 263.45 104.76C263.386 105.037 263.354 105.293 263.354 105.528C263.354 105.869 263.418 106.093 263.546 106.2C263.674 106.307 263.813 106.36 263.962 106.36C264.389 106.36 264.826 106.136 265.274 105.688C265.722 105.24 266.149 104.707 266.554 104.088C266.981 103.448 267.354 102.829 267.674 102.232C267.994 101.613 268.229 101.144 268.378 100.824C268.506 100.589 268.634 100.472 268.762 100.472C268.89 100.472 268.954 100.557 268.954 100.728C268.954 100.835 268.922 100.952 268.858 101.08C268.602 101.571 268.293 102.157 267.93 102.84C267.589 103.523 267.194 104.195 266.746 104.856C266.298 105.496 265.797 106.04 265.242 106.488C264.709 106.915 264.133 107.128 263.514 107.128C263.066 107.128 262.608 106.979 262.138 106.68C261.69 106.381 261.466 105.827 261.466 105.016C261.466 104.568 261.562 104.024 261.754 103.384C261.904 102.957 262.128 102.467 262.426 101.912C262.746 101.357 263.13 100.717 263.578 99.992C263.792 99.6293 263.898 99.3413 263.898 99.128C263.898 98.872 263.77 98.744 263.514 98.744C263.301 98.744 263.002 98.8507 262.618 99.064C262.256 99.2773 261.797 99.6507 261.242 100.184C260.901 100.504 260.496 100.952 260.026 101.528C259.578 102.083 259.12 102.691 258.65 103.352C258.181 104.013 257.776 104.664 257.434 105.304C257.093 105.944 256.869 106.509 256.762 107C256.442 107 256.186 106.872 255.994 106.616C255.802 106.339 255.706 106.019 255.706 105.656C255.706 105.592 255.706 105.528 255.706 105.464C255.706 105.4 255.717 105.325 255.738 105.24C255.845 104.579 256.016 103.96 256.25 103.384C256.485 102.808 256.752 102.211 257.05 101.592C257.285 101.144 257.52 100.664 257.754 100.152C257.989 99.6187 258.106 99.2133 258.106 98.936C258.106 98.7653 258.042 98.68 257.914 98.68C257.765 98.68 257.52 98.7973 257.178 99.032C256.837 99.2453 256.368 99.6293 255.77 100.184C255.237 100.696 254.586 101.432 253.818 102.392C253.072 103.352 252.25 104.717 251.354 106.488C251.226 106.723 251.077 106.872 250.906 106.936C250.736 106.979 250.469 107 250.106 107C249.872 107 249.68 107 249.53 107C249.36 107.021 249.189 107.075 249.018 107.16ZM270.58 107.128C269.79 107.128 269.076 106.872 268.436 106.36C267.817 105.848 267.508 105.069 267.508 104.024C267.508 103.064 267.742 102.04 268.212 100.952C268.681 99.8427 269.278 98.872 270.004 98.04C270.622 97.3147 271.316 96.7173 272.084 96.248C272.852 95.7787 273.577 95.544 274.26 95.544C274.729 95.544 275.134 95.672 275.476 95.928C275.838 96.2053 276.02 96.6 276.02 97.112C276.02 97.6453 275.817 98.232 275.412 98.872C275.006 99.512 274.43 100.109 273.684 100.664C273.364 100.899 272.958 101.123 272.468 101.336C271.977 101.549 271.486 101.731 270.996 101.88C270.505 102.008 270.1 102.072 269.78 102.072C269.673 102.328 269.566 102.669 269.46 103.096C269.374 103.523 269.332 103.96 269.332 104.408C269.332 104.941 269.438 105.421 269.652 105.848C269.865 106.275 270.26 106.488 270.836 106.488C271.54 106.488 272.18 106.285 272.756 105.88C273.332 105.475 273.844 104.973 274.292 104.376C274.74 103.757 275.113 103.139 275.412 102.52C275.732 101.901 275.988 101.379 276.18 100.952C276.308 100.653 276.478 100.504 276.692 100.504C276.798 100.504 276.852 100.557 276.852 100.664C276.852 100.749 276.82 100.856 276.756 100.984C276.457 101.624 276.137 102.307 275.796 103.032C275.454 103.736 275.049 104.408 274.58 105.048C274.11 105.667 273.545 106.168 272.884 106.552C272.244 106.936 271.476 107.128 270.58 107.128ZM270.004 101.496C270.302 101.496 270.804 101.389 271.508 101.176C272.212 100.941 272.852 100.579 273.428 100.088C273.982 99.5973 274.409 99.064 274.708 98.488C275.006 97.8907 275.156 97.3893 275.156 96.984C275.156 96.5147 274.985 96.28 274.644 96.28C274.388 96.28 274.036 96.4507 273.588 96.792C273.14 97.1333 272.585 97.7093 271.924 98.52C271.518 99.032 271.134 99.5867 270.772 100.184C270.409 100.781 270.153 101.219 270.004 101.496ZM273.205 107.256C273.973 105.699 274.709 104.163 275.413 102.648C276.138 101.112 276.874 99.6507 277.621 98.264C278.048 97.496 278.4 96.9627 278.677 96.664C278.976 96.344 279.37 96.184 279.861 96.184C280.032 96.184 280.213 96.216 280.405 96.28C280.597 96.3227 280.789 96.344 280.981 96.344C281.109 96.344 281.205 96.3333 281.269 96.312C280.97 96.4827 280.586 96.9093 280.117 97.592C279.648 98.2533 279.168 99.0213 278.677 99.896C278.186 100.771 277.749 101.592 277.365 102.36C277.77 101.869 278.186 101.379 278.613 100.888C279.061 100.397 279.552 99.928 280.085 99.48C280.597 99.032 281.205 98.5733 281.909 98.104C282.634 97.6133 283.338 97.208 284.021 96.888C284.704 96.568 285.248 96.408 285.653 96.408C285.802 96.408 285.909 96.4187 285.973 96.44C285.973 96.44 285.856 96.6533 285.621 97.08C285.386 97.4853 285.088 98.0293 284.725 98.712C284.384 99.3733 284.032 100.088 283.669 100.856C283.306 101.603 282.976 102.328 282.677 103.032C282.4 103.715 282.218 104.291 282.133 104.76C282.069 105.037 282.037 105.293 282.037 105.528C282.037 105.869 282.101 106.093 282.229 106.2C282.357 106.307 282.496 106.36 282.645 106.36C283.05 106.36 283.477 106.147 283.925 105.72C284.373 105.272 284.8 104.728 285.205 104.088C285.632 103.448 286.005 102.829 286.325 102.232C286.666 101.613 286.912 101.144 287.061 100.824C287.146 100.653 287.21 100.557 287.253 100.536C287.296 100.493 287.36 100.472 287.445 100.472C287.573 100.472 287.637 100.557 287.637 100.728C287.637 100.835 287.605 100.952 287.541 101.08C287.285 101.571 286.976 102.157 286.613 102.84C286.272 103.523 285.877 104.195 285.429 104.856C284.981 105.496 284.49 106.04 283.957 106.488C283.424 106.915 282.848 107.128 282.229 107.128C281.802 107.128 281.354 106.979 280.885 106.68C280.437 106.381 280.213 105.827 280.213 105.016C280.213 104.781 280.234 104.536 280.277 104.28C280.32 104.003 280.394 103.704 280.501 103.384C280.672 102.957 280.874 102.499 281.109 102.008C281.344 101.517 281.728 100.845 282.261 99.992C282.41 99.7573 282.496 99.576 282.517 99.448C282.56 99.32 282.581 99.2133 282.581 99.128C282.581 98.872 282.464 98.744 282.229 98.744C282.037 98.744 281.749 98.8507 281.365 99.064C281.002 99.2773 280.544 99.6507 279.989 100.184C279.456 100.696 278.816 101.421 278.069 102.36C277.344 103.299 276.501 104.685 275.541 106.52C275.392 106.797 275.221 106.947 275.029 106.968C274.858 106.989 274.613 107.011 274.293 107.032C274.08 107.053 273.877 107.064 273.685 107.064C273.493 107.085 273.333 107.149 273.205 107.256ZM288.563 107C287.966 107 287.432 106.797 286.963 106.392C286.494 105.965 286.259 105.304 286.259 104.408C286.259 103.704 286.387 102.84 286.643 101.816C286.92 100.771 287.251 99.6933 287.635 98.584C288.04 97.4533 288.435 96.4293 288.819 95.512H287.123C286.974 95.512 286.899 95.4053 286.899 95.192C286.899 95.0853 286.92 94.9893 286.963 94.904C287.027 94.8187 287.112 94.776 287.219 94.776H289.139C289.502 93.9653 289.886 93.176 290.291 92.408C290.696 91.64 291.091 90.9147 291.475 90.232C291.966 89.3787 292.488 88.7387 293.043 88.312C293.598 87.8853 294.078 87.672 294.483 87.672C294.803 87.672 295.07 87.8 295.283 88.056C295.496 88.2907 295.603 88.6533 295.603 89.144C295.603 89.4427 295.539 89.8587 295.411 90.392C295.283 90.904 295.08 91.448 294.803 92.024C294.654 92.3227 294.44 92.7493 294.163 93.304C293.907 93.8587 293.651 94.3493 293.395 94.776H294.931C295.08 94.776 295.155 94.8827 295.155 95.096C295.155 95.1813 295.134 95.2773 295.091 95.384C295.048 95.4693 294.984 95.512 294.899 95.512H293.011C292.478 96.4293 291.87 97.3253 291.187 98.2C290.504 99.0747 289.694 99.9493 288.755 100.824C288.691 101.016 288.606 101.293 288.499 101.656C288.414 102.019 288.328 102.392 288.243 102.776C288.179 103.139 288.115 103.448 288.051 103.704C288.008 103.96 287.987 104.088 287.987 104.088C287.923 104.365 287.891 104.621 287.891 104.856C287.891 105.304 287.998 105.635 288.211 105.848C288.424 106.04 288.67 106.136 288.947 106.136C289.118 106.136 289.288 106.115 289.459 106.072C289.63 106.008 289.822 105.901 290.035 105.752C290.782 105.219 291.432 104.493 291.987 103.576C292.563 102.659 293.064 101.773 293.491 100.92C293.619 100.664 293.747 100.536 293.875 100.536C293.96 100.536 294.003 100.6 294.003 100.728C294.003 100.792 293.971 100.909 293.907 101.08C293.438 102.061 293.043 102.851 292.723 103.448C292.403 104.045 292.094 104.547 291.795 104.952C291.496 105.336 291.144 105.72 290.739 106.104C290.44 106.403 290.099 106.627 289.715 106.776C289.331 106.925 288.947 107 288.563 107ZM291.091 94.776H292.723C293.022 94.2213 293.299 93.6773 293.555 93.144C293.832 92.6107 294.078 92.0773 294.291 91.544C294.44 91.2027 294.568 90.8187 294.675 90.392C294.782 89.9653 294.835 89.6347 294.835 89.4C294.835 89.08 294.76 88.92 294.611 88.92C294.504 88.92 294.344 89.016 294.131 89.208C293.939 89.3787 293.694 89.6773 293.395 90.104C293.011 90.6373 292.627 91.3307 292.243 92.184C291.88 93.016 291.496 93.88 291.091 94.776ZM289.011 99.8C289.63 99.16 290.206 98.4773 290.739 97.752C291.294 97.0267 291.806 96.28 292.275 95.512H290.771C290.43 96.3013 290.11 97.0693 289.811 97.816C289.512 98.5627 289.246 99.224 289.011 99.8ZM294.169 107.128C293.123 107.128 292.377 106.861 291.929 106.328C291.502 105.773 291.289 105.197 291.289 104.6C291.289 104.109 291.406 103.661 291.641 103.256C291.897 102.851 292.195 102.637 292.537 102.616C292.963 101.784 293.422 100.877 293.913 99.896C294.425 98.9147 294.894 97.9653 295.321 97.048C295.619 96.4293 295.993 95.832 296.441 95.256C296.91 94.68 297.422 94.3493 297.977 94.264H298.297C298.467 94.264 298.617 94.2747 298.745 94.296C298.894 94.3173 299.043 94.36 299.193 94.424C299.427 94.5307 299.545 94.6907 299.545 94.904C299.545 95.032 299.47 95.096 299.321 95.096C299.257 95.096 299.171 95.064 299.065 95C298.809 94.8933 298.585 94.84 298.393 94.84C298.265 94.84 298.147 94.872 298.041 94.936C297.635 95.1493 297.347 95.448 297.177 95.832C297.027 96.216 296.953 96.6213 296.953 97.048C296.953 97.3893 296.985 97.7413 297.049 98.104C297.134 98.4453 297.23 98.7547 297.337 99.032C297.571 99.6293 297.817 100.216 298.073 100.792C298.35 101.368 298.489 101.987 298.489 102.648C298.489 103.288 298.275 103.971 297.849 104.696C297.422 105.4 296.878 105.965 296.217 106.392L296.441 106.424C296.547 106.445 296.622 106.456 296.665 106.456C296.707 106.456 296.739 106.456 296.761 106.456C297.251 106.456 297.71 106.317 298.137 106.04C298.585 105.741 298.979 105.379 299.321 104.952C299.662 104.525 300.046 103.928 300.473 103.16C300.921 102.392 301.347 101.581 301.753 100.728C301.817 100.621 301.891 100.568 301.977 100.568C302.083 100.568 302.158 100.611 302.201 100.696C302.265 100.76 302.275 100.845 302.233 100.952C301.955 101.549 301.635 102.2 301.273 102.904C300.931 103.587 300.537 104.248 300.089 104.888C299.641 105.507 299.118 106.019 298.521 106.424C297.945 106.808 297.294 107 296.569 107C296.398 107 296.217 106.989 296.025 106.968C295.833 106.947 295.641 106.904 295.449 106.84C295.235 106.925 295.011 106.989 294.777 107.032C294.563 107.096 294.361 107.128 294.169 107.128ZM295.129 106.168C295.491 105.869 295.811 105.432 296.089 104.856C296.387 104.28 296.537 103.523 296.537 102.584C296.537 101.752 296.451 100.867 296.281 99.928C296.11 98.9893 296.025 98.1573 296.025 97.432C296.025 97.2827 296.025 97.1547 296.025 97.048C296.046 96.92 296.067 96.8027 296.089 96.696C295.811 97.272 295.491 97.944 295.129 98.712C294.766 99.4587 294.403 100.184 294.041 100.888C293.678 101.592 293.369 102.189 293.113 102.68C293.113 102.68 293.166 102.691 293.273 102.712C293.401 102.712 293.518 102.787 293.625 102.936C293.731 103.064 293.774 103.331 293.753 103.736C293.731 104.269 293.849 104.771 294.105 105.24C294.382 105.688 294.723 105.997 295.129 106.168ZM293.913 106.616C294.041 106.616 294.158 106.605 294.265 106.584C294.371 106.541 294.467 106.509 294.553 106.488C294.233 106.253 293.945 105.944 293.689 105.56C293.454 105.155 293.315 104.643 293.273 104.024C292.889 104.429 292.697 104.867 292.697 105.336C292.697 105.677 292.803 105.976 293.017 106.232C293.23 106.488 293.529 106.616 293.913 106.616ZM320.46 110.296C319.671 110.296 318.86 110.211 318.028 110.04C317.217 109.869 316.407 109.613 315.596 109.272C314.273 108.696 313.207 107.939 312.396 107C311.585 106.083 310.999 105.037 310.636 103.864C310.273 102.691 310.092 101.464 310.092 100.184C310.092 98.84 310.252 97.496 310.572 96.152C310.913 94.808 311.383 93.528 311.98 92.312C312.577 91.0747 313.249 89.976 313.996 89.016C313.847 88.4613 313.719 87.8213 313.612 87.096C313.527 86.3707 313.484 85.6347 313.484 84.888C313.484 83.7573 313.612 82.68 313.868 81.656C313.953 81.3573 314.103 81.208 314.316 81.208C314.465 81.208 314.54 81.3147 314.54 81.528C314.54 81.656 314.529 81.752 314.508 81.816C314.465 82.136 314.423 82.4667 314.38 82.808C314.359 83.1493 314.348 83.5013 314.348 83.864C314.348 84.5893 314.391 85.304 314.476 86.008C314.561 86.712 314.657 87.3627 314.764 87.96C316.321 85.9333 318.103 84.4293 320.108 83.448C322.135 82.4453 324.257 81.944 326.476 81.944C327.052 81.944 327.607 81.976 328.14 82.04C329.847 82.232 331.244 82.6587 332.332 83.32C333.42 83.96 334.22 84.7493 334.732 85.688C335.265 86.6267 335.532 87.6187 335.532 88.664C335.532 89.688 335.297 90.7013 334.828 91.704C334.359 92.7067 333.676 93.624 332.78 94.456C331.884 95.2667 330.785 95.928 329.484 96.44C328.204 96.9307 326.753 97.176 325.132 97.176C324.769 97.176 324.407 97.1653 324.044 97.144C323.681 97.1227 323.287 97.08 322.86 97.016C321.175 96.76 319.639 96.216 318.252 95.384C316.865 94.552 315.745 93.272 314.892 91.544C314.721 91.7573 314.487 92.1947 314.188 92.856C313.889 93.496 313.591 94.2747 313.292 95.192C312.993 96.1093 312.737 97.112 312.524 98.2C312.311 99.2667 312.204 100.344 312.204 101.432C312.204 102.477 312.343 103.491 312.62 104.472C312.897 105.432 313.377 106.275 314.06 107C314.743 107.747 315.671 108.301 316.844 108.664C317.42 108.835 318.017 108.963 318.636 109.048C319.255 109.133 319.884 109.176 320.524 109.176C321.761 109.176 322.988 109.016 324.204 108.696C325.42 108.376 326.551 107.907 327.596 107.288C328.983 106.477 330.049 105.539 330.796 104.472C331.543 103.384 332.236 102.168 332.876 100.824C332.961 100.611 333.079 100.504 333.228 100.504C333.335 100.504 333.388 100.579 333.388 100.728C333.388 100.835 333.345 100.963 333.26 101.112C332.812 102.051 332.364 102.915 331.916 103.704C331.468 104.472 330.945 105.187 330.348 105.848C329.751 106.509 328.993 107.16 328.076 107.8C327.031 108.525 325.857 109.123 324.556 109.592C323.255 110.061 321.889 110.296 320.46 110.296ZM324.94 96.344C326.412 96.344 327.713 96.1307 328.844 95.704C329.975 95.256 330.924 94.68 331.692 93.976C332.481 93.2507 333.068 92.4507 333.452 91.576C333.857 90.7013 334.06 89.816 334.06 88.92C334.06 88.0453 333.857 87.2133 333.452 86.424C333.047 85.6347 332.428 84.9627 331.596 84.408C330.785 83.832 329.74 83.4587 328.46 83.288C327.991 83.224 327.521 83.192 327.052 83.192C325.601 83.192 324.172 83.5013 322.764 84.12C321.377 84.7173 320.065 85.5707 318.828 86.68C317.591 87.768 316.492 89.048 315.532 90.52C316.279 92.376 317.324 93.7413 318.668 94.616C320.033 95.4907 321.591 96.0347 323.34 96.248C323.895 96.312 324.428 96.344 324.94 96.344ZM334.344 107C333.533 107 332.936 106.733 332.552 106.2C332.168 105.645 331.976 104.973 331.976 104.184C331.976 103.224 332.2 102.221 332.648 101.176C333.074 100.195 333.618 99.2987 334.28 98.488C334.941 97.6773 335.656 97.0267 336.424 96.536C337.192 96.024 337.938 95.768 338.664 95.768C339.474 95.768 340.072 96.0347 340.456 96.568C340.84 97.1013 341.032 97.7733 341.032 98.584C341.032 99.5653 340.808 100.568 340.36 101.592C340.104 102.168 339.741 102.808 339.272 103.512C338.802 104.195 338.269 104.824 337.672 105.4C337.8 105.635 337.981 105.837 338.216 106.008C338.45 106.157 338.77 106.232 339.176 106.232C339.688 106.232 340.168 106.019 340.616 105.592C341.085 105.165 341.512 104.653 341.896 104.056C342.28 103.437 342.621 102.819 342.92 102.2C343.218 101.581 343.464 101.08 343.656 100.696C343.72 100.568 343.826 100.504 343.976 100.504C344.061 100.504 344.125 100.547 344.168 100.632C344.21 100.696 344.2 100.803 344.136 100.952C344.008 101.272 343.794 101.752 343.496 102.392C343.197 103.011 342.834 103.661 342.408 104.344C341.981 105.005 341.49 105.571 340.936 106.04C340.381 106.509 339.762 106.744 339.08 106.744C338.61 106.744 338.205 106.669 337.864 106.52C337.522 106.349 337.245 106.147 337.032 105.912C336.584 106.253 336.136 106.52 335.688 106.712C335.24 106.904 334.792 107 334.344 107ZM334.824 106.296C335.4 106.296 336.018 106.019 336.68 105.464C336.509 105.208 336.381 104.941 336.296 104.664C336.21 104.387 336.168 104.131 336.168 103.896C336.168 103.512 336.253 103.181 336.424 102.904C336.616 102.627 336.904 102.488 337.288 102.488C337.565 102.488 337.789 102.595 337.96 102.808C338.152 103 338.248 103.224 338.248 103.48C338.248 103.544 338.237 103.608 338.216 103.672C338.216 103.715 338.205 103.768 338.184 103.832C338.546 103.341 338.888 102.765 339.208 102.104C339.912 100.589 340.264 99.3413 340.264 98.36C340.264 97.8693 340.168 97.4853 339.976 97.208C339.784 96.9307 339.496 96.792 339.112 96.792C338.664 96.792 338.173 96.984 337.64 97.368C337.128 97.752 336.626 98.264 336.136 98.904C335.666 99.544 335.25 100.259 334.888 101.048C334.546 101.773 334.269 102.477 334.056 103.16C333.864 103.821 333.768 104.397 333.768 104.888C333.768 105.315 333.853 105.656 334.024 105.912C334.194 106.168 334.461 106.296 334.824 106.296ZM347.334 107.032C346.929 107.032 346.524 106.872 346.118 106.552C345.713 106.211 345.51 105.667 345.51 104.92C345.51 104.344 345.649 103.683 345.926 102.936C346.182 102.211 346.524 101.507 346.95 100.824C347.398 100.141 347.718 99.5867 347.91 99.16C347.974 98.9893 348.006 98.84 348.006 98.712C348.006 98.328 347.761 98.0507 347.27 97.88C346.801 97.7093 346.182 97.6133 345.414 97.592L345.03 98.648C344.796 99.3307 344.465 100.131 344.038 101.048C343.633 101.965 343.174 102.851 342.662 103.704C342.172 104.557 341.66 105.24 341.126 105.752C341.084 105.795 341.03 105.816 340.966 105.816C340.881 105.816 340.828 105.763 340.806 105.656C340.764 105.549 340.806 105.421 340.934 105.272C341.766 104.163 342.513 102.936 343.174 101.592C343.836 100.227 344.39 98.84 344.838 97.432C345.308 96.024 345.649 94.7227 345.862 93.528C345.926 93.1867 346.044 92.9413 346.214 92.792C346.385 92.6213 346.566 92.536 346.758 92.536C347.036 92.536 347.292 92.6747 347.526 92.952C347.761 93.208 347.878 93.5813 347.878 94.072C347.878 94.1573 347.868 94.2533 347.846 94.36C347.846 94.4667 347.836 94.5733 347.814 94.68C347.729 95.128 347.473 95.5547 347.046 95.96C346.641 96.344 346.31 96.632 346.054 96.824C346.268 96.8453 346.492 96.8667 346.726 96.888C346.961 96.888 347.217 96.888 347.494 96.888C348.497 96.888 349.489 96.824 350.47 96.696C350.513 96.824 350.534 96.92 350.534 96.984C350.534 97.2613 350.449 97.6133 350.278 98.04C350.129 98.4667 349.969 98.8507 349.798 99.192C349.713 99.384 349.542 99.736 349.286 100.248C349.03 100.739 348.753 101.304 348.454 101.944C348.156 102.563 347.9 103.181 347.686 103.8C347.494 104.397 347.398 104.909 347.398 105.336C347.398 105.891 347.612 106.168 348.038 106.168C348.358 106.168 348.71 105.965 349.094 105.56C349.478 105.133 349.852 104.621 350.214 104.024C350.598 103.405 350.94 102.808 351.238 102.232C351.558 101.635 351.804 101.165 351.974 100.824C352.06 100.611 352.177 100.504 352.326 100.504C352.412 100.504 352.454 100.579 352.454 100.728C352.454 100.813 352.422 100.941 352.358 101.112C352.124 101.603 351.846 102.157 351.526 102.776C351.206 103.395 350.844 104.003 350.438 104.6C350.054 105.197 349.628 105.72 349.158 106.168C348.71 106.595 348.22 106.872 347.686 107C347.622 107.021 347.505 107.032 347.334 107.032ZM347.006 115.736C346.75 115.736 346.494 115.693 346.238 115.608C345.961 115.544 345.683 115.533 345.406 115.576C345.534 115.448 345.779 115.075 346.142 114.456C346.505 113.859 346.931 113.112 347.422 112.216C347.891 111.32 348.393 110.349 348.926 109.304C349.459 108.259 349.961 107.235 350.43 106.232C350.899 105.208 351.294 104.28 351.614 103.448C351.955 102.595 352.169 101.923 352.254 101.432C352.062 101.709 351.87 101.869 351.678 101.912C351.507 101.933 351.465 101.869 351.55 101.72C351.593 101.635 351.678 101.432 351.806 101.112C351.955 100.771 352.083 100.483 352.19 100.248C352.361 99.8213 352.499 99.352 352.606 98.84C352.734 98.328 352.798 97.8373 352.798 97.368C352.798 97.0693 352.766 96.8133 352.702 96.6C352.638 96.3867 352.521 96.2693 352.35 96.248C352.35 96.248 352.467 96.2267 352.702 96.184C352.937 96.1413 353.182 96.0987 353.438 96.056C353.694 96.0133 353.865 95.992 353.95 95.992C354.078 95.9707 354.195 95.96 354.302 95.96C354.409 95.9387 354.505 95.928 354.59 95.928C354.782 95.928 354.91 96.0027 354.974 96.152C355.059 96.28 355.102 96.5573 355.102 96.984C355.102 97.5173 355.006 98.2 354.814 99.032C354.643 99.8427 354.441 100.557 354.206 101.176C354.441 100.792 354.739 100.301 355.102 99.704C355.486 99.1067 355.923 98.4987 356.414 97.88C356.905 97.2613 357.417 96.7493 357.95 96.344C358.483 95.9173 359.006 95.704 359.518 95.704C359.625 95.704 359.763 95.7253 359.934 95.768C360.531 95.9173 360.947 96.216 361.182 96.664C361.438 97.0907 361.566 97.6027 361.566 98.2C361.566 98.84 361.438 99.544 361.182 100.312C360.947 101.08 360.627 101.837 360.222 102.584C359.817 103.309 359.369 103.971 358.878 104.568C358.281 105.315 357.566 105.912 356.734 106.36C355.902 106.808 355.049 107.032 354.174 107.032C353.385 107.032 352.649 106.829 351.966 106.424L348.926 114.072C348.627 114.712 348.339 115.149 348.062 115.384C347.785 115.619 347.433 115.736 347.006 115.736ZM353.15 106.36C353.747 106.36 354.419 106.083 355.166 105.528C355.913 104.973 356.627 104.269 357.31 103.416C358.014 102.541 358.601 101.667 359.07 100.792C359.39 100.195 359.625 99.6507 359.774 99.16C359.923 98.648 359.998 98.2107 359.998 97.848C359.998 97.016 359.699 96.6 359.102 96.6C358.825 96.6 358.462 96.7493 358.014 97.048C357.587 97.3467 357.086 97.8907 356.51 98.68C355.891 99.5333 355.209 100.611 354.462 101.912C353.737 103.192 352.99 104.547 352.222 105.976C352.478 106.232 352.787 106.36 353.15 106.36Z" fill="#08B008"/>
</svg>
