<svg width="81" height="81" viewBox="0 0 81 81" fill="none" xmlns="http://www.w3.org/2000/svg">
<path d="M23.3286 65.6594H15.7646V69.8676H23.3286V65.6594Z" fill="#9B8E99"/>
<path d="M65.236 65.6594H57.672V69.8676H65.236V65.6594Z" fill="#9B8E99"/>
<path d="M46.2643 21.3581V15.4071H34.7357V21.3581H30.4611V11.1324H50.5389V21.3581H46.2643Z" fill="#9B8E99"/>
<path d="M6.2389 39.1534L9.82062 23.8032C9.98288 23.1078 10.3756 22.4876 10.9351 22.0437C11.4945 21.5997 12.1876 21.3581 12.9018 21.3581H68.0982C68.8124 21.3581 69.5055 21.5997 70.0649 22.0437C70.6244 22.4876 71.0171 23.1078 71.1794 23.8032L74.7611 39.1534H6.2389Z" fill="#99E6FC"/>
<path d="M74.7611 47.8647L71.1794 63.218C71.017 63.9133 70.6242 64.5333 70.0648 64.9772C69.5054 65.421 68.8123 65.6625 68.0982 65.6625H12.9018C12.1877 65.6625 11.4946 65.421 10.9352 64.9772C10.3758 64.5333 9.983 63.9133 9.82062 63.218L6.2389 47.8647H74.7611Z" fill="#99E6FC"/>
<path d="M77.0089 39.1534H3.99115V47.8647H77.0089V39.1534Z" fill="#62DBFB"/>
<path d="M40.5 57.6802C48.3265 57.6802 54.6712 51.3356 54.6712 43.509C54.6712 35.6825 48.3265 29.3378 40.5 29.3378C32.6735 29.3378 26.3288 35.6825 26.3288 43.509C26.3288 51.3356 32.6735 57.6802 40.5 57.6802Z" fill="#DFF6FD"/>
<path d="M48.8462 40.774H43.235V35.1629H37.765V40.774H32.1538V46.2434H37.765V51.8546H43.235V46.2434H48.8462V40.774Z" fill="#F07281"/>
<path d="M37.9453 64.5519H35.0977C34.804 64.5519 34.5223 64.6686 34.3146 64.8763C34.1069 65.084 33.9903 65.3657 33.9903 65.6594C33.9903 65.9531 34.1069 66.2347 34.3146 66.4424C34.5223 66.6501 34.804 66.7668 35.0977 66.7668H37.9453C38.239 66.7668 38.5207 66.6501 38.7284 66.4424C38.9361 66.2347 39.0528 65.9531 39.0528 65.6594C39.0528 65.3657 38.9361 65.084 38.7284 64.8763C38.5207 64.6686 38.239 64.5519 37.9453 64.5519V64.5519Z" fill="black"/>
<path d="M77.0089 38.046H75.6401L72.2577 23.5545C72.0422 22.6135 71.513 21.7738 70.7571 21.1733C70.0013 20.5728 69.0636 20.2472 68.0982 20.25H62.9092C62.6155 20.25 62.3338 20.3667 62.1261 20.5744C61.9184 20.782 61.8017 21.0637 61.8017 21.3574C61.8017 21.6511 61.9184 21.9328 62.1261 22.1405C62.3338 22.3482 62.6155 22.4648 62.9092 22.4648H68.0982C68.5629 22.4634 69.0142 22.6199 69.3781 22.9088C69.7421 23.1976 69.997 23.6016 70.1011 24.0545L73.3658 38.0453H54.7649C53.6602 35.1575 51.7051 32.673 49.158 30.9203C46.6109 29.1676 43.5919 28.2291 40.5 28.2291C37.4081 28.2291 34.3891 29.1676 31.842 30.9203C29.2949 32.673 27.3398 35.1575 26.2351 38.0453H7.63425L10.8989 24.0545C11.003 23.6016 11.2579 23.1976 11.6219 22.9088C11.9858 22.6199 12.4371 22.4634 12.9018 22.4648H56.9848C57.2785 22.4648 57.5602 22.3482 57.7678 22.1405C57.9755 21.9328 58.0922 21.6511 58.0922 21.3574C58.0922 21.0637 57.9755 20.782 57.7678 20.5744C57.5602 20.3667 57.2785 20.25 56.9848 20.25H51.6464V11.1324C51.6464 10.987 51.6179 10.8429 51.5622 10.7085C51.5066 10.5742 51.425 10.452 51.3222 10.3492C51.2193 10.2463 51.0972 10.1648 50.9628 10.1091C50.8284 10.0535 50.6844 10.0249 50.5389 10.025H30.4611C30.3156 10.0249 30.1716 10.0535 30.0372 10.1091C29.9028 10.1648 29.7807 10.2463 29.6778 10.3492C29.575 10.452 29.4934 10.5742 29.4378 10.7085C29.3821 10.8429 29.3536 10.987 29.3536 11.1324V20.25H12.9005C11.9356 20.247 10.9983 20.5721 10.2424 21.172C9.48663 21.7719 8.95719 22.611 8.74104 23.5514L5.35992 38.046H3.99115C3.69744 38.046 3.41577 38.1626 3.20808 38.3703C3.0004 38.578 2.88373 38.8597 2.88373 39.1534V47.8647C2.8839 48.1583 3.00062 48.4399 3.20827 48.6476C3.41592 48.8552 3.69749 48.9719 3.99115 48.9721H5.35992L8.74231 63.4635C8.95858 64.4038 9.48807 65.2427 10.2439 65.8425C10.9997 66.4422 11.9369 66.7673 12.9018 66.7642H14.6572V69.865C14.6571 70.0105 14.6857 70.1545 14.7413 70.2889C14.797 70.4233 14.8785 70.5454 14.9814 70.6483C15.0842 70.7511 15.2063 70.8327 15.3407 70.8883C15.4751 70.9439 15.6192 70.9725 15.7646 70.9725H23.328C23.4735 70.9725 23.6175 70.9439 23.7519 70.8883C23.8863 70.8327 24.0084 70.7511 24.1113 70.6483C24.2141 70.5454 24.2957 70.4233 24.3513 70.2889C24.4069 70.1545 24.4355 70.0105 24.4354 69.865V66.7642H29.253C29.5467 66.7642 29.8284 66.6476 30.0361 66.4399C30.2438 66.2322 30.3605 65.9505 30.3605 65.6568C30.3605 65.3631 30.2438 65.0814 30.0361 64.8738C29.8284 64.6661 29.5467 64.5494 29.253 64.5494H12.9018C12.4378 64.5512 11.987 64.3955 11.6231 64.1076C11.2592 63.8197 11.0039 63.4168 10.8989 62.9648L7.63425 48.9721H26.2351C27.3401 51.8596 29.2953 54.3438 31.8423 56.0964C34.3894 57.8489 37.4083 58.7871 40.5 58.7871C43.5917 58.7871 46.6106 57.8489 49.1577 56.0964C51.7047 54.3438 53.6599 51.8596 54.7649 48.9721H73.3658L70.1011 62.9648C69.997 63.4176 69.742 63.8215 69.3781 64.1103C69.0141 64.399 68.5628 64.5555 68.0982 64.5538H44.0564C43.7627 64.5538 43.481 64.6705 43.2733 64.8782C43.0657 65.0859 42.949 65.3676 42.949 65.6613C42.949 65.955 43.0657 66.2366 43.2733 66.4443C43.481 66.652 43.7627 66.7687 44.0564 66.7687H56.5646V69.8695C56.5645 70.0149 56.5931 70.159 56.6487 70.2933C56.7043 70.4277 56.7859 70.5499 56.8888 70.6527C56.9916 70.7556 57.1137 70.8371 57.2481 70.8928C57.3825 70.9484 57.5266 70.977 57.672 70.9769H65.2354C65.3808 70.977 65.5249 70.9484 65.6593 70.8928C65.7937 70.8371 65.9158 70.7556 66.0186 70.6527C66.1215 70.5499 66.2031 70.4277 66.2587 70.2933C66.3143 70.159 66.3429 70.0149 66.3428 69.8695V66.7687H68.0982C69.0631 66.7717 70.0003 66.4467 70.7561 65.8469C71.5119 65.2471 72.0414 64.4082 72.2577 63.4679L75.6401 48.9765H77.0089C77.3025 48.9764 77.5841 48.8596 77.7917 48.652C77.9994 48.4443 78.1161 48.1628 78.1163 47.8691V39.1534C78.1163 38.8597 77.9996 38.578 77.7919 38.3703C77.5842 38.1626 77.3026 38.046 77.0089 38.046V38.046ZM45.1569 20.25H35.8431V16.5164H45.1569V20.25ZM31.5685 12.2399H49.4315V20.25H47.3717V15.4071C47.3717 15.1134 47.255 14.8317 47.0474 14.624C46.8397 14.4163 46.558 14.2997 46.2643 14.2997H34.7357C34.442 14.2997 34.1603 14.4163 33.9527 14.624C33.745 14.8317 33.6283 15.1134 33.6283 15.4071V20.25H31.5685V12.2399ZM22.2206 68.7601H16.872V66.7668H22.2206V68.7601ZM64.128 68.7601H58.7794V66.7668H64.128V68.7601ZM5.09857 46.7573V40.2608H25.572C25.1041 42.401 25.1041 44.617 25.572 46.7573H5.09857ZM40.5 56.5734C37.9163 56.5734 35.3905 55.8073 33.2422 54.3718C31.0939 52.9364 29.4195 50.8962 28.4307 48.5091C27.4419 46.122 27.1832 43.4954 27.6872 40.9613C28.1912 38.4272 29.4354 36.0994 31.2623 34.2724C33.0892 32.4454 35.4169 31.2011 37.951 30.697C40.4851 30.1928 43.1118 30.4514 45.4989 31.4401C47.886 32.4288 49.9263 34.1031 51.3618 36.2513C52.7974 38.3996 53.5637 40.9253 53.5638 43.509C53.5601 46.9727 52.1826 50.2934 49.7335 52.7427C47.2843 55.1919 43.9637 56.5696 40.5 56.5734V56.5734ZM75.9014 46.7585H55.4274C55.8953 44.6183 55.8953 42.4023 55.4274 40.2621H75.9008L75.9014 46.7585Z" fill="black"/>
<path d="M48.8462 39.6666H44.3424V35.1629C44.3423 34.8692 44.2255 34.5876 44.0179 34.38C43.8103 34.1723 43.5287 34.0556 43.235 34.0554H37.765C37.4713 34.0556 37.1898 34.1723 36.9821 34.38C36.7745 34.5876 36.6577 34.8692 36.6576 35.1629V39.6666H32.1538C31.8601 39.6666 31.5785 39.7833 31.3708 39.9909C31.1631 40.1986 31.0464 40.4803 31.0464 40.774V46.2434C31.0464 46.5371 31.1631 46.8188 31.3708 47.0265C31.5785 47.2342 31.8601 47.3508 32.1538 47.3508H36.6576V51.8546C36.6576 52.1483 36.7742 52.4299 36.9819 52.6376C37.1896 52.8453 37.4713 52.962 37.765 52.962H43.235C43.5287 52.962 43.8104 52.8453 44.0181 52.6376C44.2258 52.4299 44.3424 52.1483 44.3424 51.8546V47.3508H48.8462C49.1399 47.3508 49.4216 47.2342 49.6292 47.0265C49.8369 46.8188 49.9536 46.5371 49.9536 46.2434V40.774C49.9536 40.6286 49.9249 40.4846 49.8693 40.3502C49.8136 40.2159 49.7321 40.0938 49.6292 39.9909C49.5264 39.8881 49.4043 39.8065 49.27 39.7509C49.1356 39.6952 48.9916 39.6666 48.8462 39.6666V39.6666ZM47.7387 45.136H43.235C43.0896 45.1359 42.9455 45.1645 42.8111 45.2201C42.6767 45.2757 42.5546 45.3573 42.4518 45.4602C42.3489 45.563 42.2673 45.6851 42.2117 45.8195C42.1561 45.9539 42.1275 46.098 42.1276 46.2434V50.7471H38.8724V46.2434C38.8725 46.098 38.8439 45.9539 38.7883 45.8195C38.7327 45.6851 38.6511 45.563 38.5482 45.4602C38.4454 45.3573 38.3233 45.2757 38.1889 45.2201C38.0545 45.1645 37.9104 45.1359 37.765 45.136H33.2613V41.8814H37.765C38.0587 41.8814 38.3404 41.7648 38.5481 41.5571C38.7557 41.3494 38.8724 41.0677 38.8724 40.774V36.2703H42.1276V40.774C42.1276 41.0677 42.2443 41.3494 42.452 41.5571C42.6596 41.7648 42.9413 41.8814 43.235 41.8814H47.7387V45.136Z" fill="black"/>
</svg>
