<svg width="98" height="81" viewBox="0 0 98 81" fill="none" xmlns="http://www.w3.org/2000/svg">
<g clip-path="url(#clip0_31_2)">
<path d="M39.2185 81.5062C38.9263 80.1256 38.31 79.2525 37.0125 78.5827C33.831 76.9404 32.183 74.2596 32.1937 70.613C32.1999 68.5057 32.2097 66.3937 32.0779 64.2925C32.0002 63.055 32.4121 62.4317 33.6 62.0946C34.4742 61.8466 35.2776 61.3457 36.1079 60.9478C37.1104 60.4673 38.0606 60.4312 38.8877 61.2884C39.6045 62.0314 39.774 62.9123 39.3613 63.8524C38.9463 64.7976 38.1101 65.4391 37.1532 65.1793C34.7692 64.5321 34.6594 65.9185 34.618 67.63C34.4863 73.0796 36.0022 75.5788 40.0968 76.5251C43.8951 77.403 47.7007 74.5728 47.9228 70.678C47.9804 69.6693 47.9035 68.6534 47.9439 67.643C48.0136 65.896 47.7967 64.6003 45.45 65.1064C44.3626 65.3409 43.5841 64.5698 43.177 63.4938C42.7898 62.4704 43.1073 61.6646 43.8589 61.0014C44.666 60.2893 45.5491 60.4419 46.4499 60.8763C50.6916 62.9218 50.5315 62.9237 50.7374 67.7116C50.9864 73.5009 49.057 77.7612 43.251 79.7027C43.6483 80.6876 44.4235 80.344 44.9934 80.3512C48.7877 80.3993 52.5857 80.3073 56.3763 80.4384C58.4429 80.5098 59.2206 79.8064 59.1854 77.6986C59.0938 72.2188 59.2684 66.734 59.1425 61.2556C59.0879 58.8765 59.7908 57.959 62.2856 58.029C67.8471 58.1851 73.4168 58.0249 78.9815 58.1055C80.8226 58.1321 81.5691 57.4949 81.5365 55.6281C81.4657 51.5817 81.4846 47.5325 81.5468 43.4856C81.5739 41.7201 80.8091 41.1442 79.0998 41.1625C73.5346 41.2221 67.9647 41.0489 62.404 41.2143C59.775 41.2924 58.8811 40.3202 59.1753 37.8341C59.2934 36.8359 59.1941 35.8128 59.207 34.8013C59.2211 33.6943 59.7543 33.0703 60.8964 33.034C62.1526 32.994 62.5596 33.7614 62.4177 34.8241C62.0713 37.4166 63.3752 37.9183 65.6648 37.8638C70.9746 37.7374 76.2909 37.9004 81.6019 37.8011C83.7594 37.7607 84.6497 38.4948 84.6164 40.7092C84.5248 46.7797 84.5059 52.8533 84.5983 58.9235C84.6314 61.1006 83.6255 61.7634 81.6929 61.7062C76.1328 61.5415 70.5755 61.3954 65.0077 61.4842C62.7375 61.5204 62.3827 62.4051 62.4099 64.348C62.488 69.9119 62.404 75.478 62.3262 81.2747C54.6644 81.5062 47.0601 81.5062 39.2185 81.5062Z" fill="#00880F"/>
<path d="M42.1969 22.3888C42.1921 27.9421 42.1049 33.2592 42.2177 38.572C42.2608 40.5978 41.5491 41.22 39.5864 41.1866C33.9352 41.0905 28.2804 41.2082 22.6291 41.1125C20.5737 41.0777 19.7463 41.7515 19.8186 43.8786C19.9474 47.6711 19.9399 51.4729 19.8368 55.2667C19.7821 57.2784 20.487 57.8434 22.5331 58.2065C33.1345 60.0878 38.1089 53.6219 42.14 45.5066C43.8651 42.0336 45.696 38.6283 48.3819 35.7425C52.9637 30.8196 58.7216 28.2995 65.2362 27.3089C66.4364 27.1264 67.4393 26.8608 68.41 26.0295C70.5521 24.1949 73.0771 24.4221 74.6597 26.395C76.1071 28.1996 75.8827 31.1303 74.1847 32.5959C72.2746 34.2446 69.4743 33.9569 67.7449 31.7436C66.9988 30.7886 66.3537 30.6031 65.1944 30.8004C57.4377 32.1201 51.3829 35.788 47.4117 42.7994C44.8446 47.3317 42.6733 52.1043 39.1956 56.117C35.9328 59.8819 32.0123 61.8501 27.0349 61.6934C24.5072 61.6139 21.9797 61.4645 19.452 61.4629C17.7906 61.4619 16.9989 60.9228 17.0191 59.1148C17.09 52.7877 17.095 46.4588 17.024 40.1317C17.0034 38.2947 17.8262 37.8189 19.4757 37.8317C24.7907 37.8728 30.1064 37.8355 35.4218 37.822C38.8334 37.8134 38.8485 37.8084 38.8547 34.4966C38.8647 29.1812 38.9084 23.8648 38.8207 18.5508C38.7872 16.5237 39.4447 15.6528 41.5814 15.6858C47.6548 15.7799 53.7308 15.7574 59.8051 15.7027C61.7268 15.6854 62.5721 16.3711 62.4658 18.3777C62.341 20.7335 62.4349 23.101 62.4342 25.4634C62.4339 26.4945 62.2054 27.3377 60.9132 27.2895C59.7539 27.2463 59.2683 26.5439 59.2364 25.4807C59.1934 24.0475 59.127 22.6088 59.2051 21.1798C59.3018 19.4081 58.5267 18.7974 56.8044 18.8334C53.0092 18.9126 49.2044 19.0046 45.4171 18.8169C42.8221 18.6884 41.7996 19.6167 42.1969 22.3888Z" fill="#00880F"/>
</g>
<defs>
<clipPath id="clip0_31_2">
<rect width="97.2" height="81" fill="white"/>
</clipPath>
</defs>
</svg>
