<svg width="58" height="80" viewBox="0 0 58 80" fill="none" xmlns="http://www.w3.org/2000/svg">
<g clip-path="url(#clip0_15_147)">
<path fill-rule="evenodd" clip-rule="evenodd" d="M41.6155 42.1289C43.0458 40.2796 45.1509 39.0726 47.4695 38.7724C49.7881 38.4722 52.1311 39.1033 53.9853 40.5274V40.5274C55.8361 41.9567 57.0442 44.0619 57.3445 46.381C57.6447 48.7001 57.0126 51.0436 55.5868 52.8972C49.4801 60.8138 43.3733 68.6589 37.26 76.5886C35.8407 78.4289 33.749 79.6306 31.4443 79.9297C29.1396 80.2288 26.8104 79.6008 24.9684 78.1836C23.1324 76.7612 21.9341 74.67 21.6352 72.3668C21.3364 70.0637 21.9612 67.7358 23.3733 65.892V65.892C29.4866 57.9493 35.4957 50.0716 41.6025 42.1289H41.6155ZM2.89158 55.4037H26.1468L28.5947 52.2201C31.5048 48.418 34.4085 44.6354 38.3082 39.5703C39.2765 38.3165 40.4685 37.2526 41.8238 36.4323V27.7149C41.8889 22.4219 39.1676 16.5625 36.303 12.7409L35.3915 11.5169H36.9475C37.8109 11.5169 38.6388 11.174 39.2493 10.5635C39.8598 9.95303 40.2027 9.12505 40.2027 8.26172V3.2552C40.1942 2.39449 39.8486 1.57144 39.2399 0.962795C38.6313 0.354154 37.8082 0.00847201 36.9475 -8.48041e-06H5.24835C4.38086 -0.00176878 3.54784 0.339388 2.93079 0.949124C2.31373 1.55886 1.96267 2.38776 1.95408 3.2552V8.22916C1.95408 9.0925 2.29704 9.92047 2.90751 10.5309C3.51798 11.1414 4.34595 11.4844 5.20928 11.4844H6.4072C6.07517 11.9401 5.75616 12.3828 5.41111 12.8255C2.11033 17.2917 -0.331073 23.0078 0.0400198 28.8281V64.6355C0.0214965 65.9591 0.513437 67.2391 1.41372 68.2097C2.29913 69.0691 3.58819 69.5118 5.35902 69.4597H17.4879C17.5613 68.915 17.67 68.3757 17.8134 67.8451C17.922 67.4348 18.0523 67.0305 18.2041 66.6342H6.08819C5.23938 66.6944 4.40129 66.4158 3.75746 65.8594C3.29373 65.3607 3.00963 64.7214 2.95017 64.043C2.95017 63.8998 2.89158 55.4102 2.89158 55.4102V55.4037ZM19.0699 32.7604H22.7874C23.1224 32.7604 23.4436 32.8935 23.6805 33.1304C23.9173 33.3672 24.0504 33.6885 24.0504 34.0235V38.2682H28.2952C28.629 38.2682 28.9493 38.4004 29.186 38.6359C29.4227 38.8713 29.5565 39.1909 29.5582 39.5248V43.2357C29.5582 43.5707 29.4251 43.8919 29.1883 44.1288C28.9514 44.3657 28.6302 44.4987 28.2952 44.4987H24.0374V48.7435C24.0357 49.0751 23.9037 49.3928 23.6698 49.6278C23.4359 49.8629 23.119 49.9966 22.7874 50H19.0699C18.7361 50 18.4158 49.8679 18.1791 49.6324C17.9425 49.3969 17.8086 49.0774 17.8069 48.7435V44.4987H13.5621C13.2283 44.497 12.9087 44.3632 12.6733 44.1265C12.4378 43.8898 12.3056 43.5696 12.3056 43.2357V39.5248C12.3073 39.192 12.4403 38.8734 12.6755 38.6382C12.9108 38.4029 13.2294 38.27 13.5621 38.2682H17.8069V34.0235C17.8069 33.6885 17.94 33.3672 18.1769 33.1304C18.4137 32.8935 18.735 32.7604 19.0699 32.7604ZM38.7444 27.3438H3.11944C3.11944 25.9961 3.03481 27.4024 3.17804 26.1458C3.85186 21.7167 5.56285 17.5095 8.17152 13.8672C8.69886 13.1641 9.23923 12.4284 9.79912 11.6406H32.0061C32.5009 12.3307 33.0348 13.0404 33.5621 13.75C35.9645 16.9401 38.2496 22.2136 38.6728 26.1914C38.7184 26.582 38.7444 27.3568 38.7444 27.3568V27.3438ZM43.4905 65.2474L32.9111 57.1094L25.2548 67.0573C24.1792 68.4619 23.7035 70.2352 23.9316 71.9896C24.1597 73.7439 25.0732 75.3366 26.4723 76.4193C27.8765 77.4844 29.644 77.9532 31.3915 77.7241C33.1391 77.495 34.7259 76.5865 35.8082 75.1954V75.1954L43.4905 65.2605V65.2474Z" fill="#00880F"/>
</g>
<defs>
<clipPath id="clip0_15_147">
<rect width="57.3893" height="80" fill="white"/>
</clipPath>
</defs>
</svg>
