<svg width="81" height="76" viewBox="0 0 81 76" fill="none" xmlns="http://www.w3.org/2000/svg">
<path d="M34.7224 0.0632855C34.2605 0.145551 33.6656 0.455629 33.3176 0.803676C32.1216 1.98704 31.9254 4.27149 32.6531 8.63789C32.7227 9.05555 32.7797 9.44157 32.7797 9.49852C32.7797 9.55547 32.6215 9.72 32.4316 9.86555C32.2355 10.0111 31.9254 10.2895 31.7292 10.4857L31.3875 10.8401L29.1853 10.5427C27.9766 10.3845 24.9834 9.97946 22.5345 9.65039C18.0921 9.05555 18.0795 9.04922 17.6618 9.14414C15.8456 9.5618 14.4851 10.4667 13.8459 11.6754C13.4409 12.4538 13.2954 13.3144 13.5042 13.7131C13.713 14.1181 14.5863 14.4851 15.9469 14.7445C16.3455 14.8205 16.7442 14.8964 16.8265 14.9091L16.9784 14.9407L16.9404 17.1682C16.8834 20.0602 16.7189 22.5788 16.3519 26.0719C15.4849 34.3491 13.4789 45.1512 11.0173 54.8016L10.6566 56.2254L9.77062 56.2697C7.60008 56.3773 5.99906 56.7063 4.84734 57.2759L4.35375 57.5227L4.0943 57.2948C3.68297 56.9215 3.34125 56.7949 2.72109 56.7949C2.08828 56.7949 1.74656 56.9215 1.30992 57.3265C0.525233 58.0542 0.544217 59.3578 1.35422 60.0223C1.79086 60.3766 2.16422 60.5159 2.72742 60.5159C3.1514 60.5222 3.27164 60.4969 3.63234 60.3134C3.87281 60.1995 4.13859 60.0033 4.26515 59.8577L4.48031 59.6046L4.79039 59.7565C5.5118 60.1235 6.68883 60.4526 7.91648 60.6234C9.17578 60.8006 11.4159 60.8133 12.7891 60.6488L13.1435 60.6108L13.1752 60.9335C13.2764 61.9777 14.8205 62.7687 16.1494 62.4586C17.415 62.1675 18.1048 61.3069 17.839 60.3513C17.7757 60.1045 17.2884 59.5477 16.9657 59.3515L16.8202 59.2566L16.9847 59.0161C17.1809 58.7187 17.1935 58.4339 17.0227 58.0985C16.5923 57.2505 14.4345 56.5038 11.9095 56.3266C11.4792 56.295 11.1185 56.2634 11.1059 56.2444C11.0932 56.2317 11.2957 55.3648 11.5552 54.327C14.3585 43.2084 16.4025 31.4824 17.0796 22.6231C17.2441 20.5474 17.2758 19.8387 17.3517 17.4783L17.4277 14.985L17.7187 15.023C19.6488 15.2761 24.319 15.5039 27.5906 15.5039C28.4449 15.5039 29.4637 15.5229 29.8561 15.5482L30.5648 15.5862L30.78 16.0355C31.3305 17.1745 32.4506 18.225 33.6466 18.7123C33.9757 18.8515 33.9757 18.7882 33.7605 20.2943C32.4506 29.5334 28.812 41.772 23.085 56.1874C22.1041 58.6554 22.1041 58.6744 22.5091 58.9528C22.7306 59.1047 22.2244 59.092 35.7223 59.2376C39.3799 59.2755 42.3795 59.3198 42.3921 59.3325C42.4048 59.3452 42.3415 59.5287 42.2466 59.7375C42.158 59.9527 42.082 60.1615 42.082 60.2058C42.082 60.2564 42.1833 60.5159 42.3098 60.788L42.5377 61.2879L42.2972 61.7435L42.0504 62.1991L42.1643 62.4902C42.2212 62.6484 42.3225 62.9016 42.3795 63.0598L42.487 63.3382L42.2909 63.7685L42.0884 64.1988L42.063 65.6986C42.0441 66.7427 42.0567 67.23 42.1073 67.287C42.4364 67.6856 45.2145 67.9514 48.3152 67.8755C49.2898 67.8565 50.163 67.8185 50.2643 67.7995L50.4352 67.7616V69.1031C50.4352 70.3118 50.4225 70.4573 50.3276 70.5396C50.22 70.6282 50.22 70.6282 50.3276 70.5966C50.4225 70.5649 50.4352 70.6092 50.4352 70.9952C50.4352 71.337 50.4605 71.4445 50.5554 71.5331C50.9477 71.8875 53.1246 72.1786 55.9786 72.2609C60.0666 72.3684 63.9204 72.0773 64.7557 71.5838L64.9266 71.4825V69.3816V67.287L64.6102 66.6162L64.2874 65.9454L64.6102 65.3126L64.9266 64.6734L64.6165 64.0533L64.3064 63.4331L64.6165 62.7054L64.9329 61.984L64.6102 61.3132L64.2937 60.6361L64.6165 59.9716L64.9392 59.3072L64.5595 58.668L64.1798 58.0226L64.5532 57.3328L64.9329 56.643L64.6102 56.0039L64.2874 55.3648L64.6102 54.6623L64.9266 53.9599V51.9223C64.9266 49.6062 64.9582 49.7517 64.376 49.5745C62.4396 48.9923 55.8267 48.8405 52.3969 49.3024C51.5995 49.41 50.7642 49.6125 50.5934 49.7454C50.4541 49.8593 50.4352 49.9226 50.4352 50.2706V50.663L50.2327 50.6377C50.1187 50.6313 49.4733 50.5997 48.7962 50.5744L47.5748 50.5301L46.7902 48.5684C44.6196 43.1641 43.0059 38.475 42.0947 34.9313C41.2657 31.7356 41.0442 29.1853 40.8164 20.0981L40.7531 17.7061L41.1581 17.2758C41.5821 16.8265 41.9808 16.1937 42.177 15.6748L42.2909 15.3773H42.8351C43.1325 15.3773 43.6134 15.3584 43.8982 15.3394L44.4108 15.2951L44.4551 15.6052C44.7398 17.7251 46.1257 19.3071 48.1887 19.883C48.6823 20.0159 48.7898 20.0222 52.8082 20.0475C57.1556 20.0728 57.9403 20.0412 58.668 19.8007C60.0412 19.3514 61.0791 18.4465 61.6739 17.1809C62.0536 16.3645 62.1485 15.8773 62.1865 14.4598C62.2498 12.3715 62.0662 11.302 61.4841 10.3085C60.8259 9.19477 59.8577 8.44172 58.5352 8.03039L58.0605 7.87852H53.3145C47.9862 7.87852 48.2709 7.85321 47.2268 8.35946C45.7523 9.06821 44.7209 10.4731 44.4804 12.1184C44.4424 12.3778 44.3918 12.593 44.3665 12.593C44.3475 12.5866 43.8602 12.5234 43.2907 12.4474L42.2529 12.3019L41.9934 11.7956C41.6707 11.1628 41.2847 10.6566 40.7721 10.1946C40.3355 9.8086 40.3798 9.92883 40.2405 8.66954C39.9495 5.92946 39.4179 3.70829 38.7155 2.30977C38.0827 1.06946 37.1587 0.259457 36.1399 0.0632855C35.7539 -0.00632384 35.1654 -0.00632384 34.7224 0.0632855ZM36.1905 1.39219C36.3234 1.4618 36.3234 1.46813 36.2159 1.60735C35.988 1.89844 35.3742 2.55024 35.3552 2.52493C35.3426 2.51227 35.1401 2.2718 34.9059 1.99969C34.4313 1.44914 34.4313 1.43016 34.9312 1.32258C35.2287 1.25297 36.026 1.3036 36.1905 1.39219ZM37.5131 2.77172C37.8295 3.37922 38.051 3.95508 38.2598 4.73977C38.3484 5.07516 38.437 5.39789 38.4497 5.45485C38.4813 5.54977 38.4434 5.56875 38.2092 5.56875H37.9371L36.8613 4.2968C36.2728 3.60071 35.7855 3.00586 35.7855 2.97422C35.7855 2.94258 36.0134 2.65782 36.2918 2.33508L36.798 1.75922L37.0259 2.01868C37.1524 2.16422 37.3739 2.49961 37.5131 2.77172ZM34.463 2.30977C34.6655 2.55024 34.8743 2.80336 34.9186 2.86032C34.9945 2.95524 34.9249 3.06282 34.2858 3.79055C33.8934 4.23985 33.5454 4.61321 33.5137 4.61321C33.4252 4.62586 33.5264 3.29063 33.6593 2.77172C33.7605 2.37938 34.0263 1.78454 34.077 1.84782C34.0833 1.86047 34.2605 2.06297 34.463 2.30977ZM36.3234 4.49297C36.8107 5.06883 37.2094 5.54977 37.2094 5.56875C37.2094 5.58774 36.3867 5.59407 35.3742 5.58141C34.1592 5.56875 33.5391 5.54344 33.5391 5.49914C33.5391 5.41055 35.3236 3.41086 35.3805 3.42985C35.4122 3.4425 35.8298 3.91711 36.3234 4.49297ZM37.9498 6.39141C38.0763 6.53696 38.2155 6.63821 38.2662 6.61922C38.3105 6.60024 38.3484 6.60657 38.3421 6.63188C38.3421 6.65719 38.1333 7.11914 37.8802 7.65704C37.5701 8.32149 37.3929 8.63157 37.3296 8.61891C37.1461 8.57461 35.6463 8.59993 35.3236 8.65688L34.9882 8.71383L34.3617 7.96711C33.7416 7.23305 33.7289 7.21407 33.6656 6.79008C33.634 6.55594 33.6023 6.30914 33.6023 6.24586C33.6023 6.14461 33.7416 6.13829 35.659 6.13829H37.7156L37.9498 6.39141ZM38.9433 8.39743C38.9812 8.75813 39.0002 9.04922 38.9812 9.04922C38.9559 9.04922 38.7724 8.99227 38.5699 8.92266C38.3674 8.85305 38.1523 8.7961 38.0827 8.7961C38.0194 8.7961 37.9687 8.78344 37.9687 8.77079C37.9687 8.75813 38.1143 8.43539 38.2915 8.06204C38.4687 7.68235 38.6459 7.30266 38.6838 7.21407C38.7408 7.06852 38.7534 7.08118 38.8041 7.40391C38.8357 7.59375 38.899 8.04305 38.9433 8.39743ZM34.1592 8.55563C34.2668 8.69485 34.3617 8.83407 34.3617 8.85938C34.3617 8.89735 34.0327 8.9986 34.001 8.96696C33.9694 8.92899 33.8808 8.28985 33.9124 8.29618C33.9314 8.29618 34.0453 8.41008 34.1592 8.55563ZM39.5128 18.7439C39.5318 18.8262 39.5508 19.3388 39.5508 19.8956V20.9018L38.8294 20.0222C38.4307 19.5413 38.1143 19.1299 38.1333 19.1046C38.1459 19.0856 38.2915 19.0287 38.456 18.9844C38.6269 18.9338 38.9053 18.8325 39.0762 18.7566C39.4748 18.5731 39.4622 18.5731 39.5128 18.7439ZM35.583 19.864C35.3173 20.1614 35.0768 20.4145 35.0578 20.4272C35.0325 20.4335 35.0325 20.2943 35.0641 20.1108C35.0895 19.9273 35.1274 19.6488 35.1464 19.4843L35.1907 19.1995L35.6273 19.2565L36.064 19.3198L35.583 19.864ZM38.3421 20.2816C39.0382 21.1233 39.1584 21.3005 39.0509 21.3131C38.9812 21.3258 38.013 21.4081 36.893 21.503C35.1021 21.6548 34.868 21.6612 34.868 21.5789C34.868 21.5283 35.292 20.9967 35.8172 20.4082C36.7917 19.3071 36.874 19.2375 37.3106 19.2565C37.4815 19.2691 37.608 19.3894 38.3421 20.2816ZM39.3483 21.889C39.3166 21.9776 36.6778 25.4327 36.6398 25.4327C36.6209 25.4391 36.1842 24.7809 35.659 23.9836C34.9945 22.9648 34.7161 22.4902 34.7287 22.3889C34.7414 22.3066 34.7604 22.237 34.7667 22.2307C34.773 22.2181 38.9243 21.8573 39.2217 21.8384C39.304 21.8384 39.3609 21.8573 39.3483 21.889ZM39.7723 26.6731C39.8292 27.8184 39.9115 29.1727 39.9558 29.6789C40.0064 30.1852 40.0317 30.6091 40.0254 30.6155C40.0127 30.6281 39.9684 30.5775 39.9305 30.4952C39.8862 30.4193 39.1964 29.3625 38.3991 28.1475L36.9436 25.9327L37.1271 25.7048C37.2284 25.5783 37.8232 24.8063 38.4434 23.9899L39.5824 22.5028L39.6267 23.547C39.652 24.1165 39.7216 25.5213 39.7723 26.6731ZM35.4312 24.6101C35.8868 25.3062 36.2602 25.8884 36.2602 25.9137C36.2602 25.9643 33.1594 29.9953 33.1151 29.9953C33.0961 29.9953 33.1024 29.9447 33.1277 29.8814C33.2163 29.6663 33.9757 26.2681 34.2352 24.9645C34.5516 23.3445 34.5452 23.3508 34.5769 23.3508C34.5895 23.3508 34.9755 23.9203 35.4312 24.6101ZM39.0825 30.1662C39.6014 30.9635 39.7723 31.2609 39.69 31.2609C39.633 31.2609 38.0384 31.3938 36.1462 31.552C34.2605 31.7166 32.6974 31.8368 32.6848 31.8178C32.5709 31.7039 33.0265 31.0331 34.7034 28.8499L36.6019 26.3883L37.4815 27.7298C37.9687 28.4702 38.6902 29.5713 39.0825 30.1662ZM38.7218 32.9126C38.1143 33.5454 37.2537 34.4377 36.798 34.9059L35.9754 35.7539L34.2098 34.0959C32.6911 32.6658 32.4633 32.4253 32.5962 32.4063C32.7037 32.3937 38.842 31.8431 39.7343 31.7735C39.7786 31.7672 39.323 32.2798 38.7218 32.9126ZM40.3734 33.0202C40.6455 34.6338 41.4555 37.5511 42.4491 40.5C42.7591 41.4239 43.0376 42.2339 43.0629 42.3035C43.0945 42.3795 42.9933 42.3162 42.8034 42.139C42.6326 41.9808 41.1202 40.557 39.4369 38.9813L36.3804 36.1146L37.0005 35.4755C37.3423 35.1274 38.2092 34.2288 38.918 33.4884C39.633 32.7481 40.2216 32.1595 40.2279 32.1912C40.2342 32.2165 40.3038 32.5898 40.3734 33.0202ZM34.0073 34.6338L35.621 36.1463L32.5519 39.3356C30.8623 41.0885 29.4701 42.525 29.4637 42.525C29.4511 42.525 29.527 42.2909 29.622 41.9998C30.318 39.9495 32.0456 34.2162 32.2418 33.2986C32.2671 33.1847 32.3114 33.0961 32.343 33.1088C32.3747 33.1214 33.1214 33.8048 34.0073 34.6338ZM39.7912 40.057C41.8479 41.9871 43.5185 43.5755 43.5059 43.5881C43.4932 43.6008 40.943 43.6451 37.8359 43.6957C34.7224 43.7463 31.4698 43.797 30.6091 43.8159C29.5587 43.8413 29.0461 43.8286 29.0587 43.7843C29.0904 43.6957 35.9691 36.5196 36.0134 36.5323C36.0323 36.5386 37.7346 38.127 39.7912 40.057ZM43.1831 44.2209C43.1515 44.2526 41.8162 45.1259 40.2152 46.1637C38.6142 47.2015 37.0575 48.2203 36.7537 48.4228L36.1969 48.7898L32.8999 46.594L29.5966 44.3918L30.1282 44.3728C30.9888 44.3412 40.1456 44.1893 41.7593 44.1766C42.5756 44.1766 43.2211 44.1956 43.1831 44.2209ZM43.9678 44.8158C44.0437 44.9993 44.2905 45.6448 44.5184 46.2523C44.7462 46.8534 45.2208 48.0558 45.5688 48.9227C45.9105 49.7897 46.1953 50.5111 46.1953 50.5238C46.1953 50.5364 45.8916 50.568 45.5182 50.587C44.4741 50.6503 43.0755 50.8085 42.6832 50.9161C42.0567 51.0743 42.0884 51.03 42.0694 51.9223L42.0504 52.7196L39.3799 50.9288C37.9055 49.9416 36.7031 49.1252 36.7095 49.1063C36.7095 49.0683 43.74 44.4931 43.797 44.4867C43.8223 44.4867 43.8982 44.6386 43.9678 44.8158ZM32.2418 46.8091C34.1086 48.0495 35.621 49.0873 35.6147 49.1189C35.5894 49.1822 24.4139 56.4595 24.3886 56.4279C24.3759 56.4152 24.4392 56.2191 24.5278 55.9976C25.4707 53.6941 27.7362 47.5938 28.5588 45.1322C28.6664 44.8158 28.7803 44.55 28.8056 44.55C28.8373 44.55 30.3813 45.5688 32.2418 46.8091ZM39.285 51.4983L42.082 53.3651V53.827C42.082 54.2447 42.1073 54.3459 42.3478 54.8269L42.6136 55.3584L42.3415 55.7761L42.0694 56.1938L42.2023 56.5228C42.2782 56.7063 42.3921 56.9595 42.4617 57.0797L42.5756 57.3012L42.3795 57.6745L42.177 58.0416L38.475 58.0036C31.4761 57.9277 23.8254 57.8264 23.8064 57.8138C23.8001 57.8011 23.8317 57.6998 23.876 57.5859C23.952 57.4088 24.8379 56.8139 30.0649 53.4094C36.0956 49.4796 36.1652 49.4353 36.3234 49.5366C36.412 49.5872 37.7409 50.4731 39.285 51.4983Z" fill="#00880F"/>
<path d="M69.4575 49.8023C67.4515 49.8973 65.9517 50.1504 65.8505 50.4098C65.8315 50.4668 65.8125 51.1629 65.8125 51.9602V53.4094L66.1036 53.9852L66.3884 54.5611L66.1352 54.9661C65.9897 55.1939 65.8758 55.4217 65.8758 55.4723C65.8758 55.523 65.977 55.7634 66.0973 56.0039C66.2175 56.2444 66.3188 56.4785 66.3124 56.5228C66.3124 56.5671 66.2048 56.7886 66.072 57.0164L65.8315 57.4277L66.0466 57.9087L66.2618 58.3896L66.0466 58.9148L65.8252 59.4401L66.072 59.9843L66.3124 60.5285L66.072 60.9715L65.8315 61.4208L66.0466 61.984L66.2681 62.5535L66.0403 63.0155L65.8125 63.4711V64.9962V66.5149L66.0909 66.6288C66.787 66.9326 68.6159 67.0971 71.223 67.0971C73.8113 67.0971 75.6907 66.9263 76.3678 66.6352L76.6336 66.5149V64.9709V63.4268L76.3868 62.9016L76.1463 62.3827L76.3805 61.8954L76.6209 61.4145L76.3868 60.9652L76.1527 60.5095L76.3931 59.9653L76.6336 59.4148L76.3868 58.9275C76.1463 58.4529 76.1463 58.4339 76.2413 58.2504C76.2919 58.1428 76.3995 57.915 76.4754 57.7441L76.6209 57.4277L76.3425 56.9595L76.0641 56.4848L76.3488 55.9533L76.6336 55.4281L76.3805 54.9345C76.2476 54.6623 76.159 54.4156 76.1843 54.3839C76.2096 54.3523 76.3235 54.1181 76.4311 53.865L76.6336 53.4094V51.8843V50.3656L76.3678 50.2453C75.5641 49.8973 72.128 49.6758 69.4575 49.8023Z" fill="#00880F"/>
<path d="M3.86015 53.9156C3.5121 53.9789 3.25265 54.1434 3.14507 54.3776C2.89828 54.8838 3.37289 55.3711 4.1196 55.3711C4.68914 55.3711 5.12578 55.0547 5.12578 54.6434C5.12578 54.1498 4.50562 53.7954 3.86015 53.9156Z" fill="#00880F"/>
<path d="M7.07483 62.0156C6.63187 62.0916 6.1446 62.3827 5.91679 62.6991C5.75226 62.9395 5.72694 63.0345 5.72694 63.3762C5.72694 63.7179 5.75226 63.8128 5.91679 64.047C6.20788 64.4583 6.67616 64.6861 7.27733 64.7241C8.3721 64.7873 9.18843 64.2115 9.18843 63.3762C9.18843 62.4966 8.16327 61.8384 7.07483 62.0156Z" fill="#00880F"/>
<path d="M2.60718 64.1102C2.3857 64.1356 2.10093 64.1925 1.97437 64.2368C1.23398 64.4773 0.52523 65.0531 0.22148 65.667C0.0632764 65.9834 0.0379639 66.1036 0.0379639 66.5719C0.0379639 67.0402 0.0632764 67.1604 0.22148 67.4768C0.32273 67.6793 0.55687 67.9894 0.75937 68.1792C1.39218 68.7804 2.10093 69.0462 3.10078 69.0525C4.3664 69.0588 5.48015 68.4387 5.96109 67.4642C6.08132 67.2237 6.10664 67.0655 6.10664 66.5719C6.10664 65.8315 5.97375 65.5088 5.44851 64.9899C4.76507 64.3127 3.67664 63.9774 2.60718 64.1102Z" fill="#00880F"/>
</svg>
