<svg width="81" height="80" viewBox="0 0 81 80" fill="none" xmlns="http://www.w3.org/2000/svg">
<g clip-path="url(#clip0_15_158)">
<path d="M73.1251 28.8118C72.6068 27.5654 73.1972 26.1287 74.4502 25.6105C75.6966 25.0923 77.1333 25.6827 77.6515 26.9356C78.6224 29.2579 79.3702 31.6786 79.8688 34.1845C80.3608 36.6314 80.6166 39.1636 80.6166 41.7548C80.6166 51.5687 76.943 60.5232 70.8946 67.326C64.7806 74.2009 56.2394 78.8717 46.6093 79.9934C45.2645 80.1443 44.0508 79.18 43.8934 77.8352C43.7425 76.4904 44.7068 75.2768 46.0517 75.1193C54.442 74.1419 61.8942 70.0681 67.2341 64.0656C72.5084 58.1353 75.7097 50.3223 75.7097 41.7548C75.7097 39.4916 75.4867 37.2809 75.0603 35.1423C74.6142 32.9315 73.9647 30.8192 73.1251 28.8118ZM55.9574 32.5117C55.9442 32.5904 55.9114 32.6691 55.8721 32.7413C55.8196 32.9184 55.7802 33.1218 55.7671 33.3514C55.7671 33.3711 55.7671 33.3973 55.7671 33.417L54.7503 48.3083C54.9077 48.7872 55.1177 49.1546 55.3801 49.3907C55.6228 49.6138 55.9311 49.7319 56.3182 49.745C56.3444 49.745 56.3772 49.745 56.4034 49.745L60.674 50.0402C60.6806 50.0402 60.6937 50.0402 60.7068 50.0402C61.3694 50.1189 61.8614 49.9746 62.2091 49.6269C62.6027 49.2333 62.8585 48.5707 62.9963 47.672V47.6589L65.2136 34.3157C65.2136 34.296 65.2136 34.2698 65.2202 34.2501C65.3645 33.4957 65.2267 32.984 64.8725 32.6691C64.4592 32.3083 63.7573 32.1181 62.8257 32.0525C62.8061 32.0525 62.7864 32.0525 62.7601 32.0525L57.9516 31.7245V31.7179C57.2169 31.6654 56.6658 31.777 56.3182 32.0525C56.1607 32.1706 56.0492 32.3214 55.9574 32.5117ZM50.1255 48.6626C50.0271 48.5576 49.968 48.4264 49.9418 48.2821L43.9262 35.4637C43.2505 34.1386 42.5683 34.0599 41.8729 34.4075C41.3809 34.6568 40.8561 35.0767 40.3247 35.4965C40.0033 35.7524 39.6884 36.0016 39.4194 36.1984L38.173 37.0906L38.1665 37.0972C37.2612 37.7269 36.2706 38.0353 35.3456 38.0484C34.7355 38.0615 34.1583 37.9434 33.64 37.7007C33.1087 37.458 32.6494 37.0972 32.3214 36.6183C31.9672 36.1066 31.7507 35.4703 31.7376 34.7421C31.7376 34.7421 31.9016 34.2895 31.9344 34.2567L35.9885 30.0582C35.2013 29.9926 34.4928 30.0517 33.8237 30.2091C32.8003 30.4518 31.8294 30.9307 30.7667 31.5605C30.6421 31.6458 30.4912 31.6851 30.3337 31.6786L26.0172 31.3834L25.4596 39.5375L25.1185 44.7528L27.631 44.9233C27.8737 44.9365 28.0968 45.0808 28.2017 45.3104L30.9504 50.9652C31.3506 51.7917 31.7048 52.5002 32.1771 52.9856C32.6166 53.4449 33.2202 53.7466 34.1714 53.8385C34.5256 53.8713 34.8733 53.8385 35.2013 53.7269C35.4047 53.6613 35.608 53.5629 35.8114 53.4317L34.0467 49.5154C33.8893 49.1677 34.0467 48.761 34.3944 48.6101C34.7421 48.4526 35.1488 48.6101 35.2997 48.9578L37.2153 53.2218C38.0025 53.6941 38.7372 53.8713 39.4129 53.7794C40.0295 53.6876 40.6265 53.3661 41.2103 52.8085L38.3829 47.6195C38.2058 47.2915 38.3239 46.8717 38.6585 46.688C38.9865 46.5109 39.4063 46.6289 39.59 46.9635L42.5683 52.428C43.139 52.7101 43.6966 52.802 44.2411 52.6904C44.7593 52.5855 45.2973 52.2903 45.8417 51.7983L43.2112 45.9008C43.0537 45.5531 43.2112 45.1398 43.5588 44.9889C43.9065 44.8315 44.3198 44.9889 44.4707 45.3432L47.1997 51.444C47.5933 51.7064 48.059 51.7983 48.5117 51.7589C48.9118 51.7196 49.3055 51.5752 49.6335 51.3522C49.9483 51.1357 50.2107 50.8405 50.3419 50.4994C50.4928 50.1255 50.5125 49.6794 50.3419 49.1808L50.1255 48.6626ZM53.5695 49.0824L51.7392 48.9578C51.936 49.6991 51.877 50.3813 51.6408 50.9783C51.3981 51.5884 50.9651 52.0935 50.4338 52.4608C49.9155 52.8151 49.2989 53.0447 48.656 53.1037C48.0328 53.1628 47.3965 53.0644 46.8126 52.7757C46.0713 53.4514 45.3038 53.8581 44.5297 54.0221C43.7491 54.1796 42.975 54.0812 42.2075 53.7532C41.4071 54.5273 40.5478 54.993 39.6228 55.1242C38.6847 55.262 37.7138 55.0521 36.7036 54.4945C36.3624 54.7241 36.0082 54.9012 35.6408 55.0258C35.1226 55.203 34.5912 55.262 34.0402 55.203C32.7216 55.0718 31.8622 54.6257 31.1997 53.9434C30.5633 53.294 30.1632 52.4936 29.7105 51.5621L27.139 46.2681L24.8758 46.1107C24.6986 46.7601 24.4297 46.8914 24.0623 47.3112C23.2358 48.2362 22.5207 48.7216 21.2481 48.6494C19.3981 48.5445 16.1181 48.7872 15.0554 47.3834C14.5174 46.6683 14.196 45.5531 14.1369 43.9328C14.1369 43.9131 14.1369 43.8934 14.1304 43.8737L13.9795 31.1603C13.868 29.7827 14.1632 28.8315 14.7536 28.2148C15.3506 27.5851 16.2099 27.3424 17.2333 27.3686C17.2661 27.3686 17.2923 27.3686 17.3186 27.3686L22.5404 27.7294V27.736C23.5244 27.7884 24.3641 28.018 24.9807 28.4772C25.4793 28.8446 25.8139 29.3432 25.9647 29.9992L30.2222 30.2878C31.344 29.6384 32.3805 29.1464 33.5088 28.8708C34.6175 28.6084 35.7917 28.5691 37.1693 28.8315L38.7241 27.2308C38.7503 27.198 38.7765 27.1718 38.8159 27.1456C39.2489 26.7847 39.7278 26.5027 40.2329 26.2796C40.7642 26.0435 41.3284 25.8795 41.9123 25.7679C42.8372 25.5974 43.8016 25.5711 44.7331 25.6499C45.7893 25.7417 46.8061 25.9713 47.6786 26.2599C49.3448 26.8241 50.7421 27.9524 52.0935 29.048C52.3952 29.2907 52.697 29.54 53.0578 29.8089C53.0709 29.8155 53.0841 29.8286 53.0972 29.8352L55.0652 31.3571C55.1767 31.2194 55.3079 31.0947 55.4522 30.9832C56.082 30.4912 56.9414 30.2878 58.0303 30.36V30.3534L62.8389 30.6814C62.8586 30.6814 62.8782 30.6814 62.8914 30.688C64.1246 30.7667 65.1087 31.0619 65.7647 31.6458C66.4928 32.2952 66.7946 33.2267 66.5519 34.5125C66.5519 34.5256 66.5453 34.5322 66.5453 34.5453L64.328 47.8754C64.1509 49.0693 63.7638 49.9877 63.1538 50.5978C62.5043 51.2538 61.6449 51.5359 60.5494 51.4112L56.2788 51.116H56.2722C55.531 51.1029 54.9143 50.8602 54.4157 50.401C54.0746 50.073 53.786 49.6269 53.5695 49.0824ZM19.2341 41.4924C19.7458 41.5252 20.1328 41.9713 20.1 42.4895C20.0672 43.0012 19.6212 43.3948 19.1029 43.3555C18.5912 43.3227 18.2042 42.8766 18.237 42.3649C18.2698 41.8532 18.7159 41.4531 19.2341 41.4924ZM59.7228 44.2608C60.2345 44.2936 60.6216 44.7397 60.5888 45.2513C60.556 45.763 60.1099 46.1566 59.5916 46.1173C59.0799 46.0845 58.6863 45.6384 58.7257 45.1267C58.7585 44.615 59.2046 44.228 59.7228 44.2608ZM24.2001 37.8516L24.6724 31.0029C24.6986 30.6421 24.469 30.1894 24.1804 29.9729C23.7999 29.6909 23.2095 29.5465 22.4748 29.5072L17.2333 29.1529C16.7544 29.1201 16.0984 29.212 15.7507 29.5728C15.4293 29.9073 15.2784 30.5174 15.3571 31.4818C15.3571 31.5014 15.3571 31.5211 15.3571 31.5408L15.508 43.4473V43.467C15.5539 44.7856 15.7835 45.6449 16.1509 46.1369C16.4789 46.5765 22.0615 47.4752 23.0258 46.3862C23.4063 45.9533 23.6294 45.2579 23.7146 44.3395H23.7081L24.1804 37.8385L24.2001 37.8516ZM70.1599 15.9213L54.2714 18.7683L57.5646 14.0976C52.5461 8.74457 46.9635 6.82247 40.2919 8.81017C47.3637 0.0459209 56.7642 0.0328005 64.1181 4.76917L67.4703 0L70.1599 15.9213ZM25.6958 59.9787L22.4026 64.6494C27.4211 70.0025 33.0037 71.9246 39.6753 69.9369C32.597 78.6945 23.1964 78.7077 15.8426 73.9713L12.4838 78.7405L9.80074 62.8257L25.6958 59.9787ZM8.20664 53.4908C8.79705 54.7109 8.28536 56.1738 7.06519 56.7577C5.84502 57.3481 4.38212 56.8364 3.79828 55.6162C2.56499 53.0578 1.60722 50.3419 0.96433 47.4949C0.334563 44.72 0 41.8598 0 38.9406C0 29.3301 3.52932 20.533 9.36777 13.7827C15.2784 6.94055 23.5572 2.20418 32.9315 0.839688C34.2698 0.649446 35.5096 1.58098 35.6999 2.91923C35.8901 4.25748 34.9586 5.49734 33.6203 5.68758C25.4465 6.87495 18.2239 11.0078 13.0611 16.9774C7.9836 22.8684 4.90693 30.5371 4.90693 38.9406C4.90693 41.5318 5.19557 44.0377 5.7335 46.4256C6.29766 48.8856 7.13079 51.2538 8.20664 53.4908Z" fill="#00880F"/>
</g>
<defs>
<clipPath id="clip0_15_158">
<rect width="80.6101" height="80" fill="white"/>
</clipPath>
</defs>
</svg>
