<svg width="144" height="81" viewBox="0 0 144 81" fill="none" xmlns="http://www.w3.org/2000/svg">
<path d="M44.1788 15.372V49.9893H42.7521V15.372H44.1788Z" fill="#00880F"/>
<path d="M101.247 16.5163V48.1068H99.8197V16.5163H101.247Z" fill="#00880F"/>
<path d="M143.998 56.9999H1.52588e-05V47.7506H143.998V56.9999Z" fill="#00880F"/>
<path d="M62.2492 28.9142V48H60.7492V28.9142H62.2492Z" fill="#00880F"/>
<path d="M83.249 28.9141V47.9999H81.749V28.9141H83.249Z" fill="#00880F"/>
<path d="M136.499 24.9192V48H134.999V24.9192H136.499Z" fill="#00880F"/>
<path d="M8.99914 27.2473V47.9999H7.49915V27.2473H8.99914Z" fill="#00880F"/>
<path fill-rule="evenodd" clip-rule="evenodd" d="M142.164 32.2368L142.986 29.3464C135.577 26.4508 121.429 9.18854 118.052 2.18673L117.039 0.0880928L115.557 1.8903C107.624 11.5357 85.1649 29.9823 72.0003 29.9823C56.0096 29.9823 39.5887 9.98655 27.0858 0.366213C20.0371 8.87824 11.1608 25.3813 1.01411 29.3464L1.83661 32.2368C11.4994 28.6138 22.1257 13.3562 26.7089 4.33366C40.3661 14.4828 54.7287 32.9593 71.9885 32.9593H72.0119C84.6375 32.9593 107.057 16.5874 114.916 7.30797L116.375 5.58503L117.397 7.59808C120.571 13.8456 135.555 29.7591 142.164 32.2369L142.164 32.2368Z" fill="#00880F"/>
<path d="M120 1.52831V81H114V1.52831L116.999 0L120 1.52831Z" fill="#00880F"/>
<path d="M29.9998 1.52831V81H23.9997V1.52831L26.9994 0L29.9998 1.52831Z" fill="#00880F"/>
</svg>
