<svg width="837" height="120" viewBox="0 0 837 120" fill="none" xmlns="http://www.w3.org/2000/svg">
<path d="M0 60C0 93.1371 26.8629 120 60 120H60.9917H61.9834C95.1205 120 121.983 93.1371 121.983 60C121.983 26.8629 95.1205 0 61.9834 0H60.9917H60C26.8629 0 0 26.8629 0 60ZM65.5537 20.6281C69.5928 30.6958 79.1915 37.4324 90.0328 37.8081L92.2313 37.8843C94.2654 37.9393 96.2386 38.001 98.1052 38.067C107.737 38.4077 109.447 42.7378 102.184 49.0728C102.139 49.1119 102.094 49.1509 102.049 49.1901C92.4297 57.6198 91.2396 59.1074 92.7272 60C105.62 67.5372 104.727 79.5372 90.5454 86.7769C87.8132 88.0779 86.6635 90.3885 87.2579 93.3557C87.5405 94.7667 87.8844 96.4201 88.2644 98.1818C88.4499 99.042 88.6268 99.882 88.7912 100.685C89.7556 105.394 87.7018 106.732 83.8698 103.83C82.6849 102.932 81.3863 101.927 80.033 100.86L76.3368 97.9415C72.6732 95.0491 68.0045 93.7429 63.3718 94.314C59.3057 94.9091 52.8595 95.0083 48.9917 94.7107C42.4462 94.1157 41.5537 94.314 37.7851 96.595C32.4297 99.9669 31.6363 99.8678 32.8264 96C33.3223 94.2149 33.719 92.7273 33.719 92.6281C33.719 92.5289 31.6363 91.7355 29.157 90.7438C26.6777 89.8512 23.1074 87.4711 21.2231 85.686C14.6777 79.1405 17.3554 69.8182 27.4711 63.9669C31.0797 61.8515 31.4804 58.7695 28.7089 55.6364C27.7913 54.599 26.7657 53.4549 25.6859 52.2645C24.8968 51.3944 24.1407 50.5491 23.4387 49.753C20.2592 46.1475 21.2891 43.5484 26.0138 42.6616C27.9882 42.2911 30.2493 41.8782 32.6281 41.4545C40.8235 40.0479 47.6013 34.2873 50.3106 26.4258L51.9669 21.6198C55.3388 11.9008 58.2148 3.96694 58.5123 3.96694C58.8099 3.96694 61.9834 11.5041 65.5537 20.6281Z" fill="#08B008"/>
<path d="M84.0001 64.9587C82.3504 66.425 81.6374 68.6777 82.143 70.8262L82.9092 74.0826C83.7026 77.752 84.5951 81.0248 84.7935 81.2231C85.686 82.1157 91.1406 77.0578 92.2315 74.3801C93.3224 71.7024 93.3224 70.7107 91.934 67.9339C89.5538 62.9752 87.372 62.1818 84.0001 64.9587Z" fill="#08B008"/>
<path d="M32.9257 65.9504C28.2646 69.1239 26.8762 71.4049 26.777 75.5702C26.777 78.3471 27.4712 79.7355 29.8514 81.719C31.5373 83.1074 33.4216 84.2975 34.0166 84.2975C34.7109 84.2975 35.9009 80.5289 36.8927 75.0743C38.9753 64.0661 38.1819 62.281 32.9257 65.9504Z" fill="#08B008"/>
<path d="M55.0417 86.2809C54.1505 86.8751 54.5711 88.2644 55.6423 88.2644H57.9178H60.5159C61.5724 88.2644 62.0279 86.9251 61.1905 86.2809C58.2153 83.9008 58.7112 83.9008 55.0417 86.2809Z" fill="#08B008"/>
<path d="M148.106 81.12C146.879 81.12 145.626 81.04 144.346 80.88C140.986 80.4533 138.506 79.4667 136.906 77.92C135.359 76.32 134.586 74.6133 134.586 72.8C134.586 70.8267 135.439 69.04 137.146 67.44C138.906 65.84 141.386 65.04 144.586 65.04C146.719 65.04 149.039 65.4667 151.546 66.32C152.612 66.64 153.919 67.2 155.466 68C157.066 68.7467 158.639 69.52 160.186 70.32C161.732 71.12 162.932 71.76 163.786 72.24C166.132 69.9467 168.292 67.3067 170.266 64.32C172.292 61.28 174.212 58.0533 176.026 54.64C177.839 51.1733 179.679 47.68 181.546 44.16C183.412 40.64 185.359 37.2267 187.386 33.92C189.466 30.56 191.759 27.4933 194.266 24.72C191.492 23.0133 188.426 21.7067 185.066 20.8C181.759 19.84 178.346 19.36 174.826 19.36C173.492 19.36 172.132 19.44 170.746 19.6C169.412 19.76 168.052 19.9733 166.666 20.24C161.706 21.3067 157.519 23.0133 154.106 25.36C150.692 27.6533 148.106 30.1867 146.346 32.96C144.639 35.68 143.786 38.2667 143.786 40.72C143.786 42.5333 144.266 44.1333 145.226 45.52C146.186 46.9067 147.652 47.8933 149.626 48.48C151.066 48.9067 152.319 49.12 153.386 49.12C155.146 49.12 156.666 48.7733 157.946 48.08C159.279 47.3333 160.399 46.4267 161.306 45.36C162.212 44.2933 162.879 43.2533 163.306 42.24C163.786 41.2267 164.052 40.4 164.106 39.76C164.106 39.3867 164.346 39.2 164.826 39.2C165.572 39.2 165.866 39.6533 165.706 40.56C165.439 42.6933 164.639 44.56 163.306 46.16C161.972 47.7067 160.372 48.9333 158.506 49.84C156.639 50.6933 154.719 51.12 152.746 51.12C151.466 51.12 150.132 50.9067 148.746 50.48C146.292 49.6267 144.212 48.16 142.506 46.08C140.852 43.9467 140.026 41.44 140.026 38.56C140.026 35.7333 140.959 32.9067 142.826 30.08C144.746 27.2 147.786 24.6133 151.946 22.32C156.106 20.0267 161.546 18.4 168.266 17.44C170.506 17.12 172.772 16.96 175.066 16.96C178.852 16.96 182.559 17.4133 186.186 18.32C189.866 19.2267 193.332 20.5333 196.586 22.24L198.586 19.92C199.066 19.4933 199.732 18.96 200.586 18.32C201.492 17.68 202.399 17.0667 203.306 16.48C204.212 15.8933 204.879 15.52 205.306 15.36C205.999 15.0933 206.559 14.96 206.986 14.96C207.306 14.96 207.466 15.04 207.466 15.2C207.466 15.5733 207.039 16.0267 206.186 16.56C205.652 16.9333 205.172 17.36 204.746 17.84C204.319 18.2667 203.999 18.6133 203.786 18.88C202.986 20 202.346 20.9067 201.866 21.6C201.439 22.2933 200.852 23.2 200.106 24.32C205.012 27.5733 209.012 31.7867 212.106 36.96C215.199 42.08 216.746 47.9467 216.746 54.56C216.746 55.9467 216.666 57.36 216.506 58.8C216.186 62.2133 215.252 65.3067 213.706 68.08C212.159 70.8533 210.132 73.2 207.626 75.12C205.172 77.04 202.426 78.5067 199.386 79.52C196.399 80.5867 193.252 81.12 189.946 81.12C188.719 81.12 187.492 81.04 186.266 80.88C181.039 80.24 176.719 79.3867 173.306 78.32C169.946 77.3067 166.986 76.24 164.426 75.12C159.572 79.12 154.132 81.12 148.106 81.12ZM188.586 78.72C192.852 78.72 196.612 77.8133 199.866 76C203.172 74.1333 205.839 71.7067 207.866 68.72C209.892 65.7333 211.092 62.5067 211.466 59.04C211.626 57.76 211.706 56.48 211.706 55.2C211.706 49.3867 210.452 44.1067 207.946 39.36C205.492 34.56 202.239 30.5333 198.186 27.28C195.839 30.96 193.412 34.8533 190.906 38.96C188.452 43.0667 185.972 47.1467 183.466 51.2C180.959 55.2 178.506 58.9067 176.106 62.32C173.759 65.7333 171.546 68.56 169.466 70.8C169.092 71.12 168.612 71.6 168.026 72.24C167.492 72.8267 166.932 73.3067 166.346 73.68C168.852 74.8 171.706 75.8133 174.906 76.72C178.106 77.6267 181.866 78.2667 186.186 78.64C186.666 78.6933 187.066 78.72 187.386 78.72C187.759 78.72 188.159 78.72 188.586 78.72ZM146.346 78.64C149.279 78.8 152.026 78.4533 154.586 77.6C157.146 76.6933 159.519 75.44 161.706 73.84C159.786 72.9333 157.839 72 155.866 71.04C153.892 70.0267 151.812 69.12 149.626 68.32C148.186 67.84 146.906 67.6 145.786 67.6C143.812 67.6 142.319 68.16 141.306 69.28C140.292 70.3467 139.786 71.5467 139.786 72.88C139.786 74.32 140.346 75.6267 141.466 76.8C142.586 77.92 144.212 78.5333 146.346 78.64ZM225.988 78.32C224.015 78.32 222.228 77.68 220.628 76.4C219.081 75.12 218.308 73.1733 218.308 70.56C218.308 68.16 218.895 65.6 220.068 62.88C221.241 60.1067 222.735 57.68 224.548 55.6C226.095 53.7867 227.828 52.2933 229.748 51.12C231.668 49.9467 233.481 49.36 235.188 49.36C236.361 49.36 237.375 49.68 238.228 50.32C239.135 51.0133 239.588 52 239.588 53.28C239.588 54.6133 239.081 56.08 238.068 57.68C237.055 59.28 235.615 60.7733 233.748 62.16C232.948 62.7467 231.935 63.3067 230.708 63.84C229.481 64.3733 228.255 64.8267 227.028 65.2C225.801 65.52 224.788 65.68 223.988 65.68C223.721 66.32 223.455 67.1733 223.188 68.24C222.975 69.3067 222.868 70.4 222.868 71.52C222.868 72.8533 223.135 74.0533 223.668 75.12C224.201 76.1867 225.188 76.72 226.628 76.72C228.388 76.72 229.988 76.2133 231.428 75.2C232.868 74.1867 234.148 72.9333 235.268 71.44C236.388 69.8933 237.321 68.3467 238.068 66.8C238.868 65.2533 239.508 63.9467 239.988 62.88C240.308 62.1333 240.735 61.76 241.268 61.76C241.535 61.76 241.668 61.8933 241.668 62.16C241.668 62.3733 241.588 62.64 241.428 62.96C240.681 64.56 239.881 66.2667 239.028 68.08C238.175 69.84 237.161 71.52 235.988 73.12C234.815 74.6667 233.401 75.92 231.748 76.88C230.148 77.84 228.228 78.32 225.988 78.32ZM224.548 64.24C225.295 64.24 226.548 63.9733 228.308 63.44C230.068 62.8533 231.668 61.9467 233.108 60.72C234.495 59.4933 235.561 58.16 236.308 56.72C237.055 55.2267 237.428 53.9733 237.428 52.96C237.428 51.7867 237.001 51.2 236.148 51.2C235.508 51.2 234.628 51.6267 233.508 52.48C232.388 53.3333 231.001 54.7733 229.348 56.8C228.335 58.08 227.375 59.4667 226.468 60.96C225.561 62.4533 224.921 63.5467 224.548 64.24ZM257.912 78.16C257.592 78.16 257.299 78.1333 257.032 78.08C256.819 78.08 256.525 78.0533 256.152 78C254.819 77.7333 253.885 77.0133 253.352 75.84C252.872 74.6133 252.632 73.3067 252.632 71.92C252.632 71.0667 252.685 70.24 252.792 69.44C252.952 68.5867 253.139 67.84 253.352 67.2C252.872 68.0533 252.259 69.0933 251.512 70.32C250.765 71.4933 249.912 72.6667 248.952 73.84C247.992 75.0133 246.979 76 245.912 76.8C244.845 77.6 243.752 78 242.632 78C241.512 78 240.472 77.68 239.512 77.04C238.552 76.4 237.939 75.4933 237.672 74.32C237.619 74.0533 237.565 73.8133 237.512 73.6C237.512 73.3333 237.512 73.0933 237.512 72.88C237.512 71.4933 237.832 70.16 238.472 68.88C239.165 67.5467 239.805 66.2667 240.392 65.04C240.232 65.04 240.045 64.9867 239.832 64.88C239.672 64.7733 239.592 64.6133 239.592 64.4C239.592 64.1867 239.645 63.9733 239.752 63.76C239.912 63.4933 239.992 63.3333 239.992 63.28C240.045 63.1733 240.125 62.9867 240.232 62.72C240.392 62.4 240.685 61.8133 241.112 60.96C241.592 59.9467 242.179 58.7467 242.872 57.36C243.619 55.9733 244.259 54.7467 244.792 53.68C245.379 52.6133 245.672 52.08 245.672 52.08C246.259 50.9067 247.272 50.32 248.712 50.32H253.672C252.765 51.0133 251.939 51.7867 251.192 52.64C250.499 53.44 249.619 54.9333 248.552 57.12C248.552 57.12 248.365 57.4933 247.992 58.24C247.619 58.9867 247.139 59.92 246.552 61.04C246.019 62.16 245.459 63.3067 244.872 64.48C244.339 65.6533 243.885 66.6667 243.512 67.52C242.979 68.6933 242.579 69.7867 242.312 70.8C242.045 71.8133 241.912 72.6933 241.912 73.44C241.912 75.3067 242.525 76.24 243.752 76.24C244.605 76.24 245.565 75.7067 246.632 74.64C247.859 73.4667 249.112 71.84 250.392 69.76C251.725 67.6267 253.005 65.3867 254.232 63.04C255.459 60.6933 256.552 58.5333 257.512 56.56C258.472 54.5333 259.192 53.04 259.672 52.08C259.939 51.4933 260.285 51.0667 260.712 50.8C261.192 50.48 261.859 50.32 262.712 50.32H267.592C267.272 50.64 266.792 50.9867 266.152 51.36C265.565 51.7333 264.979 52.4 264.392 53.36C263.645 54.64 262.979 55.84 262.392 56.96C261.805 58.0267 261.005 59.6533 259.992 61.84C259.779 62.32 259.352 63.2533 258.712 64.64C258.125 66.0267 257.565 67.5467 257.032 69.2C256.499 70.8533 256.232 72.3467 256.232 73.68C256.232 74.5333 256.419 75.2267 256.792 75.76C257.165 76.2933 257.779 76.56 258.632 76.56C260.125 76.56 261.539 75.92 262.872 74.64C264.259 73.36 265.565 71.6533 266.792 69.52C268.019 67.3867 269.112 65.0667 270.072 62.56C269.432 60.96 269.112 59.2267 269.112 57.36C269.112 56.24 269.219 55.28 269.432 54.48C270.072 52.4 270.925 50.9067 271.992 50C273.059 49.0933 273.992 48.64 274.792 48.64C275.699 48.64 276.152 49.0933 276.152 50C276.152 50.2133 276.072 50.5333 275.912 50.96C275.805 50.96 275.752 51.0667 275.752 51.28C275.432 52.3467 274.952 53.9467 274.312 56.08C273.672 58.2133 272.845 60.5333 271.832 63.04C270.819 65.5467 269.619 67.9467 268.232 70.24C266.899 72.5333 265.379 74.4267 263.672 75.92C261.965 77.4133 260.045 78.16 257.912 78.16ZM280.195 78.32C277.582 78.32 275.715 77.6533 274.595 76.32C273.528 74.9333 272.995 73.4933 272.995 72C272.995 70.7733 273.288 69.6533 273.875 68.64C274.515 67.6267 275.262 67.0933 276.115 67.04C277.182 64.96 278.328 62.6933 279.555 60.24C280.835 57.7867 282.008 55.4133 283.075 53.12C283.822 51.5733 284.755 50.08 285.875 48.64C287.048 47.2 288.328 46.3733 289.715 46.16H290.515C290.942 46.16 291.315 46.1867 291.635 46.24C292.008 46.2933 292.382 46.4 292.755 46.56C293.342 46.8267 293.635 47.2267 293.635 47.76C293.635 48.08 293.448 48.24 293.075 48.24C292.915 48.24 292.702 48.16 292.435 48C291.795 47.7333 291.235 47.6 290.755 47.6C290.435 47.6 290.142 47.68 289.875 47.84C288.862 48.3733 288.142 49.12 287.715 50.08C287.342 51.04 287.155 52.0533 287.155 53.12C287.155 53.9733 287.235 54.8533 287.395 55.76C287.608 56.6133 287.848 57.3867 288.115 58.08C288.702 59.5733 289.315 61.04 289.955 62.48C290.648 63.92 290.995 65.4667 290.995 67.12C290.995 68.72 290.462 70.4267 289.395 72.24C288.328 74 286.968 75.4133 285.315 76.48L285.875 76.56C286.142 76.6133 286.328 76.64 286.435 76.64C286.542 76.64 286.622 76.64 286.675 76.64C287.902 76.64 289.048 76.2933 290.115 75.6C291.235 74.8533 292.222 73.9467 293.075 72.88C293.928 71.8133 294.888 70.32 295.955 68.4C297.075 66.48 298.142 64.4533 299.155 62.32C299.315 62.0533 299.502 61.92 299.715 61.92C299.982 61.92 300.168 62.0267 300.275 62.24C300.435 62.4 300.462 62.6133 300.355 62.88C299.662 64.3733 298.862 66 297.955 67.76C297.102 69.4667 296.115 71.12 294.995 72.72C293.875 74.2667 292.568 75.5467 291.075 76.56C289.635 77.52 288.008 78 286.195 78C285.768 78 285.315 77.9733 284.835 77.92C284.355 77.8667 283.875 77.76 283.395 77.6C282.862 77.8133 282.302 77.9733 281.715 78.08C281.182 78.24 280.675 78.32 280.195 78.32ZM282.595 75.92C283.502 75.1733 284.302 74.08 284.995 72.64C285.742 71.2 286.115 69.3067 286.115 66.96C286.115 64.88 285.902 62.6667 285.475 60.32C285.048 57.9733 284.835 55.8933 284.835 54.08C284.835 53.7067 284.835 53.3867 284.835 53.12C284.888 52.8 284.942 52.5067 284.995 52.24C284.302 53.68 283.502 55.36 282.595 57.28C281.688 59.1467 280.782 60.96 279.875 62.72C278.968 64.48 278.195 65.9733 277.555 67.2C277.555 67.2 277.688 67.2267 277.955 67.28C278.275 67.28 278.568 67.4667 278.835 67.84C279.102 68.16 279.208 68.8267 279.155 69.84C279.102 71.1733 279.395 72.4267 280.035 73.6C280.728 74.72 281.582 75.4933 282.595 75.92ZM279.555 77.04C279.875 77.04 280.168 77.0133 280.435 76.96C280.702 76.8533 280.942 76.7733 281.155 76.72C280.355 76.1333 279.635 75.36 278.995 74.4C278.408 73.3867 278.062 72.1067 277.955 70.56C276.995 71.5733 276.515 72.6667 276.515 73.84C276.515 74.6933 276.782 75.44 277.315 76.08C277.848 76.72 278.595 77.04 279.555 77.04ZM302.822 78C301.329 78 299.995 77.4933 298.822 76.48C297.649 75.4133 297.062 73.76 297.062 71.52C297.062 69.76 297.382 67.6 298.022 65.04C298.715 62.4267 299.542 59.7333 300.502 56.96C301.515 54.1333 302.502 51.5733 303.462 49.28H299.222C298.849 49.28 298.662 49.0133 298.662 48.48C298.662 48.2133 298.715 47.9733 298.822 47.76C298.982 47.5467 299.195 47.44 299.462 47.44H304.262C305.169 45.4133 306.129 43.44 307.142 41.52C308.155 39.6 309.142 37.7867 310.102 36.08C311.329 33.9467 312.635 32.3467 314.022 31.28C315.409 30.2133 316.609 29.68 317.622 29.68C318.422 29.68 319.089 30 319.622 30.64C320.155 31.2267 320.422 32.1333 320.422 33.36C320.422 34.1067 320.262 35.1467 319.942 36.48C319.622 37.76 319.115 39.12 318.422 40.56C318.049 41.3067 317.515 42.3733 316.822 43.76C316.182 45.1467 315.542 46.3733 314.902 47.44H318.742C319.115 47.44 319.302 47.7067 319.302 48.24C319.302 48.4533 319.249 48.6933 319.142 48.96C319.035 49.1733 318.875 49.28 318.662 49.28H313.942C312.609 51.5733 311.089 53.8133 309.382 56C307.675 58.1867 305.649 60.3733 303.302 62.56C303.142 63.04 302.929 63.7333 302.662 64.64C302.449 65.5467 302.235 66.48 302.022 67.44C301.862 68.3467 301.702 69.12 301.542 69.76C301.435 70.4 301.382 70.72 301.382 70.72C301.222 71.4133 301.142 72.0533 301.142 72.64C301.142 73.76 301.409 74.5867 301.942 75.12C302.475 75.6 303.089 75.84 303.782 75.84C304.209 75.84 304.635 75.7867 305.062 75.68C305.489 75.52 305.969 75.2533 306.502 74.88C308.369 73.5467 309.995 71.7333 311.382 69.44C312.822 67.1467 314.075 64.9333 315.142 62.8C315.462 62.16 315.782 61.84 316.102 61.84C316.315 61.84 316.422 62 316.422 62.32C316.422 62.48 316.342 62.7733 316.182 63.2C315.009 65.6533 314.022 67.6267 313.222 69.12C312.422 70.6133 311.649 71.8667 310.902 72.88C310.155 73.84 309.275 74.8 308.262 75.76C307.515 76.5067 306.662 77.0667 305.702 77.44C304.742 77.8133 303.782 78 302.822 78ZM309.142 47.44H313.222C313.969 46.0533 314.662 44.6933 315.302 43.36C315.995 42.0267 316.609 40.6933 317.142 39.36C317.515 38.5067 317.835 37.5467 318.102 36.48C318.369 35.4133 318.502 34.5867 318.502 34C318.502 33.2 318.315 32.8 317.942 32.8C317.675 32.8 317.275 33.04 316.742 33.52C316.262 33.9467 315.649 34.6933 314.902 35.76C313.942 37.0933 312.982 38.8267 312.022 40.96C311.115 43.04 310.155 45.2 309.142 47.44ZM303.942 60C305.489 58.4 306.929 56.6933 308.262 54.88C309.649 53.0667 310.929 51.2 312.102 49.28H308.342C307.489 51.2533 306.689 53.1733 305.942 55.04C305.195 56.9067 304.529 58.56 303.942 60ZM332.276 78.24C331.689 78.2933 331.022 78.16 330.276 77.84C329.529 77.52 328.862 76.9333 328.276 76.08C327.742 75.2267 327.476 74.0267 327.476 72.48C327.476 71.2 327.716 69.6533 328.196 67.84C327.556 68.8533 326.729 70.1067 325.716 71.6C324.702 73.04 323.609 74.32 322.436 75.44C321.422 76.4 320.462 77.0933 319.556 77.52C318.649 77.9467 317.822 78.16 317.076 78.16C315.689 78.16 314.569 77.5467 313.716 76.32C312.862 75.04 312.436 73.3867 312.436 71.36C312.436 69.2267 312.969 66.8 314.036 64.08C315.102 61.36 316.836 58.5333 319.236 55.6C320.782 53.7333 322.649 52.24 324.836 51.12C327.076 49.9467 329.262 49.36 331.396 49.36C332.622 49.36 333.796 49.5733 334.916 50C336.036 50.3733 337.022 51.0133 337.876 51.92C338.249 52.2933 338.436 52.72 338.436 53.2C338.436 53.52 338.302 53.7867 338.036 54C337.769 54.2133 337.422 54.2667 336.996 54.16C336.409 52.2933 335.156 51.36 333.236 51.36C332.329 51.36 331.289 51.6533 330.116 52.24C328.302 53.2 326.409 54.7733 324.436 56.96C322.516 59.1467 320.836 61.4133 319.396 63.76C319.182 64.08 318.836 64.6933 318.356 65.6C317.929 66.5067 317.502 67.52 317.076 68.64C316.649 69.76 316.356 70.8533 316.196 71.92C316.142 72.24 316.116 72.48 316.116 72.64C316.116 72.7467 316.116 72.9333 316.116 73.2C316.116 74.96 316.782 75.84 318.116 75.84C319.716 75.84 321.529 74.6667 323.556 72.32C324.942 70.6133 326.196 68.8267 327.316 66.96C328.436 65.0933 329.582 63.0933 330.756 60.96C331.556 59.52 332.302 58.32 332.996 57.36C333.689 56.4 334.676 55.92 335.956 55.92C336.542 55.92 337.129 56 337.716 56.16C338.302 56.32 338.916 56.3467 339.556 56.24C339.129 56.6667 338.542 57.4667 337.796 58.64C337.102 59.8133 336.356 61.1467 335.556 62.64C334.756 64.1333 334.036 65.6533 333.396 67.2C332.756 68.7467 332.302 70.08 332.036 71.2C331.982 71.52 331.902 71.9733 331.796 72.56C331.742 73.1467 331.716 73.5733 331.716 73.84C331.716 75.3333 332.142 76.08 332.996 76.08C333.849 76.08 334.756 75.5733 335.716 74.56C336.729 73.5467 337.716 72.2933 338.676 70.8C339.636 69.3067 340.516 67.8133 341.316 66.32C342.116 64.7733 342.756 63.52 343.236 62.56C343.449 62.0267 343.769 61.76 344.196 61.76C344.462 61.76 344.596 61.9467 344.596 62.32C344.596 62.48 344.516 62.7733 344.356 63.2C343.716 64.5333 342.942 66.0533 342.036 67.76C341.129 69.4133 340.142 71.04 339.076 72.64C338.009 74.1867 336.889 75.4933 335.716 76.56C334.596 77.5733 333.449 78.1333 332.276 78.24ZM352.641 78.08C351.627 78.08 350.614 77.68 349.601 76.88C348.587 76.0267 348.081 74.6667 348.081 72.8C348.081 71.36 348.427 69.7067 349.121 67.84C349.761 66.0267 350.614 64.2667 351.681 62.56C352.801 60.8533 353.601 59.4667 354.081 58.4C354.241 57.9733 354.321 57.6 354.321 57.28C354.321 56.32 353.707 55.6267 352.481 55.2C351.307 54.7733 349.761 54.5333 347.841 54.48L346.881 57.12C346.294 58.8267 345.467 60.8267 344.401 63.12C343.387 65.4133 342.241 67.6267 340.961 69.76C339.734 71.8933 338.454 73.6 337.121 74.88C337.014 74.9867 336.881 75.04 336.721 75.04C336.507 75.04 336.374 74.9067 336.321 74.64C336.214 74.3733 336.321 74.0533 336.641 73.68C338.721 70.9067 340.587 67.84 342.241 64.48C343.894 61.0667 345.281 57.6 346.401 54.08C347.574 50.56 348.427 47.3067 348.961 44.32C349.121 43.4667 349.414 42.8533 349.841 42.48C350.267 42.0533 350.721 41.84 351.201 41.84C351.894 41.84 352.534 42.1867 353.121 42.88C353.707 43.52 354.001 44.4533 354.001 45.68C354.001 45.8933 353.974 46.1333 353.921 46.4C353.921 46.6667 353.894 46.9333 353.841 47.2C353.627 48.32 352.987 49.3867 351.921 50.4C350.907 51.36 350.081 52.08 349.441 52.56C349.974 52.6133 350.534 52.6667 351.121 52.72C351.707 52.72 352.347 52.72 353.041 52.72C355.547 52.72 358.027 52.56 360.481 52.24C360.587 52.56 360.641 52.8 360.641 52.96C360.641 53.6533 360.427 54.5333 360.001 55.6C359.627 56.6667 359.227 57.6267 358.801 58.48C358.587 58.96 358.161 59.84 357.521 61.12C356.881 62.3467 356.187 63.76 355.441 65.36C354.694 66.9067 354.054 68.4533 353.521 70C353.041 71.4933 352.801 72.7733 352.801 73.84C352.801 75.2267 353.334 75.92 354.401 75.92C355.201 75.92 356.081 75.4133 357.041 74.4C358.001 73.3333 358.934 72.0533 359.841 70.56C360.801 69.0133 361.654 67.52 362.401 66.08C363.201 64.5867 363.814 63.4133 364.241 62.56C364.454 62.0267 364.747 61.76 365.121 61.76C365.334 61.76 365.441 61.9467 365.441 62.32C365.441 62.5333 365.361 62.8533 365.201 63.28C364.614 64.5067 363.921 65.8933 363.121 67.44C362.321 68.9867 361.414 70.5067 360.401 72C359.441 73.4933 358.374 74.8 357.201 75.92C356.081 76.9867 354.854 77.68 353.521 78C353.361 78.0533 353.067 78.08 352.641 78.08ZM404.041 90.56C399.188 90.56 394.841 89.84 391.001 88.4C387.215 87.0133 384.228 84.96 382.041 82.24C379.855 79.52 378.761 76.2133 378.761 72.32C378.761 69.6533 379.375 66.6933 380.601 63.44C381.295 61.6267 382.335 59.9467 383.721 58.4C385.161 56.8 386.628 55.4933 388.121 54.48C389.615 53.4667 390.788 52.9333 391.641 52.88H391.881C392.361 52.88 392.601 52.96 392.601 53.12C392.601 53.3867 392.255 53.68 391.561 54C390.708 54.3733 389.615 55.1733 388.281 56.4C387.001 57.6267 385.775 59.1467 384.601 60.96C383.428 62.72 382.548 64.72 381.961 66.96C381.748 67.7067 381.588 68.4533 381.481 69.2C381.428 69.9467 381.401 70.6667 381.401 71.36C381.401 74.24 382.068 76.72 383.401 78.8C384.788 80.88 386.601 82.5867 388.841 83.92C391.135 85.3067 393.641 86.32 396.361 86.96C399.081 87.6533 401.801 88 404.521 88C405.748 88 406.948 87.92 408.121 87.76C409.348 87.6533 410.495 87.4667 411.561 87.2C416.255 86.0267 420.521 84.24 424.361 81.84C428.201 79.44 431.641 76.6933 434.681 73.6C437.775 70.5067 440.468 67.3067 442.761 64C445.055 60.64 447.001 57.4133 448.601 54.32C450.201 51.2267 451.428 48.48 452.281 46.08C453.881 41.8133 455.481 37.8933 457.081 34.32C458.735 30.7467 460.228 27.7333 461.561 25.28C462.895 22.7733 463.855 21.04 464.441 20.08C461.561 20.72 458.468 21.4667 455.161 22.32C451.908 23.12 448.681 24.16 445.481 25.44C442.281 26.6667 439.268 28.1867 436.441 30C433.668 31.8133 431.295 34 429.321 36.56C427.348 39.12 425.961 42.1333 425.161 45.6C424.895 46.8267 424.761 47.8933 424.761 48.8C424.761 51.1467 425.321 53.0667 426.441 54.56C427.615 56 429.188 56.72 431.161 56.72C432.281 56.72 433.428 56.48 434.601 56C436.575 55.2 438.095 54.16 439.161 52.88C440.281 51.5467 441.055 50.1867 441.481 48.8C441.908 47.36 442.121 46.08 442.121 44.96C442.121 43.36 441.881 42.3733 441.401 42C441.401 41.9467 441.375 41.92 441.321 41.92C441.321 41.92 441.321 41.8933 441.321 41.84C441.321 41.5733 441.428 41.3067 441.641 41.04C441.908 40.7733 442.175 40.64 442.441 40.64C442.708 40.64 442.921 40.8267 443.081 41.2C443.721 42.48 444.041 43.8133 444.041 45.2C444.041 46.9067 443.615 48.6133 442.761 50.32C441.961 52.0267 440.841 53.5467 439.401 54.88C438.015 56.2133 436.468 57.2 434.761 57.84C433.161 58.48 431.561 58.8 429.961 58.8C427.081 58.8 424.601 57.84 422.521 55.92C420.495 53.9467 419.481 51.4133 419.481 48.32C419.481 47.36 419.588 46.4533 419.801 45.6C420.655 41.8133 422.281 38.5067 424.681 35.68C427.081 32.8533 429.988 30.4267 433.401 28.4C436.815 26.3733 440.415 24.6933 444.201 23.36C448.041 21.9733 451.828 20.8533 455.561 20C459.295 19.1467 462.681 18.4533 465.721 17.92C465.935 17.4933 466.361 16.8267 467.001 15.92C467.641 14.96 468.388 14.0533 469.241 13.2C470.095 12.2933 470.948 11.7067 471.801 11.44C472.441 11.2267 473.135 11.12 473.881 11.12C474.628 11.12 475.241 11.3067 475.721 11.68C476.201 12.0533 476.441 12.64 476.441 13.44C476.441 14.9867 475.775 16.16 474.441 16.96C473.161 17.7067 471.748 18.3733 470.201 18.96C469.721 18.96 469.135 19.0933 468.441 19.36C467.801 19.5733 467.295 19.68 466.921 19.68C464.948 23.2533 463.321 26.7733 462.041 30.24C460.761 33.7067 459.588 37.12 458.521 40.48C457.508 43.7867 456.441 47.0933 455.321 50.4C454.201 53.6533 452.815 56.9333 451.161 60.24C449.508 63.4933 447.401 66.7733 444.841 70.08C440.468 75.7333 435.535 80.1867 430.041 83.44C424.601 86.6933 418.975 88.8 413.161 89.76C411.561 90.0267 409.988 90.2133 408.441 90.32C406.895 90.48 405.428 90.56 404.041 90.56ZM468.281 17.6C470.361 17.1733 471.748 16.6933 472.441 16.16C473.188 15.6267 473.561 15.1467 473.561 14.72C473.561 14.4 473.455 14.16 473.241 14C473.028 13.7867 472.815 13.68 472.601 13.68C472.335 13.5733 471.935 13.76 471.401 14.24C470.868 14.6667 470.308 15.2267 469.721 15.92C469.188 16.56 468.708 17.12 468.281 17.6ZM450.521 78.64C452.441 74.7467 454.281 70.9067 456.041 67.12C457.854 63.28 459.694 59.6267 461.561 56.16C462.627 54.24 463.507 52.9067 464.201 52.16C464.947 51.36 465.934 50.96 467.161 50.96C467.587 50.96 468.041 51.04 468.521 51.2C469.001 51.3067 469.481 51.36 469.961 51.36C470.281 51.36 470.521 51.3333 470.681 51.28C469.934 51.7067 468.974 52.7733 467.801 54.48C466.627 56.1333 465.427 58.0533 464.201 60.24C462.974 62.4267 461.881 64.48 460.921 66.4C461.934 65.1733 462.974 63.9467 464.041 62.72C465.161 61.4933 466.387 60.32 467.721 59.2C469.001 58.08 470.521 56.9333 472.281 55.76C474.094 54.5333 475.854 53.52 477.561 52.72C479.267 51.92 480.627 51.52 481.641 51.52C482.014 51.52 482.281 51.5467 482.441 51.6C482.441 51.6 482.147 52.1333 481.561 53.2C480.974 54.2133 480.227 55.5733 479.321 57.28C478.467 58.9333 477.587 60.72 476.681 62.64C475.774 64.5067 474.947 66.32 474.201 68.08C473.507 69.7867 473.054 71.2267 472.841 72.4C472.681 73.0933 472.601 73.7333 472.601 74.32C472.601 75.1733 472.761 75.7333 473.081 76C473.401 76.2667 473.747 76.4 474.121 76.4C475.134 76.4 476.201 75.8667 477.321 74.8C478.441 73.68 479.507 72.32 480.521 70.72C481.587 69.12 482.521 67.5733 483.321 66.08C484.174 64.5333 484.787 63.36 485.161 62.56C485.374 62.1333 485.534 61.8933 485.641 61.84C485.747 61.7333 485.907 61.68 486.121 61.68C486.441 61.68 486.601 61.8933 486.601 62.32C486.601 62.5867 486.521 62.88 486.361 63.2C485.721 64.4267 484.947 65.8933 484.041 67.6C483.187 69.3067 482.201 70.9867 481.081 72.64C479.961 74.24 478.734 75.6 477.401 76.72C476.067 77.7867 474.627 78.32 473.081 78.32C472.014 78.32 470.894 77.9467 469.721 77.2C468.601 76.4533 468.041 75.0667 468.041 73.04C468.041 72.4533 468.094 71.84 468.201 71.2C468.307 70.5067 468.494 69.76 468.761 68.96C469.187 67.8933 469.694 66.7467 470.281 65.52C470.867 64.2933 471.827 62.6133 473.161 60.48C473.534 59.8933 473.747 59.44 473.801 59.12C473.907 58.8 473.961 58.5333 473.961 58.32C473.961 57.68 473.667 57.36 473.081 57.36C472.601 57.36 471.881 57.6267 470.921 58.16C470.014 58.6933 468.867 59.6267 467.481 60.96C466.147 62.24 464.547 64.0533 462.681 66.4C460.867 68.7467 458.761 72.2133 456.361 76.8C455.987 77.4933 455.561 77.8667 455.081 77.92C454.654 77.9733 454.041 78.0267 453.241 78.08C452.707 78.1333 452.201 78.16 451.721 78.16C451.241 78.2133 450.841 78.3733 450.521 78.64ZM487.876 78.56C486.222 78.56 485.076 78.1333 484.436 77.28C483.796 76.4267 483.476 75.3333 483.476 74C483.476 72.6133 483.716 71.04 484.196 69.28C484.729 67.52 485.289 65.7867 485.876 64.08C485.502 64.6133 485.129 64.88 484.756 64.88C484.542 64.88 484.382 64.7733 484.276 64.56C484.169 64.3467 484.196 64.1067 484.356 63.84C484.622 63.36 484.889 62.9067 485.156 62.48C485.422 62 485.662 61.52 485.876 61.04C486.302 60.1333 486.649 59.0667 486.916 57.84C487.236 56.56 487.396 55.3867 487.396 54.32C487.396 53.4667 487.289 52.7467 487.076 52.16C486.862 51.5733 486.542 51.2267 486.116 51.12C486.116 51.12 486.382 51.0667 486.916 50.96C487.502 50.8533 488.116 50.7467 488.756 50.64C489.396 50.5333 489.822 50.48 490.036 50.48C490.356 50.4267 490.649 50.4 490.916 50.4C491.182 50.3467 491.422 50.32 491.636 50.32C492.169 50.32 492.516 50.5333 492.676 50.96C492.889 51.3867 492.969 52.32 492.916 53.76C492.862 55.0933 492.596 56.72 492.116 58.64C491.636 60.5067 491.129 62.1333 490.596 63.52C489.902 65.3333 489.262 67.1733 488.676 69.04C488.089 70.9067 487.796 72.4533 487.796 73.68C487.796 74.7467 488.089 75.44 488.676 75.76C489.102 75.92 489.476 76 489.796 76C491.022 76 492.222 75.3867 493.396 74.16C494.622 72.9333 495.796 71.3067 496.916 69.28C498.036 67.2 499.076 64.9867 500.036 62.64C499.662 61.8933 499.396 61.0667 499.236 60.16C499.076 59.2533 498.996 58.3733 498.996 57.52C498.996 56.5067 499.129 55.5467 499.396 54.64C500.036 52.5067 500.916 50.9867 502.036 50.08C503.209 49.12 504.196 48.64 504.996 48.64C506.009 48.64 506.516 49.0933 506.516 50C506.516 50.2133 506.436 50.5333 506.276 50.96C506.169 51.0667 506.116 51.2267 506.116 51.44C505.742 52.56 505.182 54.1867 504.436 56.32C503.742 58.4533 502.862 60.8 501.796 63.36C500.782 65.8667 499.556 68.2933 498.116 70.64C496.729 72.9333 495.182 74.8267 493.476 76.32C491.769 77.8133 489.902 78.56 487.876 78.56ZM511.769 78.32C509.796 78.32 508.009 77.68 506.409 76.4C504.863 75.12 504.089 73.1733 504.089 70.56C504.089 68.16 504.676 65.6 505.849 62.88C507.023 60.1067 508.516 57.68 510.329 55.6C511.876 53.7867 513.609 52.2933 515.529 51.12C517.449 49.9467 519.263 49.36 520.969 49.36C522.143 49.36 523.156 49.68 524.009 50.32C524.916 51.0133 525.369 52 525.369 53.28C525.369 54.6133 524.863 56.08 523.849 57.68C522.836 59.28 521.396 60.7733 519.529 62.16C518.729 62.7467 517.716 63.3067 516.489 63.84C515.263 64.3733 514.036 64.8267 512.809 65.2C511.583 65.52 510.569 65.68 509.769 65.68C509.503 66.32 509.236 67.1733 508.969 68.24C508.756 69.3067 508.649 70.4 508.649 71.52C508.649 72.8533 508.916 74.0533 509.449 75.12C509.983 76.1867 510.969 76.72 512.409 76.72C514.169 76.72 515.769 76.2133 517.209 75.2C518.649 74.1867 519.929 72.9333 521.049 71.44C522.169 69.8933 523.103 68.3467 523.849 66.8C524.649 65.2533 525.289 63.9467 525.769 62.88C526.089 62.1333 526.516 61.76 527.049 61.76C527.316 61.76 527.449 61.8933 527.449 62.16C527.449 62.3733 527.369 62.64 527.209 62.96C526.463 64.56 525.663 66.2667 524.809 68.08C523.956 69.84 522.943 71.52 521.769 73.12C520.596 74.6667 519.183 75.92 517.529 76.88C515.929 77.84 514.009 78.32 511.769 78.32ZM510.329 64.24C511.076 64.24 512.329 63.9733 514.089 63.44C515.849 62.8533 517.449 61.9467 518.889 60.72C520.276 59.4933 521.343 58.16 522.089 56.72C522.836 55.2267 523.209 53.9733 523.209 52.96C523.209 51.7867 522.783 51.2 521.929 51.2C521.289 51.2 520.409 51.6267 519.289 52.48C518.169 53.3333 516.783 54.7733 515.129 56.8C514.116 58.08 513.156 59.4667 512.249 60.96C511.343 62.4533 510.703 63.5467 510.329 64.24ZM527.773 78.32C525.16 78.32 523.293 77.6533 522.173 76.32C521.106 74.9333 520.573 73.4933 520.573 72C520.573 70.7733 520.866 69.6533 521.453 68.64C522.093 67.6267 522.84 67.0933 523.693 67.04C524.76 64.96 525.906 62.6933 527.133 60.24C528.413 57.7867 529.586 55.4133 530.653 53.12C531.4 51.5733 532.333 50.08 533.453 48.64C534.626 47.2 535.906 46.3733 537.293 46.16H538.093C538.52 46.16 538.893 46.1867 539.213 46.24C539.586 46.2933 539.96 46.4 540.333 46.56C540.92 46.8267 541.213 47.2267 541.213 47.76C541.213 48.08 541.026 48.24 540.653 48.24C540.493 48.24 540.28 48.16 540.013 48C539.373 47.7333 538.813 47.6 538.333 47.6C538.013 47.6 537.72 47.68 537.453 47.84C536.44 48.3733 535.72 49.12 535.293 50.08C534.92 51.04 534.733 52.0533 534.733 53.12C534.733 53.9733 534.813 54.8533 534.973 55.76C535.186 56.6133 535.426 57.3867 535.693 58.08C536.28 59.5733 536.893 61.04 537.533 62.48C538.226 63.92 538.573 65.4667 538.573 67.12C538.573 68.72 538.04 70.4267 536.973 72.24C535.906 74 534.546 75.4133 532.893 76.48L533.453 76.56C533.72 76.6133 533.906 76.64 534.013 76.64C534.12 76.64 534.2 76.64 534.253 76.64C535.48 76.64 536.626 76.2933 537.693 75.6C538.813 74.8533 539.8 73.9467 540.653 72.88C541.506 71.8133 542.466 70.32 543.533 68.4C544.653 66.48 545.72 64.4533 546.733 62.32C546.893 62.0533 547.08 61.92 547.293 61.92C547.56 61.92 547.746 62.0267 547.853 62.24C548.013 62.4 548.04 62.6133 547.933 62.88C547.24 64.3733 546.44 66 545.533 67.76C544.68 69.4667 543.693 71.12 542.573 72.72C541.453 74.2667 540.146 75.5467 538.653 76.56C537.213 77.52 535.586 78 533.773 78C533.346 78 532.893 77.9733 532.413 77.92C531.933 77.8667 531.453 77.76 530.973 77.6C530.44 77.8133 529.88 77.9733 529.293 78.08C528.76 78.24 528.253 78.32 527.773 78.32ZM530.173 75.92C531.08 75.1733 531.88 74.08 532.573 72.64C533.32 71.2 533.693 69.3067 533.693 66.96C533.693 64.88 533.48 62.6667 533.053 60.32C532.626 57.9733 532.413 55.8933 532.413 54.08C532.413 53.7067 532.413 53.3867 532.413 53.12C532.466 52.8 532.52 52.5067 532.573 52.24C531.88 53.68 531.08 55.36 530.173 57.28C529.266 59.1467 528.36 60.96 527.453 62.72C526.546 64.48 525.773 65.9733 525.133 67.2C525.133 67.2 525.266 67.2267 525.533 67.28C525.853 67.28 526.146 67.4667 526.413 67.84C526.68 68.16 526.786 68.8267 526.733 69.84C526.68 71.1733 526.973 72.4267 527.613 73.6C528.306 74.72 529.16 75.4933 530.173 75.92ZM527.133 77.04C527.453 77.04 527.746 77.0133 528.013 76.96C528.28 76.8533 528.52 76.7733 528.733 76.72C527.933 76.1333 527.213 75.36 526.573 74.4C525.986 73.3867 525.64 72.1067 525.533 70.56C524.573 71.5733 524.093 72.6667 524.093 73.84C524.093 74.6933 524.36 75.44 524.893 76.08C525.426 76.72 526.173 77.04 527.133 77.04ZM550.4 78C548.907 78 547.573 77.4933 546.4 76.48C545.227 75.4133 544.64 73.76 544.64 71.52C544.64 69.76 544.96 67.6 545.6 65.04C546.293 62.4267 547.12 59.7333 548.08 56.96C549.093 54.1333 550.08 51.5733 551.04 49.28H546.8C546.427 49.28 546.24 49.0133 546.24 48.48C546.24 48.2133 546.293 47.9733 546.4 47.76C546.56 47.5467 546.773 47.44 547.04 47.44H551.84C552.747 45.4133 553.707 43.44 554.72 41.52C555.733 39.6 556.72 37.7867 557.68 36.08C558.907 33.9467 560.213 32.3467 561.6 31.28C562.987 30.2133 564.187 29.68 565.2 29.68C566 29.68 566.667 30 567.2 30.64C567.733 31.2267 568 32.1333 568 33.36C568 34.1067 567.84 35.1467 567.52 36.48C567.2 37.76 566.693 39.12 566 40.56C565.627 41.3067 565.093 42.3733 564.4 43.76C563.76 45.1467 563.12 46.3733 562.48 47.44H566.32C566.693 47.44 566.88 47.7067 566.88 48.24C566.88 48.4533 566.827 48.6933 566.72 48.96C566.613 49.1733 566.453 49.28 566.24 49.28H561.52C560.187 51.5733 558.667 53.8133 556.96 56C555.253 58.1867 553.227 60.3733 550.88 62.56C550.72 63.04 550.507 63.7333 550.24 64.64C550.027 65.5467 549.813 66.48 549.6 67.44C549.44 68.3467 549.28 69.12 549.12 69.76C549.013 70.4 548.96 70.72 548.96 70.72C548.8 71.4133 548.72 72.0533 548.72 72.64C548.72 73.76 548.987 74.5867 549.52 75.12C550.053 75.6 550.667 75.84 551.36 75.84C551.787 75.84 552.213 75.7867 552.64 75.68C553.067 75.52 553.547 75.2533 554.08 74.88C555.947 73.5467 557.573 71.7333 558.96 69.44C560.4 67.1467 561.653 64.9333 562.72 62.8C563.04 62.16 563.36 61.84 563.68 61.84C563.893 61.84 564 62 564 62.32C564 62.48 563.92 62.7733 563.76 63.2C562.587 65.6533 561.6 67.6267 560.8 69.12C560 70.6133 559.227 71.8667 558.48 72.88C557.733 73.84 556.853 74.8 555.84 75.76C555.093 76.5067 554.24 77.0667 553.28 77.44C552.32 77.8133 551.36 78 550.4 78ZM556.72 47.44H560.8C561.547 46.0533 562.24 44.6933 562.88 43.36C563.573 42.0267 564.187 40.6933 564.72 39.36C565.093 38.5067 565.413 37.5467 565.68 36.48C565.947 35.4133 566.08 34.5867 566.08 34C566.08 33.2 565.893 32.8 565.52 32.8C565.253 32.8 564.853 33.04 564.32 33.52C563.84 33.9467 563.227 34.6933 562.48 35.76C561.52 37.0933 560.56 38.8267 559.6 40.96C558.693 43.04 557.733 45.2 556.72 47.44ZM551.52 60C553.067 58.4 554.507 56.6933 555.84 54.88C557.227 53.0667 558.507 51.2 559.68 49.28H555.92C555.067 51.2533 554.267 53.1733 553.52 55.04C552.773 56.9067 552.107 58.56 551.52 60ZM555.054 78.4C557.027 74.6133 558.894 70.8267 560.654 67.04C562.414 63.2 564.2 59.5733 566.014 56.16C567.08 54.24 567.96 52.9067 568.654 52.16C569.4 51.36 570.387 50.96 571.614 50.96C572.04 50.96 572.494 51.04 572.974 51.2C573.454 51.3067 573.934 51.36 574.414 51.36C574.734 51.36 574.974 51.3333 575.134 51.28C574.387 51.7067 573.427 52.7733 572.254 54.48C571.08 56.1333 569.88 58.0533 568.654 60.24C567.427 62.4267 566.334 64.48 565.374 66.4C566.387 65.1733 567.427 63.9467 568.494 62.72C569.614 61.4933 570.84 60.32 572.174 59.2C573.347 58.1867 574.574 57.0933 575.854 55.92C577.187 54.6933 578.494 53.6533 579.774 52.8C581.054 51.9467 582.174 51.52 583.134 51.52C583.507 51.52 583.747 51.5467 583.854 51.6C584.867 52.0267 585.374 52.72 585.374 53.68C585.374 54 585.24 54.48 584.974 55.12C584.28 56.9333 583.374 58.8 582.254 60.72C581.187 62.5867 580.174 64.48 579.214 66.4C580.014 65.44 581 64.2667 582.174 62.88C583.4 61.4933 584.627 60.2667 585.854 59.2C587.027 58.1333 588.52 57.0133 590.334 55.84C592.147 54.6667 593.934 53.6533 595.694 52.8C597.454 51.9467 598.867 51.52 599.934 51.52C600.307 51.52 600.574 51.5467 600.734 51.6C600.734 51.6 600.44 52.1333 599.854 53.2C599.267 54.2133 598.52 55.5733 597.614 57.28C596.76 58.9333 595.88 60.72 594.974 62.64C594.067 64.5067 593.24 66.32 592.494 68.08C591.8 69.7867 591.347 71.2267 591.134 72.4C590.974 73.0933 590.894 73.7333 590.894 74.32C590.894 75.1733 591.054 75.7333 591.374 76C591.694 76.2667 592.04 76.4 592.414 76.4C593.48 76.4 594.574 75.84 595.694 74.72C596.814 73.6 597.88 72.2667 598.894 70.72C599.96 69.12 600.894 67.5733 601.694 66.08C602.494 64.5333 603.08 63.36 603.454 62.56C603.774 61.9733 604.094 61.68 604.414 61.68C604.734 61.68 604.894 61.8933 604.894 62.32C604.894 62.5867 604.814 62.88 604.654 63.2C604.014 64.4267 603.24 65.8933 602.334 67.6C601.48 69.3067 600.494 70.9867 599.374 72.64C598.254 74.24 597 75.6 595.614 76.72C594.28 77.7867 592.84 78.32 591.294 78.32C590.174 78.32 589.027 77.9467 587.854 77.2C586.734 76.4533 586.174 75.0667 586.174 73.04C586.174 71.92 586.414 70.56 586.894 68.96C587.267 67.8933 587.827 66.6667 588.574 65.28C589.374 63.8933 590.334 62.2933 591.454 60.48C591.987 59.5733 592.254 58.8533 592.254 58.32C592.254 57.68 591.934 57.36 591.294 57.36C590.76 57.36 590.014 57.6267 589.054 58.16C588.147 58.6933 587 59.6267 585.614 60.96C584.76 61.76 583.747 62.88 582.574 64.32C581.454 65.7067 580.307 67.2267 579.134 68.88C577.96 70.5333 576.947 72.16 576.094 73.76C575.24 75.36 574.68 76.7733 574.414 78C573.614 78 572.974 77.68 572.494 77.04C572.014 76.3467 571.774 75.5467 571.774 74.64C571.774 74.48 571.774 74.32 571.774 74.16C571.774 74 571.8 73.8133 571.854 73.6C572.12 71.9467 572.547 70.4 573.134 68.96C573.72 67.52 574.387 66.0267 575.134 64.48C575.72 63.36 576.307 62.16 576.894 60.88C577.48 59.5467 577.774 58.5333 577.774 57.84C577.774 57.4133 577.614 57.2 577.294 57.2C576.92 57.2 576.307 57.4933 575.454 58.08C574.6 58.6133 573.427 59.5733 571.934 60.96C570.6 62.24 568.974 64.08 567.054 66.48C565.187 68.88 563.134 72.2933 560.894 76.72C560.574 77.3067 560.2 77.68 559.774 77.84C559.347 77.9467 558.68 78 557.774 78C557.187 78 556.707 78 556.334 78C555.907 78.0533 555.48 78.1867 555.054 78.4ZM608.957 78.32C606.984 78.32 605.197 77.68 603.597 76.4C602.05 75.12 601.277 73.1733 601.277 70.56C601.277 68.16 601.864 65.6 603.037 62.88C604.21 60.1067 605.704 57.68 607.517 55.6C609.064 53.7867 610.797 52.2933 612.717 51.12C614.637 49.9467 616.45 49.36 618.157 49.36C619.33 49.36 620.344 49.68 621.197 50.32C622.104 51.0133 622.557 52 622.557 53.28C622.557 54.6133 622.05 56.08 621.037 57.68C620.024 59.28 618.584 60.7733 616.717 62.16C615.917 62.7467 614.904 63.3067 613.677 63.84C612.45 64.3733 611.224 64.8267 609.997 65.2C608.77 65.52 607.757 65.68 606.957 65.68C606.69 66.32 606.424 67.1733 606.157 68.24C605.944 69.3067 605.837 70.4 605.837 71.52C605.837 72.8533 606.104 74.0533 606.637 75.12C607.17 76.1867 608.157 76.72 609.597 76.72C611.357 76.72 612.957 76.2133 614.397 75.2C615.837 74.1867 617.117 72.9333 618.237 71.44C619.357 69.8933 620.29 68.3467 621.037 66.8C621.837 65.2533 622.477 63.9467 622.957 62.88C623.277 62.1333 623.704 61.76 624.237 61.76C624.504 61.76 624.637 61.8933 624.637 62.16C624.637 62.3733 624.557 62.64 624.397 62.96C623.65 64.56 622.85 66.2667 621.997 68.08C621.144 69.84 620.13 71.52 618.957 73.12C617.784 74.6667 616.37 75.92 614.717 76.88C613.117 77.84 611.197 78.32 608.957 78.32ZM607.517 64.24C608.264 64.24 609.517 63.9733 611.277 63.44C613.037 62.8533 614.637 61.9467 616.077 60.72C617.464 59.4933 618.53 58.16 619.277 56.72C620.024 55.2267 620.397 53.9733 620.397 52.96C620.397 51.7867 619.97 51.2 619.117 51.2C618.477 51.2 617.597 51.6267 616.477 52.48C615.357 53.3333 613.97 54.7733 612.317 56.8C611.304 58.08 610.344 59.4667 609.437 60.96C608.53 62.4533 607.89 63.5467 607.517 64.24ZM615.521 78.64C617.441 74.7467 619.281 70.9067 621.041 67.12C622.854 63.28 624.694 59.6267 626.561 56.16C627.627 54.24 628.507 52.9067 629.201 52.16C629.947 51.36 630.934 50.96 632.161 50.96C632.587 50.96 633.041 51.04 633.521 51.2C634.001 51.3067 634.481 51.36 634.961 51.36C635.281 51.36 635.521 51.3333 635.681 51.28C634.934 51.7067 633.974 52.7733 632.801 54.48C631.627 56.1333 630.427 58.0533 629.201 60.24C627.974 62.4267 626.881 64.48 625.921 66.4C626.934 65.1733 627.974 63.9467 629.041 62.72C630.161 61.4933 631.387 60.32 632.721 59.2C634.001 58.08 635.521 56.9333 637.281 55.76C639.094 54.5333 640.854 53.52 642.561 52.72C644.267 51.92 645.627 51.52 646.641 51.52C647.014 51.52 647.281 51.5467 647.441 51.6C647.441 51.6 647.147 52.1333 646.561 53.2C645.974 54.2133 645.227 55.5733 644.321 57.28C643.467 58.9333 642.587 60.72 641.681 62.64C640.774 64.5067 639.947 66.32 639.201 68.08C638.507 69.7867 638.054 71.2267 637.841 72.4C637.681 73.0933 637.601 73.7333 637.601 74.32C637.601 75.1733 637.761 75.7333 638.081 76C638.401 76.2667 638.747 76.4 639.121 76.4C640.134 76.4 641.201 75.8667 642.321 74.8C643.441 73.68 644.507 72.32 645.521 70.72C646.587 69.12 647.521 67.5733 648.321 66.08C649.174 64.5333 649.787 63.36 650.161 62.56C650.374 62.1333 650.534 61.8933 650.641 61.84C650.747 61.7333 650.907 61.68 651.121 61.68C651.441 61.68 651.601 61.8933 651.601 62.32C651.601 62.5867 651.521 62.88 651.361 63.2C650.721 64.4267 649.947 65.8933 649.041 67.6C648.187 69.3067 647.201 70.9867 646.081 72.64C644.961 74.24 643.734 75.6 642.401 76.72C641.067 77.7867 639.627 78.32 638.081 78.32C637.014 78.32 635.894 77.9467 634.721 77.2C633.601 76.4533 633.041 75.0667 633.041 73.04C633.041 72.4533 633.094 71.84 633.201 71.2C633.307 70.5067 633.494 69.76 633.761 68.96C634.187 67.8933 634.694 66.7467 635.281 65.52C635.867 64.2933 636.827 62.6133 638.161 60.48C638.534 59.8933 638.747 59.44 638.801 59.12C638.907 58.8 638.961 58.5333 638.961 58.32C638.961 57.68 638.667 57.36 638.081 57.36C637.601 57.36 636.881 57.6267 635.921 58.16C635.014 58.6933 633.867 59.6267 632.481 60.96C631.147 62.24 629.547 64.0533 627.681 66.4C625.867 68.7467 623.761 72.2133 621.361 76.8C620.987 77.4933 620.561 77.8667 620.081 77.92C619.654 77.9733 619.041 78.0267 618.241 78.08C617.707 78.1333 617.201 78.16 616.721 78.16C616.241 78.2133 615.841 78.3733 615.521 78.64ZM653.916 78C652.422 78 651.089 77.4933 649.916 76.48C648.742 75.4133 648.156 73.76 648.156 71.52C648.156 69.76 648.476 67.6 649.116 65.04C649.809 62.4267 650.636 59.7333 651.596 56.96C652.609 54.1333 653.596 51.5733 654.556 49.28H650.316C649.942 49.28 649.756 49.0133 649.756 48.48C649.756 48.2133 649.809 47.9733 649.916 47.76C650.076 47.5467 650.289 47.44 650.556 47.44H655.356C656.262 45.4133 657.222 43.44 658.236 41.52C659.249 39.6 660.236 37.7867 661.196 36.08C662.422 33.9467 663.729 32.3467 665.116 31.28C666.502 30.2133 667.702 29.68 668.716 29.68C669.516 29.68 670.182 30 670.716 30.64C671.249 31.2267 671.516 32.1333 671.516 33.36C671.516 34.1067 671.356 35.1467 671.036 36.48C670.716 37.76 670.209 39.12 669.516 40.56C669.142 41.3067 668.609 42.3733 667.916 43.76C667.276 45.1467 666.636 46.3733 665.996 47.44H669.836C670.209 47.44 670.396 47.7067 670.396 48.24C670.396 48.4533 670.342 48.6933 670.236 48.96C670.129 49.1733 669.969 49.28 669.756 49.28H665.036C663.702 51.5733 662.182 53.8133 660.476 56C658.769 58.1867 656.742 60.3733 654.396 62.56C654.236 63.04 654.022 63.7333 653.756 64.64C653.542 65.5467 653.329 66.48 653.116 67.44C652.956 68.3467 652.796 69.12 652.636 69.76C652.529 70.4 652.476 70.72 652.476 70.72C652.316 71.4133 652.236 72.0533 652.236 72.64C652.236 73.76 652.502 74.5867 653.036 75.12C653.569 75.6 654.182 75.84 654.876 75.84C655.302 75.84 655.729 75.7867 656.156 75.68C656.582 75.52 657.062 75.2533 657.596 74.88C659.462 73.5467 661.089 71.7333 662.476 69.44C663.916 67.1467 665.169 64.9333 666.236 62.8C666.556 62.16 666.876 61.84 667.196 61.84C667.409 61.84 667.516 62 667.516 62.32C667.516 62.48 667.436 62.7733 667.276 63.2C666.102 65.6533 665.116 67.6267 664.316 69.12C663.516 70.6133 662.742 71.8667 661.996 72.88C661.249 73.84 660.369 74.8 659.356 75.76C658.609 76.5067 657.756 77.0667 656.796 77.44C655.836 77.8133 654.876 78 653.916 78ZM660.236 47.44H664.316C665.062 46.0533 665.756 44.6933 666.396 43.36C667.089 42.0267 667.702 40.6933 668.236 39.36C668.609 38.5067 668.929 37.5467 669.196 36.48C669.462 35.4133 669.596 34.5867 669.596 34C669.596 33.2 669.409 32.8 669.036 32.8C668.769 32.8 668.369 33.04 667.836 33.52C667.356 33.9467 666.742 34.6933 665.996 35.76C665.036 37.0933 664.076 38.8267 663.116 40.96C662.209 43.04 661.249 45.2 660.236 47.44ZM655.036 60C656.582 58.4 658.022 56.6933 659.356 54.88C660.742 53.0667 662.022 51.2 663.196 49.28H659.436C658.582 51.2533 657.782 53.1733 657.036 55.04C656.289 56.9067 655.622 58.56 655.036 60ZM667.929 78.32C665.316 78.32 663.449 77.6533 662.329 76.32C661.263 74.9333 660.729 73.4933 660.729 72C660.729 70.7733 661.023 69.6533 661.609 68.64C662.249 67.6267 662.996 67.0933 663.849 67.04C664.916 64.96 666.063 62.6933 667.289 60.24C668.569 57.7867 669.743 55.4133 670.809 53.12C671.556 51.5733 672.489 50.08 673.609 48.64C674.783 47.2 676.063 46.3733 677.449 46.16H678.249C678.676 46.16 679.049 46.1867 679.369 46.24C679.743 46.2933 680.116 46.4 680.489 46.56C681.076 46.8267 681.369 47.2267 681.369 47.76C681.369 48.08 681.183 48.24 680.809 48.24C680.649 48.24 680.436 48.16 680.169 48C679.529 47.7333 678.969 47.6 678.489 47.6C678.169 47.6 677.876 47.68 677.609 47.84C676.596 48.3733 675.876 49.12 675.449 50.08C675.076 51.04 674.889 52.0533 674.889 53.12C674.889 53.9733 674.969 54.8533 675.129 55.76C675.343 56.6133 675.583 57.3867 675.849 58.08C676.436 59.5733 677.049 61.04 677.689 62.48C678.383 63.92 678.729 65.4667 678.729 67.12C678.729 68.72 678.196 70.4267 677.129 72.24C676.063 74 674.703 75.4133 673.049 76.48L673.609 76.56C673.876 76.6133 674.063 76.64 674.169 76.64C674.276 76.64 674.356 76.64 674.409 76.64C675.636 76.64 676.783 76.2933 677.849 75.6C678.969 74.8533 679.956 73.9467 680.809 72.88C681.663 71.8133 682.623 70.32 683.689 68.4C684.809 66.48 685.876 64.4533 686.889 62.32C687.049 62.0533 687.236 61.92 687.449 61.92C687.716 61.92 687.903 62.0267 688.009 62.24C688.169 62.4 688.196 62.6133 688.089 62.88C687.396 64.3733 686.596 66 685.689 67.76C684.836 69.4667 683.849 71.12 682.729 72.72C681.609 74.2667 680.303 75.5467 678.809 76.56C677.369 77.52 675.743 78 673.929 78C673.503 78 673.049 77.9733 672.569 77.92C672.089 77.8667 671.609 77.76 671.129 77.6C670.596 77.8133 670.036 77.9733 669.449 78.08C668.916 78.24 668.409 78.32 667.929 78.32ZM670.329 75.92C671.236 75.1733 672.036 74.08 672.729 72.64C673.476 71.2 673.849 69.3067 673.849 66.96C673.849 64.88 673.636 62.6667 673.209 60.32C672.783 57.9733 672.569 55.8933 672.569 54.08C672.569 53.7067 672.569 53.3867 672.569 53.12C672.623 52.8 672.676 52.5067 672.729 52.24C672.036 53.68 671.236 55.36 670.329 57.28C669.423 59.1467 668.516 60.96 667.609 62.72C666.703 64.48 665.929 65.9733 665.289 67.2C665.289 67.2 665.423 67.2267 665.689 67.28C666.009 67.28 666.303 67.4667 666.569 67.84C666.836 68.16 666.943 68.8267 666.889 69.84C666.836 71.1733 667.129 72.4267 667.769 73.6C668.463 74.72 669.316 75.4933 670.329 75.92ZM667.289 77.04C667.609 77.04 667.903 77.0133 668.169 76.96C668.436 76.8533 668.676 76.7733 668.889 76.72C668.089 76.1333 667.369 75.36 666.729 74.4C666.143 73.3867 665.796 72.1067 665.689 70.56C664.729 71.5733 664.249 72.6667 664.249 73.84C664.249 74.6933 664.516 75.44 665.049 76.08C665.583 76.72 666.329 77.04 667.289 77.04ZM733.658 86.24C731.684 86.24 729.658 86.0267 727.578 85.6C725.551 85.1733 723.524 84.5333 721.498 83.68C718.191 82.24 715.524 80.3467 713.497 78C711.471 75.7067 710.004 73.0933 709.098 70.16C708.191 67.2267 707.738 64.16 707.738 60.96C707.738 57.6 708.138 54.24 708.938 50.88C709.791 47.52 710.964 44.32 712.458 41.28C713.951 38.1867 715.631 35.44 717.498 33.04C717.124 31.6533 716.804 30.0533 716.538 28.24C716.324 26.4267 716.218 24.5867 716.218 22.72C716.218 19.8933 716.538 17.2 717.178 14.64C717.391 13.8933 717.764 13.52 718.298 13.52C718.671 13.52 718.858 13.7867 718.858 14.32C718.858 14.64 718.831 14.88 718.778 15.04C718.671 15.84 718.564 16.6667 718.458 17.52C718.404 18.3733 718.378 19.2533 718.378 20.16C718.378 21.9733 718.484 23.76 718.698 25.52C718.911 27.28 719.151 28.9067 719.418 30.4C723.311 25.3333 727.764 21.5733 732.778 19.12C737.844 16.6133 743.151 15.36 748.698 15.36C750.138 15.36 751.524 15.44 752.858 15.6C757.124 16.08 760.618 17.1467 763.338 18.8C766.058 20.4 768.058 22.3733 769.338 24.72C770.671 27.0667 771.338 29.5467 771.338 32.16C771.338 34.72 770.751 37.2533 769.578 39.76C768.404 42.2667 766.698 44.56 764.458 46.64C762.218 48.6667 759.471 50.32 756.218 51.6C753.018 52.8267 749.391 53.44 745.338 53.44C744.431 53.44 743.524 53.4133 742.618 53.36C741.711 53.3067 740.724 53.2 739.658 53.04C735.444 52.4 731.604 51.04 728.138 48.96C724.671 46.88 721.871 43.68 719.738 39.36C719.311 39.8933 718.724 40.9867 717.978 42.64C717.231 44.24 716.484 46.1867 715.738 48.48C714.991 50.7733 714.351 53.28 713.818 56C713.284 58.6667 713.018 61.36 713.018 64.08C713.018 66.6933 713.364 69.2267 714.058 71.68C714.751 74.08 715.951 76.1867 717.658 78C719.364 79.8667 721.684 81.2533 724.618 82.16C726.058 82.5867 727.551 82.9067 729.098 83.12C730.644 83.3333 732.218 83.44 733.818 83.44C736.911 83.44 739.978 83.04 743.018 82.24C746.058 81.44 748.884 80.2667 751.498 78.72C754.964 76.6933 757.631 74.3467 759.498 71.68C761.364 68.96 763.098 65.92 764.698 62.56C764.911 62.0267 765.204 61.76 765.578 61.76C765.844 61.76 765.978 61.9467 765.978 62.32C765.978 62.5867 765.871 62.9067 765.658 63.28C764.538 65.6267 763.418 67.7867 762.298 69.76C761.178 71.68 759.871 73.4667 758.378 75.12C756.884 76.7733 754.991 78.4 752.698 80C750.084 81.8133 747.151 83.3067 743.898 84.48C740.644 85.6533 737.231 86.24 733.658 86.24ZM744.858 51.36C748.538 51.36 751.791 50.8267 754.618 49.76C757.444 48.64 759.818 47.2 761.738 45.44C763.711 43.6267 765.178 41.6267 766.138 39.44C767.151 37.2533 767.658 35.04 767.658 32.8C767.658 30.6133 767.151 28.5333 766.138 26.56C765.124 24.5867 763.578 22.9067 761.498 21.52C759.471 20.08 756.858 19.1467 753.658 18.72C752.484 18.56 751.311 18.48 750.138 18.48C746.511 18.48 742.938 19.2533 739.418 20.8C735.951 22.2933 732.671 24.4267 729.578 27.2C726.484 29.92 723.738 33.12 721.338 36.8C723.204 41.44 725.818 44.8533 729.178 47.04C732.591 49.2267 736.484 50.5867 740.858 51.12C742.244 51.28 743.578 51.36 744.858 51.36ZM768.367 78C766.34 78 764.847 77.3333 763.887 76C762.927 74.6133 762.447 72.9333 762.447 70.96C762.447 68.56 763.007 66.0533 764.127 63.44C765.194 60.9867 766.554 58.7467 768.207 56.72C769.86 54.6933 771.647 53.0667 773.567 51.84C775.487 50.56 777.354 49.92 779.167 49.92C781.194 49.92 782.687 50.5867 783.647 51.92C784.607 53.2533 785.087 54.9333 785.087 56.96C785.087 59.4133 784.527 61.92 783.407 64.48C782.767 65.92 781.86 67.52 780.687 69.28C779.514 70.9867 778.18 72.56 776.687 74C777.007 74.5867 777.46 75.0933 778.047 75.52C778.634 75.8933 779.434 76.08 780.447 76.08C781.727 76.08 782.927 75.5467 784.047 74.48C785.22 73.4133 786.287 72.1333 787.247 70.64C788.207 69.0933 789.06 67.5467 789.807 66C790.554 64.4533 791.167 63.2 791.647 62.24C791.807 61.92 792.074 61.76 792.447 61.76C792.66 61.76 792.82 61.8667 792.927 62.08C793.034 62.24 793.007 62.5067 792.847 62.88C792.527 63.68 791.994 64.88 791.247 66.48C790.5 68.0267 789.594 69.6533 788.527 71.36C787.46 73.0133 786.234 74.4267 784.847 75.6C783.46 76.7733 781.914 77.36 780.207 77.36C779.034 77.36 778.02 77.1733 777.167 76.8C776.314 76.3733 775.62 75.8667 775.087 75.28C773.967 76.1333 772.847 76.8 771.727 77.28C770.607 77.76 769.487 78 768.367 78ZM769.567 76.24C771.007 76.24 772.554 75.5467 774.207 74.16C773.78 73.52 773.46 72.8533 773.247 72.16C773.034 71.4667 772.927 70.8267 772.927 70.24C772.927 69.28 773.14 68.4533 773.567 67.76C774.047 67.0667 774.767 66.72 775.727 66.72C776.42 66.72 776.98 66.9867 777.407 67.52C777.887 68 778.127 68.56 778.127 69.2C778.127 69.36 778.1 69.52 778.047 69.68C778.047 69.7867 778.02 69.92 777.967 70.08C778.874 68.8533 779.727 67.4133 780.527 65.76C782.287 61.9733 783.167 58.8533 783.167 56.4C783.167 55.1733 782.927 54.2133 782.447 53.52C781.967 52.8267 781.247 52.48 780.287 52.48C779.167 52.48 777.94 52.96 776.607 53.92C775.327 54.88 774.074 56.16 772.847 57.76C771.674 59.36 770.634 61.1467 769.727 63.12C768.874 64.9333 768.18 66.6933 767.647 68.4C767.167 70.0533 766.927 71.4933 766.927 72.72C766.927 73.7867 767.14 74.64 767.567 75.28C767.994 75.92 768.66 76.24 769.567 76.24ZM800.844 78.08C799.83 78.08 798.817 77.68 797.804 76.88C796.79 76.0267 796.284 74.6667 796.284 72.8C796.284 71.36 796.63 69.7067 797.324 67.84C797.964 66.0267 798.817 64.2667 799.884 62.56C801.004 60.8533 801.804 59.4667 802.284 58.4C802.444 57.9733 802.524 57.6 802.524 57.28C802.524 56.32 801.91 55.6267 800.684 55.2C799.51 54.7733 797.964 54.5333 796.044 54.48L795.084 57.12C794.497 58.8267 793.67 60.8267 792.604 63.12C791.59 65.4133 790.444 67.6267 789.164 69.76C787.937 71.8933 786.657 73.6 785.324 74.88C785.217 74.9867 785.084 75.04 784.924 75.04C784.71 75.04 784.577 74.9067 784.524 74.64C784.417 74.3733 784.524 74.0533 784.844 73.68C786.924 70.9067 788.79 67.84 790.444 64.48C792.097 61.0667 793.484 57.6 794.604 54.08C795.777 50.56 796.63 47.3067 797.164 44.32C797.324 43.4667 797.617 42.8533 798.044 42.48C798.47 42.0533 798.924 41.84 799.404 41.84C800.097 41.84 800.737 42.1867 801.324 42.88C801.91 43.52 802.204 44.4533 802.204 45.68C802.204 45.8933 802.177 46.1333 802.124 46.4C802.124 46.6667 802.097 46.9333 802.044 47.2C801.83 48.32 801.19 49.3867 800.124 50.4C799.11 51.36 798.284 52.08 797.644 52.56C798.177 52.6133 798.737 52.6667 799.324 52.72C799.91 52.72 800.55 52.72 801.244 52.72C803.75 52.72 806.23 52.56 808.684 52.24C808.79 52.56 808.844 52.8 808.844 52.96C808.844 53.6533 808.63 54.5333 808.204 55.6C807.83 56.6667 807.43 57.6267 807.004 58.48C806.79 58.96 806.364 59.84 805.724 61.12C805.084 62.3467 804.39 63.76 803.644 65.36C802.897 66.9067 802.257 68.4533 801.724 70C801.244 71.4933 801.004 72.7733 801.004 73.84C801.004 75.2267 801.537 75.92 802.604 75.92C803.404 75.92 804.284 75.4133 805.244 74.4C806.204 73.3333 807.137 72.0533 808.044 70.56C809.004 69.0133 809.857 67.52 810.604 66.08C811.404 64.5867 812.017 63.4133 812.444 62.56C812.657 62.0267 812.95 61.76 813.324 61.76C813.537 61.76 813.644 61.9467 813.644 62.32C813.644 62.5333 813.564 62.8533 813.404 63.28C812.817 64.5067 812.124 65.8933 811.324 67.44C810.524 68.9867 809.617 70.5067 808.604 72C807.644 73.4933 806.577 74.8 805.404 75.92C804.284 76.9867 803.057 77.68 801.724 78C801.564 78.0533 801.27 78.08 800.844 78.08ZM800.023 99.84C799.383 99.84 798.743 99.7333 798.103 99.52C797.41 99.36 796.716 99.3333 796.023 99.44C796.343 99.12 796.956 98.1867 797.863 96.64C798.77 95.1467 799.836 93.28 801.063 91.04C802.236 88.8 803.49 86.3733 804.823 83.76C806.156 81.1467 807.41 78.5867 808.583 76.08C809.756 73.52 810.743 71.2 811.543 69.12C812.396 66.9867 812.93 65.3067 813.143 64.08C812.663 64.7733 812.183 65.1733 811.703 65.28C811.276 65.3333 811.17 65.1733 811.383 64.8C811.49 64.5867 811.703 64.08 812.023 63.28C812.396 62.4267 812.716 61.7067 812.983 61.12C813.41 60.0533 813.756 58.88 814.023 57.6C814.343 56.32 814.503 55.0933 814.503 53.92C814.503 53.1733 814.423 52.5333 814.263 52C814.103 51.4667 813.81 51.1733 813.383 51.12C813.383 51.12 813.676 51.0667 814.263 50.96C814.85 50.8533 815.463 50.7467 816.103 50.64C816.743 50.5333 817.17 50.48 817.383 50.48C817.703 50.4267 817.996 50.4 818.263 50.4C818.53 50.3467 818.77 50.32 818.983 50.32C819.463 50.32 819.783 50.5067 819.943 50.88C820.156 51.2 820.263 51.8933 820.263 52.96C820.263 54.2933 820.023 56 819.543 58.08C819.116 60.1067 818.61 61.8933 818.023 63.44C818.61 62.48 819.356 61.2533 820.263 59.76C821.223 58.2667 822.316 56.7467 823.543 55.2C824.77 53.6533 826.05 52.3733 827.383 51.36C828.716 50.2933 830.023 49.76 831.303 49.76C831.57 49.76 831.916 49.8133 832.343 49.92C833.836 50.2933 834.876 51.04 835.463 52.16C836.103 53.2267 836.423 54.5067 836.423 56C836.423 57.6 836.103 59.36 835.463 61.28C834.876 63.2 834.076 65.0933 833.063 66.96C832.05 68.7733 830.93 70.4267 829.703 71.92C828.21 73.7867 826.423 75.28 824.343 76.4C822.263 77.52 820.13 78.08 817.943 78.08C815.97 78.08 814.13 77.5733 812.423 76.56L804.823 95.68C804.076 97.28 803.356 98.3733 802.663 98.96C801.97 99.5467 801.09 99.84 800.023 99.84ZM815.383 76.4C816.876 76.4 818.556 75.7067 820.423 74.32C822.29 72.9333 824.076 71.1733 825.783 69.04C827.543 66.8533 829.01 64.6667 830.183 62.48C830.983 60.9867 831.57 59.6267 831.943 58.4C832.316 57.12 832.503 56.0267 832.503 55.12C832.503 53.04 831.756 52 830.263 52C829.57 52 828.663 52.3733 827.543 53.12C826.476 53.8667 825.223 55.2267 823.783 57.2C822.236 59.3333 820.53 62.0267 818.663 65.28C816.85 68.48 814.983 71.8667 813.063 75.44C813.703 76.08 814.476 76.4 815.383 76.4Z" fill="#08B008"/>
</svg>
