<svg width="74" height="82" viewBox="0 0 74 82" fill="none" xmlns="http://www.w3.org/2000/svg">
<g clip-path="url(#clip0_23_12)">
<path d="M58.2835 8.98877C59.9452 10.1766 61.5 11.4912 62.9347 12.9326C69.6079 19.6058 73.7319 28.8215 73.7319 39.0047C73.7319 49.188 69.6079 58.4036 62.9347 65.0768C56.2616 71.75 47.0459 75.874 36.8693 75.874C32.2048 75.874 27.7471 75.0065 23.6364 73.4316L29.2218 67.2656C31.6576 67.9263 34.2201 68.2733 36.8693 68.2733C44.9505 68.2733 52.271 64.9967 57.5628 59.6982C62.8613 54.3997 66.1312 47.0859 66.1312 39.0047C66.1312 30.9235 62.8547 23.603 57.5628 18.3112C56.4551 17.2035 55.2606 16.1891 53.9927 15.2682L58.2835 8.98877ZM12.1318 66.3447C11.6781 65.931 11.231 65.5106 10.7972 65.0768C4.12402 58.4036 0 49.188 0 39.0047C0 28.8215 4.12402 19.6058 10.7972 12.9326C16.0423 7.6875 22.8556 4.01725 30.4764 2.68929L25.5716 11.9984C22.0282 13.4798 18.8384 15.6419 16.1691 18.3112C10.8706 23.6097 7.59408 30.9235 7.59408 39.0047C7.59408 46.8924 10.7104 54.0461 15.7821 59.3112L12.1318 66.3447Z" fill="#00880F"/>
<path fill-rule="evenodd" clip-rule="evenodd" d="M59.3579 0L37.897 0.286947L17.2235 39.5319L31.3039 39.6787L9.3024 82L58.9308 27.7337H40.3927L59.3579 0Z" fill="#F6C32E"/>
</g>
<defs>
<clipPath id="clip0_23_12">
<rect width="73.7386" height="82" fill="white"/>
</clipPath>
</defs>
</svg>
