<svg width="48" height="48" viewBox="0 0 48 48" fill="none" xmlns="http://www.w3.org/2000/svg">
<g clip-path="url(#clip0_12_3)">
<path d="M24 48C37.2548 48 48 37.2548 48 24C48 10.7452 37.2548 0 24 0C10.7452 0 0 10.7452 0 24C0 37.2548 10.7452 48 24 48Z" fill="#08B008"/>
<path fill-rule="evenodd" clip-rule="evenodd" d="M30.501 17.5059C30.6548 17.342 30.8398 17.2104 31.0452 17.1189C31.2505 17.0275 31.4721 16.978 31.6968 16.9733C31.9216 16.9686 32.145 17.0088 32.354 17.0917C32.5629 17.1745 32.7533 17.2982 32.9138 17.4556C33.0743 17.613 33.2017 17.8008 33.2887 18.0082C33.3756 18.2155 33.4202 18.438 33.42 18.6628C33.4197 18.8876 33.3746 19.1101 33.2872 19.3172C33.1998 19.5243 33.0719 19.7119 32.911 19.8689L23.929 31.0969C23.7746 31.2631 23.5883 31.3965 23.3812 31.4891C23.174 31.5816 22.9504 31.6315 22.7236 31.6357C22.4967 31.6399 22.2714 31.5984 22.061 31.5135C21.8506 31.4287 21.6595 31.3023 21.499 31.1419L15.547 25.1879C15.3792 25.0339 15.2443 24.8475 15.1504 24.64C15.0565 24.4325 15.0056 24.2081 15.0008 23.9804C14.9959 23.7527 15.0371 23.5264 15.122 23.315C15.2069 23.1037 15.3337 22.9117 15.4948 22.7507C15.6558 22.5896 15.8478 22.4628 16.0591 22.3779C16.2705 22.293 16.4968 22.2518 16.7245 22.2566C16.9522 22.2615 17.1766 22.3124 17.3841 22.4063C17.5916 22.5002 17.778 22.6351 17.932 22.8029L22.644 27.5119L30.458 17.5559C30.472 17.5386 30.487 17.5223 30.503 17.5069L30.501 17.5059Z" fill="white"/>
</g>
<defs>
<clipPath id="clip0_12_3">
<rect width="48" height="48" fill="white"/>
</clipPath>
</defs>
</svg>
