<svg width="80" height="80" viewBox="0 0 80 80" fill="none" xmlns="http://www.w3.org/2000/svg">
<path d="M29.6 21.52V24.16H26.88H24.16V42.64V61.12L30.528 61.088L36.88 61.04L36.928 58.352L36.96 55.68H40H43.04L43.072 58.352L43.12 61.04L49.488 61.088L55.84 61.12V42.64V24.16H53.12H50.4V21.52V18.88H40H29.6V21.52ZM33.888 31.712L33.84 34.16L31.408 34.208L28.96 34.256V31.76V29.28H31.44H33.936L33.888 31.712ZM42.4 31.76V34.256L39.968 34.208L37.52 34.16L37.472 31.712L37.424 29.28H39.92H42.4V31.76ZM51.04 31.76V34.256L48.608 34.208L46.16 34.16L46.112 31.712L46.064 29.28H48.56H51.04V31.76ZM33.92 40.32V42.72H31.44H28.96V40.32V37.92H31.44H33.92V40.32ZM42.4 40.32V42.72H39.92H37.44V40.32V37.92H39.92H42.4V40.32ZM51.04 40.32V42.72H48.56H46.08V40.32V37.92H48.56H51.04V40.32ZM33.888 48.912L33.936 51.36H31.44H28.96V48.88V46.384L31.408 46.432L33.84 46.48L33.888 48.912ZM42.4 48.88V51.36H39.92H37.44V48.992C37.44 47.68 37.488 46.56 37.552 46.512C37.6 46.448 38.72 46.4 40.032 46.4H42.4V48.88ZM51.04 48.88V51.36H48.56H46.08V48.992C46.08 47.68 46.128 46.56 46.192 46.512C46.24 46.448 47.36 46.4 48.672 46.4H51.04V48.88Z" fill="#00880F"/>
<path d="M0.799988 47.84V61.12L10.528 61.088L20.24 61.04L20.288 47.792L20.32 34.56H10.56H0.799988V47.84ZM9.11999 40.64V43.04H6.63999H4.15999V40.64V38.24H6.63999H9.11999V40.64ZM16.96 40.64V43.04H14.56H12.16V40.64V38.24H14.56H16.96V40.64ZM9.08799 48.432L9.13599 50.88H6.63999H4.15999V48.4V45.904L6.60799 45.952L9.03999 46L9.08799 48.432ZM16.96 48.4V50.88H14.56H12.16V48.4V45.92H14.56H16.96V48.4Z" fill="#00880F"/>
<path d="M59.712 47.792L59.76 61.04L69.488 61.088L79.2 61.12V47.84V34.56H69.44H59.68L59.712 47.792ZM68 40.64V43.04H65.52H63.04V40.64V38.24H65.52H68V40.64ZM76 40.64V43.04H73.52H71.04V40.64V38.24H73.52H76V40.64ZM68 48.4V50.88H65.52H63.04V48.4V45.92H65.52H68V48.4ZM75.968 48.432L76.016 50.88H73.52H71.04V48.4V45.904L73.488 45.952L75.92 46L75.968 48.432Z" fill="#00880F"/>
</svg>
