<svg width="121" height="80" viewBox="0 0 121 80" fill="none" xmlns="http://www.w3.org/2000/svg">
<g clip-path="url(#clip0_16_161)">
<path d="M120.687 79.7054L120.649 79.7077C116.786 79.8963 113.634 77.9516 111.204 75.0971C110.809 75.563 110.382 76.0009 109.927 76.4077C105.135 80.6576 98.2327 80.4007 93.3439 76.4477H93.3392C92.7681 75.9863 92.2338 75.4812 91.7411 74.9368C91.5431 75.1819 91.3403 75.4153 91.1306 75.6369C86.4304 80.6954 77.3199 81.6854 72.5914 76.073C72.3441 75.7754 72.109 75.4679 71.8866 75.1513C71.3916 75.7185 70.8551 76.2479 70.2814 76.7353C65.4185 80.8698 58.6983 80.9358 53.9509 76.5845C53.4292 76.1065 52.9446 75.5896 52.5012 75.0382C51.9849 75.5725 51.4429 76.0815 50.8772 76.5632C45.5335 81.0654 39.2752 81.3648 34.2992 76.1554C34.0572 75.9017 33.823 75.6408 33.5967 75.3729C33.2013 75.8392 32.7728 76.2764 32.3144 76.6811C26.9849 81.4332 18.987 80.5445 14.1312 75.2149C13.9309 75.4577 13.7282 75.6911 13.5184 75.9127C9.32496 80.4243 4.26648 80.8816 0 77.8479V70.0763C1.32944 72.3934 3.95769 75.3682 6.70379 74.3946C9.10811 73.5578 10.6285 71.5896 11.7104 69.3715L11.7741 69.2584C12.8442 67.3255 15.5597 67.5565 16.4153 69.454C18.8479 74.265 25.3537 76.7848 29.4741 72.2119C30.1058 71.5142 30.6691 70.6444 31.1335 69.5954C32.0198 67.5801 34.7918 67.5471 35.7913 69.4139C40.2935 77.532 45.8234 75.6958 50.764 69.0934L50.8229 69.0156C52.0675 67.4646 54.4106 67.8747 55.2073 69.5648L55.2332 69.6285C58.6323 77.0418 66.3873 75.816 69.8382 68.9472C70.8636 66.9083 73.7653 67.1181 74.5667 69.1664C74.9957 70.2578 75.4672 71.1983 75.9928 71.9738C78.8591 76.2356 85.1339 75.0334 87.913 71.4152C88.4269 70.7505 88.8936 69.9726 89.3202 69.0981L89.3862 68.9802C89.6408 68.5182 89.9991 68.1741 90.4069 67.9525C90.8642 67.8582 91.3215 67.7545 91.7764 67.6414C92.6816 67.6861 93.5726 68.2 94.0275 69.1759C94.5484 70.2107 95.2132 71.1017 95.9722 71.8418C99.1214 74.8802 104.015 75.3493 107.084 71.9361C107.716 71.2384 108.279 70.371 108.741 69.3173C109.02 68.6895 109.535 68.1966 110.174 67.9454C111.412 67.4646 112.788 67.9902 113.401 69.1358C114.705 71.493 116.904 74.3569 119.867 74.5337C120.088 74.5455 120.326 74.5408 120.574 74.5219L120.687 74.5101V79.7054V79.7054ZM69.0816 60.1691C68.1104 59.563 67.179 58.8953 66.2931 58.1702C59.7142 53.4253 55.1248 45.2883 55.1931 33.4506C55.173 33.1776 55.247 32.906 55.4026 32.6809C55.5583 32.4557 55.7863 32.2907 56.0488 32.2131L60.9046 30.754L60.8998 23.1521C60.8998 20.4437 62.0101 17.9805 63.7945 16.1914L63.8062 16.182C65.5953 14.3976 68.0562 13.2897 70.7623 13.2897H74.4253V2.77439C74.4253 2.01538 74.7364 1.32237 75.2385 0.820295C75.7477 0.311146 76.4407 0 77.1997 0H89.061C89.8247 0 90.5201 0.313504 91.0198 0.813224C91.5218 1.3153 91.833 2.01067 91.833 2.77439V13.2897H99.6164C101.193 13.2897 102.629 13.9379 103.668 14.9751C104.713 16.0193 105.361 17.4572 105.361 19.0341V30.7729C106.933 31.2136 108.503 31.6262 110.07 31.9962C110.322 32.0554 110.548 32.1939 110.715 32.3912C110.881 32.5886 110.98 32.8344 110.997 33.0923C111.374 38.8886 110.306 43.907 108.229 48.1004C105.872 53.2178 102.306 57.1567 98.1101 59.858C93.7635 62.6583 88.7404 64.1245 83.6843 64.1975C78.6305 64.2706 73.5461 62.9482 69.0816 60.1691V60.1691ZM98.9257 31.3645L83.1539 27.157L66.4698 31.5932L57.5927 34.2568C57.6281 37.0052 57.9392 39.5274 58.4814 41.8327L82.5858 36.7648C82.7533 36.7278 82.9268 36.7262 83.095 36.7601L107.897 41.9647C108.482 39.5651 108.753 36.9486 108.644 34.1248C105.399 33.3257 102.162 32.3639 98.9257 31.3645V31.3645ZM77.1313 13.2897H89.127V6.33372H77.1313V13.2897V13.2897ZM99.6164 16.5355H70.7623C68.9425 16.5355 67.2878 17.2804 66.0927 18.4755C64.8905 19.6777 64.1457 21.3324 64.1457 23.1521V28.8588L82.7414 23.9135C83.003 23.8451 83.2859 23.8404 83.5664 23.9135L102.113 28.8612V19.0341C102.113 18.3459 101.832 17.7212 101.384 17.2733C100.932 16.8208 100.305 16.5355 99.6164 16.5355V16.5355ZM0 2.50331H36.3593C37.8844 2.50331 39.1243 3.74319 39.1243 5.26828V19.6682H40.548C44.1168 19.6682 47.0373 22.5864 47.0373 26.1552C47.0373 28.9838 45.2011 31.4069 42.6648 32.2885V50.8159L42.6766 50.8017C43.2517 50.0852 44.1027 49.7716 44.9206 49.8447C47.1222 50.0427 47.464 52.5672 48.7698 54.0075C50.9172 56.3599 53.7199 56.9563 56.2798 56.0346C57.5032 57.449 58.8279 58.7289 60.2375 59.8745C55.6245 62.5994 49.9602 62.1845 45.8022 58.3706C45.2799 57.8924 44.7952 57.3747 44.3525 56.8219C38.5279 62.8587 31.1995 63.8911 25.4457 57.159C20.1915 63.3254 11.2743 62.7879 5.98014 57.0011C5.61242 56.6263 5.70907 56.3953 5.35313 57.0011C3.87047 58.6299 2.03188 59.9004 0 60.683V54.8254C0.396005 54.5473 0.773152 54.2385 1.12201 53.9038C1.88338 53.1636 2.5481 52.2726 3.06904 51.2402C3.6324 49.9862 5.07027 49.4841 6.32429 49.7457V32.6445H0V19.6682H14.2797V8.03324H0V2.50331ZM30.8742 55.2662V32.6445H18.1149V56.0747C19.2864 55.7188 20.3895 55.0376 21.3253 53.9981C21.957 53.3003 22.518 52.4305 22.9848 51.3792C23.262 50.7511 23.7763 50.258 24.4156 50.0074C25.0331 49.7646 25.745 49.7575 26.4003 50.0474C26.6761 50.17 26.9236 50.3327 27.1334 50.533L27.2112 50.6132C27.3808 50.787 27.5253 50.9837 27.6402 51.1977C28.6703 53.0552 29.7546 54.3893 30.8742 55.2662V55.2662ZM33.5944 19.6682V8.03324H19.8097V19.6682H33.5944V19.6682ZM110.217 55.9757C113.606 57.2557 116.953 54.7028 119.622 51.3816C119.966 50.9549 120.263 50.4788 120.687 50.1299V57.7719C120.477 57.9557 120.268 58.1349 120.055 58.307C115.702 61.8569 110.773 62.5569 106.469 59.891C107.798 58.703 109.054 57.3971 110.217 55.9757V55.9757Z" fill="#00880F"/>
</g>
<defs>
<clipPath id="clip0_16_161">
<rect width="120.687" height="80" fill="white"/>
</clipPath>
</defs>
</svg>
